SplineFontDB: 3.2
FontName: AtkinsonHyperPro-Bold
FullName: Atkinson Hyperlegible Pro Bold
FamilyName: Atkinson Hyperlegible Pro
Weight: Bold
Copyright: Copyright 2020 Braille Institute of America, Inc.
UComments: "Update by Jacob Perez+AAoA-https://jacobxperez.github.io/atkinson-hyperlegible-pro/"
Version: 1.3.2
ItalicAngle: 0
UnderlinePosition: -106
UnderlineWidth: 57
Ascent: 800
Descent: 200
InvalidEm: 0
sfntRevision: 0x00010000
LayerCount: 2
Layer: 0 0 "Back" 1
Layer: 1 0 "Fore" 0
XUID: [1021 466 782043844 10191]
StyleMap: 0x0020
FSType: 0
OS2Version: 4
OS2_WeightWidthSlopeOnly: 0
OS2_UseTypoMetrics: 1
CreationTime: 1615339189
ModificationTime: 1697754430
PfmFamily: 81
TTFWeight: 700
TTFWidth: 5
LineGap: 0
VLineGap: 0
Panose: 0 0 0 0 0 0 0 0 0 0
OS2TypoAscent: 950
OS2TypoAOffset: 0
OS2TypoDescent: -290
OS2TypoDOffset: 0
OS2TypoLinegap: 0
OS2WinAscent: 950
OS2WinAOffset: 0
OS2WinDescent: 290
OS2WinDOffset: 0
HheadAscent: 950
HheadAOffset: 0
HheadDescent: -290
HheadDOffset: 0
OS2SubXSize: 650
OS2SubYSize: 699
OS2SubXOff: 0
OS2SubYOff: 140
OS2SupXSize: 650
OS2SupYSize: 699
OS2SupXOff: 0
OS2SupYOff: 479
OS2StrikeYSize: 49
OS2StrikeYPos: 258
OS2CapHeight: 668
OS2XHeight: 496
OS2Vendor: 'NONE'
OS2CodePages: 20000003.00000000
OS2UnicodeRanges: 800000ef.0000204b.00000000.00000000
Lookup: 4 0 1 "'liga' Standard Ligatures lookup 0" { "'liga' Standard Ligatures lookup 0-1"  } ['liga' ('DFLT' <'dflt' > 'grek' <'dflt' > 'latn' <'MOL ' 'dflt' > ) ]
Lookup: 1 0 0 "'zero' Slashed Zero lookup 0" { "'zero' Slashed Zero lookup 0-1"  } ['zero' ('DFLT' <'dflt' > 'grek' <'dflt' > 'latn' <'MOL ' 'dflt' > ) ]
Lookup: 1 0 0 "'aalt' Access All Alternates lookup 0" { "'aalt' Access All Alternates lookup 0 subtable"  } ['aalt' ('DFLT' <'dflt' > 'grek' <'dflt' > 'latn' <'dflt' > ) ]
Lookup: 3 0 0 "'aalt' Access All Alternates lookup 1" { "'aalt' Access All Alternates lookup 1 subtable"  } ['aalt' ('DFLT' <'dflt' > 'grek' <'dflt' > 'latn' <'dflt' > ) ]

StartChar: .notdef
Encoding: 256 -1 0
Width: 527
GlyphClass: 1
Flags: W
HStem: 0 21<79 449> 680 20<78 449>
VStem: 50 21<49 650> 457 20<47 652>
DStem2: 78 680 71 650 0.513698 -0.857971<22.1432 360.147 396.696 737.787> 71 49 79 21 0.513896 0.857853<0 339.381 374.897 715.649>
LayerCount: 2
Fore
SplineSet
79 21 m 1
 449 21 l 1
 264 329 l 1
 79 21 l 1
71 49 m 1
 251 350 l 1
 71 650 l 1
 71 49 l 1
457 47 m 1
 457 652 l 1
 276 350 l 1
 457 47 l 1
263 371 m 1
 449 680 l 1
 78 680 l 1
 263 371 l 1
50 0 m 1
 50 700 l 1
 477 700 l 1
 477 0 l 1
 50 0 l 1
EndSplineSet
EndChar

StartChar: zero
Encoding: 48 48 5
Width: 652
GlyphClass: 1
Flags: W
HStem: -12 113<269.804 394.636> 567 113<268.672 394.525>
VStem: 45 156<189.407 427.889> 461 157<249.964 483.02>
DStem2: 254 534 209 431 0.570817 -0.821077<58.8842 351.204>
LayerCount: 2
Fore
SplineSet
209 431 m 1
 203.233883839 400.727890154 201 369.258038634 201 334.618339284 c 0
 201 254.333333333 213 195.166666667 238.704878579 154.824287786 c 0
 261 119.833333333 292.333333333 101 331.891568068 101 c 0
 364.333333333 101 391.333333333 113.666666667 412 139 c 1
 209 431 l 1
455 246 m 1
 459 272 461 301.333333333 461 334.546052832 c 0
 461 415.333333333 449.166666667 474.5 423.848193126 514.082402296 c 0
 401.833333333 548.5 370.333333333 567 331.186278421 567 c 0
 301 567 275.333333333 556 254 534 c 1
 455 246 l 1
618 339.951458525 m 0
 618 229.879745163 589.874069278 -12 339.170140386 -12 c 0
 247.072352647 -12 45 20.64191419 45 346.648542539 c 0
 45 396.640282036 49.7517166421 680 332.110675868 680 c 0
 425 680 496.333333333 649.333333333 546.200419837 586.487142123 c 0
 593.666666667 526.666666667 618 442.333333333 618 339.951458525 c 0
EndSplineSet
Substitution2: "'zero' Slashed Zero lookup 0-1" zero.alt1
Substitution2: "'aalt' Access All Alternates lookup 0 subtable" zero.alt1
Substitution2: "'tnum' Tabular Numbers lookup 14 subtable" zero.tf
EndChar

StartChar: one
Encoding: 49 49 6
Width: 448
GlyphClass: 1
Flags: W
HStem: 0 21G<199 350> 448 123<47 179.418> 648 20G<218.285 350>
VStem: 199 151<0 448>
LayerCount: 2
Fore
SplineSet
47 571 m 1
 162.269059322 571 201.569707042 584.424267604 235 668 c 1
 350 668 l 1
 350 0 l 1
 199 0 l 1
 199 448 l 1
 47 448 l 1
 47 571 l 1
EndSplineSet
Substitution2: "'tnum' Tabular Numbers lookup 14 subtable" one.tf
Substitution2: "'sups' Superscript lookup 9 subtable" uni00B9
AlternateSubs2: "'aalt' Access All Alternates lookup 1 subtable" uni00B9 one.tf
EndChar

StartChar: two
Encoding: 50 50 7
Width: 586
GlyphClass: 1
Flags: W
HStem: 0 125<228 547> 567 113<232.515 364.945>
VStem: 391 153<414.699 541.165>
LayerCount: 2
Fore
SplineSet
59 535 m 1
 74.4716754794 575.111751243 131.602386966 680 306.213123585 680 c 0
 341.451850033 680 452.975406987 675.728057937 511.812880993 593.165796026 c 0
 533.666666667 562.5 544 527 544 485.757727181 c 0
 544 417.666666667 515.833333333 355.166666667 453.206117916 291.057150293 c 0
 403.166666667 239.833333333 326 182.333333333 228 125 c 1
 547 125 l 1
 547 0 l 1
 34 0 l 1
 34 125 l 1
 296.599356484 310.013182977 391 401.115365692 391 485.546739089 c 0
 391 555.690375998 325.845591349 567 296.838352106 567 c 0
 269.791980002 567 213.890321831 557.167738731 197 485 c 1
 59 535 l 1
EndSplineSet
Substitution2: "'tnum' Tabular Numbers lookup 14 subtable" two.tf
Substitution2: "'sups' Superscript lookup 9 subtable" uni00B2
AlternateSubs2: "'aalt' Access All Alternates lookup 1 subtable" uni00B2 two.tf
EndChar

StartChar: three
Encoding: 51 51 8
Width: 605
GlyphClass: 1
Flags: W
HStem: -12 113<217.558 362.898> 291 106<211 336.907> 567 113<212.445 360.586>
VStem: 390 153<438.77 539.398> 398 156<135.948 249.225>
LayerCount: 2
Fore
SplineSet
554 182.979283521 m 0xe8
 554 31.5875000226 391.747787183 -12 289.822851505 -12 c 0
 228.717027601 -12 87.0190155219 3.66629415912 33 140 c 1
 171 190 l 1
 179.930225428 156.33991954 207.862389228 101 290.71584349 101 c 0
 316.693620242 101 398 106.440279906 398 204.494465839 c 0xe8
 398 213.831873926 397.262698654 291 211 291 c 1
 211 397 l 1
 272.768057438 397 390 407.707807505 390 490.531840843 c 0
 390 560.08126647 307.33525979 567 281.859022123 567 c 0
 247.164762996 567 192.036670075 554.168682346 177 485 c 1
 40 535 l 1
 91.4780887887 666.269126411 236.541498216 680 297.354129995 680 c 0
 416.245608532 680 543 627.517800543 543 505.586055568 c 0xf0
 543 409.651158557 464.533792248 360.305024141 450 352 c 1
 517.3682585 327.502451454 554 254.913542472 554 182.979283521 c 0xe8
EndSplineSet
Substitution2: "'tnum' Tabular Numbers lookup 14 subtable" three.tf
Substitution2: "'sups' Superscript lookup 9 subtable" uni00B3
AlternateSubs2: "'aalt' Access All Alternates lookup 1 subtable" uni00B3 three.tf
EndChar

StartChar: four
Encoding: 52 52 9
Width: 626
GlyphClass: 1
Flags: W
HStem: 0 21G<348 500> 141 134<188 348 500 592> 648 20G<332.375 500>
VStem: 348 152<0 141 275 469>
DStem2: 23 252 188 275 0.615644 0.788024<119.706 371.086>
LayerCount: 2
Fore
SplineSet
188 275 m 1
 348 275 l 1
 348 469 l 1
 188 275 l 1
348 0 m 1
 348 141 l 1
 23 141 l 1
 23 252 l 1
 348 668 l 1
 500 668 l 1
 500 275 l 1
 592 275 l 1
 592 141 l 1
 500 141 l 1
 500 0 l 1
 348 0 l 1
EndSplineSet
Substitution2: "'tnum' Tabular Numbers lookup 14 subtable" four.tf
Substitution2: "'sups' Superscript lookup 9 subtable" uni2074
AlternateSubs2: "'aalt' Access All Alternates lookup 1 subtable" four.tf uni2074
EndChar

StartChar: five
Encoding: 53 53 10
Width: 612
GlyphClass: 1
Flags: W
HStem: -12 113<214.888 361.079> 341 113<221.428 362.043> 544 124<213 534>
VStem: 408 157<146.428 295.204>
LayerCount: 2
Fore
SplineSet
565 227.713339511 m 0
 565 52.8120126484 418.946153711 -12 286.574557544 -12 c 0
 264.443457221 -12 105.513885389 -10.188359961 41 139 c 1
 173 187 l 1
 186.19115852 140.830945181 217.664456376 101 283.156517836 101 c 0
 309.744708325 101 408 107.564790241 408 221.562447711 c 0
 408 334.849436898 310.965948629 341 286.530080728 341 c 0
 240.666666667 341 204 319.333333333 180 276 c 1
 45 326 l 1
 87 668 l 1
 534 668 l 1
 534 544 l 1
 213 544 l 1
 198 419 l 1
 202.220099213 422.119203766 247.408011598 454 323.749056704 454 c 0
 422.880567062 454 565 400.242829274 565 227.713339511 c 0
EndSplineSet
Substitution2: "'tnum' Tabular Numbers lookup 14 subtable" five.tf
Substitution2: "'aalt' Access All Alternates lookup 0 subtable" five.tf
EndChar

StartChar: six
Encoding: 54 54 11
Width: 632
GlyphClass: 1
Flags: W
HStem: -12 113<255.194 385.155> 338 114<253.739 386.153> 570 110<267.527 395.361>
VStem: 51 161<149.962 339.913> 425 153<142.141 294.085>
LayerCount: 2
Fore
SplineSet
212 220.106356126 m 0
 212 147.438364476 254.453480706 101 320.277596161 101 c 0
 389.934439554 101 425 153.003722477 425 215.300891109 c 0
 425 239.155858365 419.85835821 338 321.739939112 338 c 0
 256.908439313 338 212 294.845907591 212 220.106356126 c 0
578 228.792967409 m 0
 578 89.4274415048 472.459700308 -12 314.108780951 -12 c 0
 196.155725739 -12 51 44.2772258688 51 296.030998487 c 0
 51 385.045596924 69.1469929616 680 340.560509787 680 c 0
 401.229423849 680 495.39035221 665.262480876 544 583 c 1
 408 534 l 1
 403.348497011 541.907555081 383.086455634 570 331.53131702 570 c 0
 288.776134432 570 210 550.679286917 210 403 c 1
 262.29115375 451.10786145 327.664986052 452 340.670998339 452 c 0
 461.166327086 452 578 375.425458046 578 228.792967409 c 0
EndSplineSet
Substitution2: "'tnum' Tabular Numbers lookup 14 subtable" six.tf
Substitution2: "'aalt' Access All Alternates lookup 0 subtable" six.tf
EndChar

StartChar: seven
Encoding: 55 55 12
Width: 543
GlyphClass: 1
Flags: W
HStem: 0 21G<83 267.466> 543 125<15 354>
LayerCount: 2
Fore
SplineSet
83 0 m 1
 354 543 l 1
 15 543 l 1
 15 668 l 1
 515 668 l 1
 515 543 l 1
 258 0 l 1
 83 0 l 1
EndSplineSet
Substitution2: "'tnum' Tabular Numbers lookup 14 subtable" seven.tf
Substitution2: "'aalt' Access All Alternates lookup 0 subtable" seven.tf
EndChar

StartChar: eight
Encoding: 56 56 13
Width: 625
GlyphClass: 1
Flags: W
HStem: -12 126<235.162 388.819> 294 123<264.736 361> 555 125<264.1 361.564>
VStem: 38 157<151.179 262.267> 120 124<436.893 534.642> 380 125<435.196 536.188> 430 157<151.537 261.388>
LayerCount: 2
Fore
SplineSet
195 208.123084367 m 0xf2
 195 150.403656892 243.926710024 114 311.936445378 114 c 0
 382.022069521 114 430 152.659900614 430 208.089045391 c 0
 430 270.494245167 369.185560171 294 315.651851642 294 c 0
 292.513703073 294 195 289.608865369 195 208.123084367 c 0xf2
244 486.866331357 m 0xec
 244 448.264822513 275.263368916 417 313.147680634 417 c 0
 351.618260397 417 380 449.239969879 380 487.032361513 c 0
 380 523.804109583 353.130547928 555 314.03491586 555 c 0
 276.477108535 555 244 526.210019701 244 486.866331357 c 0xec
587 210.955113633 m 0xe2
 587 56.8674506452 458.897140429 -12 313.636609159 -12 c 0
 245.507060719 -12 135.604667548 3.14920250371 75.3014131136 85.228632151 c 0
 50 119.666666667 38 159.666666667 38 208.765822714 c 0xf2
 38 260.90714387 51.533098844 321.384394003 152 377 c 1
 133.15617531 407.150119503 120 443.679492333 120 486.815732614 c 0
 120 589.015550132 193.849118095 680 313.179775609 680 c 0
 431.557298918 680 505 590.463192517 505 487.029758213 c 0xec
 505 447 494 410.666666667 472 378 c 1
 574.926939016 321.02258733 587 258.259036013 587 210.955113633 c 0xe2
EndSplineSet
Substitution2: "'tnum' Tabular Numbers lookup 14 subtable" eight.tf
Substitution2: "'aalt' Access All Alternates lookup 0 subtable" eight.tf
EndChar

StartChar: nine
Encoding: 57 57 14
Width: 561
GlyphClass: 1
Flags: W
HStem: 0 21G<170 362.731> 202 133<216.011 278> 544 135<210.995 341.477>
VStem: 38 135<374.721 503.226>
LayerCount: 2
Fore
SplineSet
173 436.225658348 m 0
 173 362.240368006 238.123711552 335 282.635072141 335 c 0
 380.005173004 335 412.795775662 465.353432275 344.760583465 520.632025935 c 0
 326.666666667 535.333333333 302.333333333 544 274.603810621 544 c 0
 203.295467717 544 173 486.687679501 173 436.225658348 c 0
275.501288315 679 m 0
 406.735874546 679 516 573.260116931 516 438.111195807 c 0
 516 405.911789119 509.797765727 372.195407328 466.730622078 282.888252386 c 0
 455.01409654 258.592014631 395.461589196 134.116426645 330 0 c 1
 170 0 l 1
 206.705452941 63.285263691 240.979085048 127.958170095 278 202 c 1
 267 202 l 1
 142.861298504 207.911366738 38 308.412684501 38 440.964695122 c 0
 38 575.132941894 145.434083 679 275.501288315 679 c 0
EndSplineSet
Substitution2: "'tnum' Tabular Numbers lookup 14 subtable" nine.tf
Substitution2: "'aalt' Access All Alternates lookup 0 subtable" nine.tf
EndChar

StartChar: A
Encoding: 65 65 15
Width: 690
GlyphClass: 2
Flags: W
HStem: 0 21G<5 183.723 506.277 685> 119 128<260 430> 648 20G<250.425 439.575>
DStem2: 5 0 177 0 0.35419 0.935173<60.9207 186.374 321.306 484.629> 432 668 344 501 0.35419 -0.935173<125.005 393> 685 0 473 119 0.35419 -0.935173<-558.903 -321.306 -186.374 -60.9207>
AnchorPoint: "Anchor-2" 685 0 basechar 0
AnchorPoint: "Anchor-1" 345 0 basechar 0
AnchorPoint: "Anchor-0" 345 668 basechar 0
LayerCount: 2
Fore
SplineSet
260 247 m 1
 430 247 l 1
 344 501 l 1
 260 247 l 1
5 0 m 1
 258 668 l 1
 432 668 l 1
 685 0 l 1
 513 0 l 1
 473 119 l 1
 217 119 l 1
 177 0 l 1
 5 0 l 1
EndSplineSet
Substitution2: "Single Substitution lookup 12 subtable" ordfeminine
Substitution2: "'aalt' Access All Alternates lookup 0 subtable" ordfeminine
EndChar

StartChar: B
Encoding: 66 66 16
Width: 639
GlyphClass: 1
Flags: W
HStem: 0 131<202 422.546> 282 122<202 406.096> 539 129<202 404.182>
VStem: 44 158<131 282 404 539> 426 164<423.891 519.295> 450 167<155.502 258.073>
AnchorPoint: "Anchor-0" 286 668 basechar 0
LayerCount: 2
Fore
SplineSet
450 205.819652773 m 0xf4
 450 235.92224064 436.165348994 282 348 282 c 2
 202 282 l 1
 202 131 l 1
 348 131 l 2
 384.325662613 131 450 140.232681137 450 205.819652773 c 0xf4
426 471.625787943 m 0xf8
 426 516.442896627 392.366814644 539 341 539 c 2
 202 539 l 1
 202 404 l 1
 341 404 l 2
 358.522837468 404 426 408.145594612 426 471.625787943 c 0xf8
617 198.108972929 m 0xf4
 617 81.953318023 542.880757138 0 347 0 c 2
 44 0 l 1
 44 668 l 1
 336 668 l 2
 565.494072229 668 590 569.818081344 590 491.193785497 c 0xf8
 590 473.338369376 588.736144092 402.050824056 511 355 c 1
 564.006908409 336.95509501 617 296.32548317 617 198.108972929 c 0xf4
EndSplineSet
EndChar

StartChar: C
Encoding: 67 67 17
Width: 673
GlyphClass: 2
Flags: W
HStem: -12 130<293.806 456.852> 550 130<295.326 455.784>
VStem: 35 167<215.155 444.661>
AnchorPoint: "Anchor-1" 357 0 basechar 0
AnchorPoint: "Anchor-0" 357 668 basechar 0
LayerCount: 2
Fore
SplineSet
651 142 m 1
 625.353897602 96.478168243 545.701332129 -12 366.033996512 -12 c 0
 279.240690794 -12 145.094913166 13.3149193257 75.317252183 149.381358243 c 0
 48.3333333333 202 35 263.333333333 35 331.813725141 c 0
 35 549.74427212 170.033797532 680 365.518164842 680 c 0
 436.355517248 680 573.196501093 662.896011116 647 525 c 1
 507 474 l 1
 492.336642299 501.327166625 454.12934245 550 376.237608423 550 c 0
 285.143961963 550 202 483.429769873 202 330.681551017 c 0
 202 160.215618997 305.550833908 118 374.097619199 118 c 0
 405.431200183 118 476.601943468 126.821024745 512 193 c 1
 651 142 l 1
EndSplineSet
EndChar

StartChar: D
Encoding: 68 68 18
Width: 686
GlyphClass: 2
Flags: W
HStem: 0 133<202 393.617> 537 131<202 390.922>
VStem: 44 158<133 537> 488 163<222.856 447.488>
AnchorPoint: "Anchor-1" 343 0 basechar 0
AnchorPoint: "Anchor-0" 326 668 basechar 0
LayerCount: 2
Fore
SplineSet
488 335.451626745 m 0
 488 458.161031823 441.997453443 537 267 537 c 2
 202 537 l 1
 202 133 l 1
 267 133 l 2
 426.440150039 133 488 193.501530892 488 335.451626745 c 0
651 331.716324179 m 0
 651 216.510063955 621.392316982 0 264 0 c 2
 44 0 l 1
 44 668 l 1
 264 668 l 2
 613.721399684 668 651 460.988085642 651 331.716324179 c 0
EndSplineSet
EndChar

StartChar: E
Encoding: 69 69 19
Width: 580
GlyphClass: 2
Flags: W
HStem: 0 139<202 558> 274 139<202 419> 529 139<202 558>
VStem: 44 158<139 274 413 529>
AnchorPoint: "Anchor-2" 522 0 basechar 0
AnchorPoint: "Anchor-1" 290 0 basechar 0
AnchorPoint: "Anchor-0" 303 668 basechar 0
LayerCount: 2
Fore
SplineSet
44 0 m 1
 44 668 l 1
 558 668 l 1
 558 529 l 1
 202 529 l 1
 202 413 l 1
 419 413 l 1
 419 274 l 1
 202 274 l 1
 202 139 l 1
 558 139 l 1
 558 0 l 1
 44 0 l 1
EndSplineSet
EndChar

StartChar: F
Encoding: 70 70 20
Width: 544
GlyphClass: 1
Flags: W
HStem: 0 21G<44 202> 274 139<202 522> 529 139<202 522>
VStem: 44 158<0 274 413 529>
AnchorPoint: "Anchor-0" 273 668 basechar 0
LayerCount: 2
Fore
SplineSet
44 0 m 1
 44 668 l 1
 522 668 l 1
 522 529 l 1
 202 529 l 1
 202 413 l 1
 522 413 l 1
 522 274 l 1
 202 274 l 1
 202 0 l 1
 44 0 l 1
EndSplineSet
EndChar

StartChar: G
Encoding: 71 71 21
Width: 719
GlyphClass: 2
Flags: W
HStem: -12 130<294.644 471.15> 0 21G<573.054 683> 250 128<375 525> 550 130<295.529 462.844>
VStem: 35 167<220.217 446.72> 525 158<164.04 250>
AnchorPoint: "Anchor-1" 350 0 basechar 0
AnchorPoint: "Anchor-0" 370 668 basechar 0
LayerCount: 2
Fore
SplineSet
377.69525509 118 m 0xbc
 415.560379317 118 525 127.365568513 525 231 c 2
 525 250 l 1
 375 250 l 1
 375 378 l 1
 683 378 l 1
 683 0 l 1
 579 0 l 1x7c
 557 74 l 1
 514.333333333 16.6666666667 446 -12 353.951555083 -12 c 0
 148.965119665 -12 35 130.165603059 35 329.753249904 c 0
 35 554.161749131 179.073211771 680 374.262886903 680 c 0
 423.514956053 680 567.536546672 671.987870657 644 542 c 1
 508 486 l 1
 494.873092626 507.331224482 457.995529809 550 381.539025469 550 c 0
 299.061338719 550 202 500.345999083 202 333.671523082 c 0
 202 266 218 212.166666667 251.073292428 173.236645371 c 0
 282 136.833333333 324 118 377.69525509 118 c 0xbc
EndSplineSet
EndChar

StartChar: H
Encoding: 72 72 22
Width: 679
GlyphClass: 2
Flags: W
HStem: 0 21G<44 202 477 635> 274 139<202 477> 648 20G<44 202 477 635>
VStem: 44 158<0 274 413 668> 477 158<0 274 413 668>
AnchorPoint: "Anchor-1" 340 0 basechar 0
AnchorPoint: "Anchor-0" 340 668 basechar 0
LayerCount: 2
Fore
SplineSet
44 0 m 1
 44 668 l 1
 202 668 l 1
 202 413 l 1
 477 413 l 1
 477 668 l 1
 635 668 l 1
 635 0 l 1
 477 0 l 1
 477 274 l 1
 202 274 l 1
 202 0 l 1
 44 0 l 1
EndSplineSet
EndChar

StartChar: I
Encoding: 73 73 23
Width: 458
GlyphClass: 2
Flags: W
HStem: 0 124<57 151 309 401> 544 124<57 151 309 401>
VStem: 57 344<0 124 544 668>
AnchorPoint: "Anchor-2" 331 0 basechar 0
AnchorPoint: "Anchor-1" 229 0 basechar 0
AnchorPoint: "Anchor-0" 231 668 basechar 0
LayerCount: 2
Fore
SplineSet
57 0 m 1
 57 124 l 1
 151 124 l 1
 151 544 l 1
 57 544 l 1
 57 668 l 1
 401 668 l 1
 401 544 l 1
 309 544 l 1
 309 124 l 1
 401 124 l 1
 401 0 l 1
 57 0 l 1
EndSplineSet
EndChar

StartChar: J
Encoding: 74 74 24
Width: 560
GlyphClass: 1
Flags: W
HStem: -12 125<201.818 324.675>
VStem: 358 158<153.688 668>
AnchorPoint: "Anchor-0" 441 668 basechar 0
LayerCount: 2
Fore
SplineSet
516 256 m 2
 516 203.222231469 509.144636075 -12 260.722023102 -12 c 0
 172.264694301 -12 44.4582461918 15.2880511286 5 175 c 1
 150 228 l 1
 159.794103607 182.294183166 186.017717503 113 264.43691129 113 c 0
 347.449286179 113 358 190.649329676 358 256 c 2
 358 668 l 1
 516 668 l 1
 516 256 l 2
EndSplineSet
EndChar

StartChar: K
Encoding: 75 75 25
Width: 659
GlyphClass: 2
Flags: W
HStem: 0 21G<44 202 451.588 649> 648 20G<44 202 424.811 636>
VStem: 44 158<0 197 403 668> 443 193<475 668> 466 183<0 183>
DStem2: 202 403 372 382 0.677631 0.735402<99.7539 358.191> 372 382 270 272 0.587037 -0.80956<29.1738 364.433>
AnchorPoint: "Anchor-1" 319 0 basechar 0
AnchorPoint: "Anchor-0" 330 668 basechar 0
LayerCount: 2
Fore
SplineSet
44 0 m 1xe8
 44 668 l 1
 202 668 l 1
 202 403 l 1
 443 668 l 1
 636 668 l 1xf0
 372 382 l 1
 649 0 l 1
 466 0 l 1
 270 272 l 1
 202 197 l 1
 202 0 l 1
 44 0 l 1xe8
EndSplineSet
EndChar

StartChar: L
Encoding: 76 76 26
Width: 537
GlyphClass: 2
Flags: W
HStem: 0 139<202 522> 648 20G<44 202>
VStem: 44 158<139 668>
AnchorPoint: "Anchor-1" 269 0 basechar 0
AnchorPoint: "Anchor-0" 127 668 basechar 0
LayerCount: 2
Fore
SplineSet
44 0 m 1
 44 668 l 1
 202 668 l 1
 202 139 l 1
 522 139 l 1
 522 0 l 1
 44 0 l 1
EndSplineSet
EndChar

StartChar: M
Encoding: 77 77 27
Width: 842
GlyphClass: 1
Flags: W
HStem: 0 21G<44 197 348.981 491.057 644 798> 648 20G<44 286.804 555.113 798>
VStem: 44 153<0 525> 644 154<0 525>
DStem2: 281 668 197 525 0.288184 -0.957575<112.726 498.736> 420 189 485 0 0.289856 0.95707<0 386.503>
AnchorPoint: "Anchor-0" 420 668 basechar 0
LayerCount: 2
Fore
SplineSet
44 0 m 1
 44 668 l 1
 281 668 l 1
 420 189 l 1
 561 668 l 1
 798 668 l 1
 798 0 l 1
 644 0 l 1
 644 525 l 1
 485 0 l 1
 355 0 l 1
 197 525 l 1
 197 0 l 1
 44 0 l 1
EndSplineSet
EndChar

StartChar: N
Encoding: 78 78 28
Width: 700
GlyphClass: 2
Flags: W
HStem: 0 21G<44 196 443.16 656> 648 20G<44 255.84 503 656>
VStem: 44 152<0 476> 503 153<192 668>
DStem2: 245 668 196 476 0.476521 -0.879163<145.45 541.424>
AnchorPoint: "Anchor-1" 322 0 basechar 0
AnchorPoint: "Anchor-0" 365 668 basechar 0
LayerCount: 2
Fore
SplineSet
44 0 m 1
 44 668 l 1
 245 668 l 1
 503 192 l 1
 503 668 l 1
 656 668 l 1
 656 0 l 1
 454 0 l 1
 196 476 l 1
 196 0 l 1
 44 0 l 1
EndSplineSet
EndChar

StartChar: O
Encoding: 79 79 29
Width: 764
GlyphClass: 2
Flags: W
HStem: -12 130<298.887 465.755> 550 130<298.886 465.755>
VStem: 35 167<222.663 445.335> 561 168<223.962 444.036>
AnchorPoint: "Anchor-2" 688 10 basechar 0
AnchorPoint: "Anchor-1" 382 0 basechar 0
AnchorPoint: "Anchor-0" 382 668 basechar 0
LayerCount: 2
Fore
SplineSet
202 333.999899055 m 0
 202 170.903130976 304.198535667 118 382.047996548 118 c 0
 461.610848738 118 561 173.257450573 561 334.000974073 c 0
 561 494.754208669 461.598839462 550 382.046017599 550 c 0
 304.19726059 550 202 497.095649695 202 333.999899055 c 0
729 333.997485936 m 0
 729 128.168895318 589.523546506 -12 381.863654461 -12 c 0
 177.365134409 -12 35 123.933575869 35 333.998989643 c 0
 35 544.058417695 177.357021259 680 381.865112714 680 c 0
 589.542924943 680 729 539.811777455 729 333.997485936 c 0
EndSplineSet
Substitution2: "Single Substitution lookup 12 subtable" ordmasculine
Substitution2: "'aalt' Access All Alternates lookup 0 subtable" ordmasculine
EndChar

StartChar: P
Encoding: 80 80 30
Width: 626
GlyphClass: 1
Flags: W
HStem: 0 21G<44 202> 232 131<202 399.645> 535 133<202 401.906>
VStem: 44 158<0 232 363 535> 437 167<391.81 505.643>
AnchorPoint: "Anchor-0" 292 668 basechar 0
LayerCount: 2
Fore
SplineSet
437 449.658661203 m 0
 437 498.801078146 413.231479861 535 306 535 c 2
 202 535 l 1
 202 363 l 1
 306 363 l 2
 419.069810836 363 437 406.976355048 437 449.658661203 c 0
604 452.125260139 m 0
 604 344.244233183 565.324759557 232 301 232 c 2
 202 232 l 1
 202 0 l 1
 44 0 l 1
 44 668 l 1
 301 668 l 2
 572.582169247 668 604 549.358925796 604 452.125260139 c 0
EndSplineSet
EndChar

StartChar: Q
Encoding: 81 81 31
Width: 781
GlyphClass: 1
Flags: W
HStem: -12 130<299.602 465.235> 550 130<298.886 465.755>
VStem: 35 167<222.663 445.335> 561 168<252.707 443.928>
DStem2: 421 372 338 285 0.727013 -0.686624<0 176.866 342.616 493.803>
LayerCount: 2
Fore
SplineSet
202 333.999899055 m 0
 202 170.903130976 304.198535667 118 383.813603 118 c 0
 419 118 452.333333333 128.333333333 481 149 c 1
 338 285 l 1
 421 372 l 1
 550 251 l 1
 553.692599143 262.693230619 561 287.943844275 561 332.05681728 c 0
 561 494.754208669 461.598839462 550 382.046017599 550 c 0
 304.19726059 550 202 497.095649695 202 333.999899055 c 0
729 334.941369638 m 0
 729 275.065787122 717.088084844 202.94659533 674 135 c 1
 781 34 l 1
 698 -55 l 1
 589 48 l 1
 531.666666667 8 462.333333333 -12 383.330084902 -12 c 0
 177.365134409 -12 35 123.933575869 35 333.998989643 c 0
 35 544.058417695 177.357021259 680 381.865112714 680 c 0
 589.542924943 680 729 539.811777455 729 334.941369638 c 0
EndSplineSet
EndChar

StartChar: R
Encoding: 82 82 32
Width: 654
GlyphClass: 2
Flags: W
HStem: 0 21G<44 202 439.635 637> 252 132<202 273> 535 133<202 409.147>
VStem: 44 158<0 252 384 535> 437 167<408.554 510.132> 454 183<0 183>
DStem2: 443 269 273 252 0.58494 -0.811077<0 224.614>
AnchorPoint: "Anchor-1" 327 0 basechar 0
AnchorPoint: "Anchor-0" 307 668 basechar 0
LayerCount: 2
Fore
SplineSet
202 384 m 1xf8
 306 384 l 2
 343.333333333 384 374.5 388.833333333 394.845658469 396.700321275 c 0
 424.5 408.166666667 437 428.333333333 437 459.333333333 c 0
 437 490.333333333 424.5 510.833333333 394.716034552 522.349799973 c 0
 374.5 530.166666667 343.333333333 535 306 535 c 2
 202 535 l 1
 202 384 l 1xf8
604 470.801174451 m 0
 604 394.996726965 577.36165443 304.689814458 443 269 c 1
 637 0 l 1
 454 0 l 1xf4
 273 252 l 1
 202 252 l 1
 202 0 l 1
 44 0 l 1
 44 668 l 1
 301 668 l 2
 565.500549615 668 604 561.932634261 604 470.801174451 c 0
EndSplineSet
EndChar

StartChar: S
Encoding: 83 83 33
Width: 619
GlyphClass: 2
Flags: W
HStem: -12 127<225.437 399.696> 553 127<211.639 382.558>
VStem: 28 162<447.501 530.256>
DStem2: 266 421 231 285 0.980581 -0.196116<-69.2049 187.547>
AnchorPoint: "Anchor-1" 329 0 basechar 0
AnchorPoint: "Anchor-0" 304 668 basechar 0
LayerCount: 2
Fore
SplineSet
596 212.707959071 m 0
 596 62.7166446649 446.482561969 -12 307.318854124 -12 c 0
 234.327685321 -12 82.5226478119 8.55445725955 25 157 c 1
 169 209 l 1
 180.753233686 168.703198792 215.147744555 115 312.67582169 115 c 0
 341.389730689 115 434 119.655062012 434 200.482088646 c 1
 434 200.482088646 434 246.407407407 312 269 c 2
 231 285 l 2
 121.004909088 307.406407408 28 359.816019388 28 474.506174872 c 0
 28 634.563255377 209.135415421 680 310.403622236 680 c 0
 360.939713672 680 513.011929085 668.684747028 567 535 c 1
 424 483 l 1
 415.261754171 505.853873707 386.400437474 553 301.043206351 553 c 0
 279.74799243 553 190 550.065531904 190 489.979566148 c 0
 190 451.460770944 226.882813302 429.053538438 266 421 c 2
 356 403 l 2
 529.787372766 369.090268729 596 312.521760887 596 212.707959071 c 0
EndSplineSet
EndChar

StartChar: T
Encoding: 84 84 34
Width: 617
GlyphClass: 2
Flags: W
HStem: 0 21G<230 387> 529 139<15 230 387 602>
VStem: 230 157<0 529>
AnchorPoint: "Anchor-1" 309 0 basechar 0
AnchorPoint: "Anchor-0" 309 668 basechar 0
LayerCount: 2
Fore
SplineSet
230 0 m 1
 230 529 l 1
 15 529 l 1
 15 668 l 1
 602 668 l 1
 602 529 l 1
 387 529 l 1
 387 0 l 1
 230 0 l 1
EndSplineSet
EndChar

StartChar: U
Encoding: 85 85 35
Width: 663
GlyphClass: 2
Flags: W
HStem: -12 129<248.347 413.698> 648 20G<44 202 461 619>
VStem: 44 158<171.856 668> 461 158<165.528 668>
AnchorPoint: "Anchor-2" 440 0 basechar 0
AnchorPoint: "Anchor-1" 332 0 basechar 0
AnchorPoint: "Anchor-0" 332 668 basechar 0
LayerCount: 2
Fore
SplineSet
619 292 m 2
 619 45.6977896561 495.780923255 -12 330.44249957 -12 c 0
 167.546691554 -12 44 44.0055939016 44 292 c 2
 44 668 l 1
 202 668 l 1
 202 279 l 2
 202 154.551887025 241.682963466 117 332.321907077 117 c 0
 418.596846783 117 461 151.022907477 461 279 c 2
 461 668 l 1
 619 668 l 1
 619 292 l 2
EndSplineSet
EndChar

StartChar: V
Encoding: 86 86 36
Width: 656
GlyphClass: 1
Flags: W
HStem: 0 21G<229.234 425.796> 648 20G<10 180.232 474.727 646>
VStem: 10 164<504 668> 481 165<503 668>
DStem2: 174 668 10 668 0.320479 -0.947256<0 514.136> 327 177 419 0 0.32175 0.946825<0 514.44>
LayerCount: 2
Fore
SplineSet
236 0 m 1
 10 668 l 1
 174 668 l 1
 327 177 l 1
 481 668 l 1
 646 668 l 1
 419 0 l 1
 236 0 l 1
EndSplineSet
EndChar

StartChar: W
Encoding: 87 87 37
Width: 883
GlyphClass: 1
Flags: W
HStem: 0 21G<166.18 344.298 538.66 716.82> 648 20G<10 172.017 354.767 527.276 710.983 873>
VStem: 10 158<510 668> 715 158<510 668>
DStem2: 261 205 340 0 0.210097 0.97768<0 296.903> 523 668 441 470 0.212084 -0.977251<176.105 473.464>
AnchorPoint: "Anchor-0" 441 668 basechar 0
LayerCount: 2
Fore
SplineSet
171 0 m 1
 10 668 l 1
 168 668 l 1
 261 205 l 1
 359 668 l 1
 523 668 l 1
 622 205 l 1
 715 668 l 1
 873 668 l 1
 712 0 l 1
 543 0 l 1
 441 470 l 1
 340 0 l 1
 171 0 l 1
EndSplineSet
EndChar

StartChar: X
Encoding: 88 88 38
Width: 699
GlyphClass: 1
Flags: W
HStem: 0 21G<10 214.123 484.782 689> 648 20G<24 227.167 471.729 675>
VStem: 10 190<0 190> 24 189<479 668> 486 189<479 668> 499 190<0 190>
DStem2: 10 0 200 0 0.580315 0.814392<110.26 368.564 584.377 820.244> 213 668 24 668 0.580315 -0.814392<0 235.286 451.1 709.984>
LayerCount: 2
Fore
SplineSet
10 0 m 1xe4
 255 343 l 1
 24 668 l 1
 213 668 l 1
 349 476 l 1
 486 668 l 1
 675 668 l 1xd8
 444 343 l 1
 689 0 l 1
 499 0 l 1
 349 211 l 1
 200 0 l 1
 10 0 l 1xe4
EndSplineSet
EndChar

StartChar: Y
Encoding: 89 89 39
Width: 687
GlyphClass: 2
Flags: W
HStem: 0 21G<265 422> 648 20G<10 205.595 480.405 677>
VStem: 10 184<484 668> 265 157<0 260> 492 185<483 668>
DStem2: 194 668 10 668 0.529999 -0.847998<0 296.905> 343 411 422 260 0.529999 0.847998<0 296.905>
AnchorPoint: "Anchor-1" 344 0 basechar 0
AnchorPoint: "Anchor-0" 344 668 basechar 0
LayerCount: 2
Fore
SplineSet
265 0 m 1
 265 260 l 1
 10 668 l 1
 194 668 l 1
 343 411 l 1
 492 668 l 1
 677 668 l 1
 422 260 l 1
 422 0 l 1
 265 0 l 1
EndSplineSet
EndChar

StartChar: Z
Encoding: 90 90 40
Width: 621
GlyphClass: 2
Flags: W
HStem: 0 139<240 589> 529 139<47 369>
DStem2: 32 121 240 139 0.636833 0.771002<146.339 529.181>
AnchorPoint: "Anchor-1" 311 0 basechar 0
AnchorPoint: "Anchor-0" 311 668 basechar 0
LayerCount: 2
Fore
SplineSet
32 0 m 1
 32 121 l 1
 369 529 l 1
 47 529 l 1
 47 668 l 1
 574 668 l 1
 574 547 l 1
 240 139 l 1
 589 139 l 1
 589 0 l 1
 32 0 l 1
EndSplineSet
EndChar

StartChar: a
Encoding: 97 97 41
Width: 553
GlyphClass: 2
Flags: W
HStem: -12 104<195.999 303.382> 0 21G<373 520> 220 90<236.036 353> 407 103<207.539 334.417>
VStem: 24 157<106.603 185.956> 356 147<125.194 220 308.98 386.048>
AnchorPoint: "Anchor-2" 520 0 basechar 0
AnchorPoint: "Anchor-1" 277 0 basechar 0
AnchorPoint: "Anchor-0" 285 496 basechar 0
LayerCount: 2
Fore
SplineSet
181 152.726375119 m 0xbc
 181 110.759880006 213.517822857 92 254.341263199 92 c 0
 281 92 306 100 322.846584384 113.477267507 c 0
 346 132 356 162.666666667 356 208 c 2
 356 220 l 1
 189.505923714 205.247360329 181 174.189982295 181 152.726375119 c 0xbc
361 60 m 1
 348.879904752 43.1184387618 309.307692308 -12 206.583166957 -12 c 0xbc
 109.927484692 -12 24 36.7981550514 24 137.87392342 c 0
 24 209.534187305 67.1911534508 289.159771606 353 310 c 1
 353 386.840790556 328.856148923 407 276.615422795 407 c 0
 248.203618625 407 198.143244291 401.037166091 184 348 c 1
 56 394 l 1
 70.1173743613 422.234748723 126.578228385 510 290.229473159 510 c 0
 487.808494648 510 503 382.071992697 503 303 c 2
 503 194 l 2
 503 185.960909603 503.335309991 73.3246360396 520 0 c 1
 379 0 l 1x7c
 361 60 l 1
EndSplineSet
Substitution2: "Single Substitution lookup 12 subtable" ordfeminine
Substitution2: "'aalt' Access All Alternates lookup 0 subtable" ordfeminine
EndChar

StartChar: b
Encoding: 98 98 42
Width: 596
GlyphClass: 1
Flags: W
HStem: -12 118<265.169 365.064> 0 21G<50 188.672> 392 118<267.285 417.602> 648 20G<50 202>
VStem: 50 152<428 668> 50 145<154.159 342.195> 414 158<159.211 340.131>
AnchorPoint: "Anchor-1" 353 -12 basechar 0
AnchorPoint: "Anchor-0" 355 496 basechar 0
LayerCount: 2
Fore
SplineSet
302.086319789 392 m 0xb6
 273.669569673 392 195 379.051280613 195 246.75887591 c 0
 195 197.666666667 205.833333333 161 230.310894347 136.145861125 c 0
 249.166666667 117 275 106 301.305706678 106 c 0
 306.822004391 106 414 106.483713415 414 249.256744843 c 0
 414 365.970924204 342.375680162 392 302.086319789 392 c 0xb6
572 251.903595058 m 0
 572 84.8504706289 478.285521701 -12 359.728519656 -12 c 0
 339.551913597 -12 246.601910835 -9.19493100913 202 67 c 1xba
 183 0 l 1
 50 0 l 1x76
 50 668 l 1
 202 668 l 1
 202 428 l 1x7a
 246.109157209 503.353143565 334.11072727 510 364.057139576 510 c 0
 470.867267605 510 572 425.44260978 572 251.903595058 c 0
EndSplineSet
EndChar

StartChar: c
Encoding: 99 99 43
Width: 520
GlyphClass: 2
Flags: W
HStem: -12 118<225.345 352.258> 392 118<223.967 350.509>
VStem: 24 155<156.254 344.909>
AnchorPoint: "Anchor-1" 275 0 basechar 0
AnchorPoint: "Anchor-0" 280 496 basechar 0
LayerCount: 2
Fore
SplineSet
500 108 m 1
 476.568289067 65.8229203214 414.794835852 -12 274.689008876 -12 c 0
 96.422617493 -12 24 113.98941936 24 248.4991147 c 0
 24 410.283983391 128.771422509 510 277.795457311 510 c 0
 339.555187003 510 449.018458308 492.873719256 502 380 c 1
 375 334 l 1
 362.894560761 366.281171303 337.426334875 392 289.775888169 392 c 0
 255.729372015 392 179 378.870064554 179 254.46549297 c 0
 179 212.44666898 187.753399512 106 288.236463191 106 c 0
 319.941885733 106 354.489576088 116.597744149 376 153 c 1
 500 108 l 1
EndSplineSet
EndChar

StartChar: d
Encoding: 100 100 44
Width: 596
GlyphClass: 2
Flags: W
HStem: -12 118<234.019 332.044> 0 21G<412.03 563> 392 118<231.47 328.173> 648 20G<394 546>
VStem: 24 158<159.771 340.321> 394 152<428 668> 401 145<154.121 343.173>
AnchorPoint: "Anchor-1" 243 -12 basechar 0
AnchorPoint: "Anchor-0" 240 496 basechar 0
LayerCount: 2
Fore
SplineSet
182 251.304490737 m 0xba
 182 142.890709956 245.910783519 106 294.694598458 106 c 0
 321.333333333 106 346.833333333 117 365.569514888 136.024430502 c 0
 390.166666667 161 401 197.666666667 401 248.666666667 c 0
 401 299.666666667 390.166666667 336.166666667 365.719131515 361.36643367 c 0
 346.833333333 380.833333333 321.333333333 392 294.405775507 392 c 0
 252.948856683 392 182 365.531845548 182 251.304490737 c 0xba
398 67 m 1
 375.854676298 36.2822929292 327.591715476 -12 240.733087633 -12 c 0
 117.715458596 -12 24 84.8493394389 24 251.902803907 c 0
 24 425.435820735 125.126387904 510 233.285534957 510 c 0
 261.851722605 510 349.452962685 504.101188747 394 428 c 1
 394 668 l 1
 546 668 l 1xbc
 546 194 l 2
 546 156.078710167 548.115513792 81.8646741453 563 0 c 1
 418 0 l 1x7a
 398 67 l 1
EndSplineSet
EndChar

StartChar: e
Encoding: 101 101 45
Width: 566
GlyphClass: 2
Flags: W
HStem: -12 118<221.847 373.244> 210 90<177 403> 397 113<221.795 364.45>
VStem: 24 153<152.854 210 300 353.034>
AnchorPoint: "Anchor-2" 404 10 basechar 0
AnchorPoint: "Anchor-1" 283 0 basechar 0
AnchorPoint: "Anchor-0" 284 496 basechar 0
LayerCount: 2
Fore
SplineSet
403 300 m 1
 401.247186639 384.13504133 325.17206737 397 292.026073195 397 c 0
 264.883922191 397 189.12969555 388.373496147 177 300 c 1
 403 300 l 1
513 99 m 1
 490.457633867 66.0534648833 423.586178099 -12 288.691478206 -12 c 0
 143.182992731 -12 24 78.8194891865 24 244.333184309 c 0
 24 418.442185287 155.883014288 510 293.224133032 510 c 0
 451.594470039 510 554.128271458 388.257577656 544 210 c 1
 177 210 l 1
 184.387079273 113.967969453 272.488160773 106 296.62454196 106 c 0
 313.35626916 106 362.975371391 109.828995875 392 143 c 1
 513 99 l 1
EndSplineSet
EndChar

StartChar: f
Encoding: 102 102 46
Width: 367
GlyphClass: 1
Flags: W
HStem: 0 21G<87 239> 380 116<5 87 239 347> 608 120<246.787 347>
VStem: 87 152<0 380 496 602.093>
AnchorPoint: "Anchor-0" 80 668 basechar 0
LayerCount: 2
Fore
SplineSet
305 608 m 2
 249.843052008 608 239 599.109491972 239 563 c 2
 239 496 l 1
 347 496 l 1
 347 380 l 1
 239 380 l 1
 239 0 l 1
 87 0 l 1
 87 380 l 1
 5 380 l 1
 5 496 l 1
 87 496 l 1
 87 577 l 2
 87 689.818158949 137.940063657 728 278 728 c 2
 347 728 l 1
 347 608 l 1
 305 608 l 2
EndSplineSet
EndChar

StartChar: g
Encoding: 103 103 47
Width: 597
GlyphClass: 2
Flags: W
HStem: -203 116<219.403 362.349> 18 118<226.616 326.899> 392 119<225.249 324.571> 476 20G<409.118 546>
VStem: 24 158<182.855 346.431> 395 151<-57.1152 96 169.358 358.332>
AnchorPoint: "Anchor-1" 299 -251 basechar 0
AnchorPoint: "Anchor-0" 297 496 basechar 0
LayerCount: 2
Fore
SplineSet
293.474755977 392 m 0xec
 266.420875371 392 182 383.198067264 182 265.251449965 c 0
 182 223 192.833333333 190.166666667 216.568224943 166.431775057 c 0
 236.166666667 146.833333333 262 136 295.312591085 136 c 0
 345.795158923 136 401 160.878726952 401 265.375705051 c 0
 401 311.666666667 390.166666667 345.333333333 364.981847632 367.031023579 c 0
 346.833333333 382.666666667 321.333333333 392 293.474755977 392 c 0xec
546 37 m 2
 546 -84.7200928446 494.22897837 -203 301.333784787 -203 c 0
 225.787192595 -203 124.038260957 -184.85746709 73 -85 c 1
 197 -40 l 1
 206.856018232 -59.0080351621 231.185087162 -87 290.976839591 -87 c 0
 334.724246315 -87 395 -72.0150448638 395 7 c 2
 395 96 l 1
 373.585088518 69.2313606473 321.672810981 18 241.133904447 18 c 0
 141.476997826 18 24 96.4402984391 24 272.593155604 c 0
 24 466.895634741 166.932220167 511 235.270301183 511 c 0xec
 271.320344037 511 346.698959422 498.726523704 395 428 c 1
 415 496 l 1
 546 496 l 1xdc
 546 37 l 2
EndSplineSet
EndChar

StartChar: h
Encoding: 104 104 48
Width: 572
GlyphClass: 2
Flags: W
HStem: 0 21G<50 202 370 522> 392 118<271.011 402.797> 648 20G<50 202>
VStem: 50 152<0 355.167 430 668> 370 152<0 371.55>
AnchorPoint: "Anchor-1" 286 0 basechar 0
AnchorPoint: "Anchor-0" 126 668 basechar 0
LayerCount: 2
Fore
SplineSet
296.207303773 392 m 0
 251.201621611 392 202 373.018159015 202 255 c 2
 202 0 l 1
 50 0 l 1
 50 668 l 1
 202 668 l 1
 202 430 l 1
 208.441629947 440.609743443 254.415786099 510 370.98863172 510 c 0
 434.606316935 510 522 489.333857345 522 302 c 2
 522 0 l 1
 370 0 l 1
 370 264 l 2
 370 363.498645927 351.355451473 392 296.207303773 392 c 0
EndSplineSet
EndChar

StartChar: i
Encoding: 105 105 49
Width: 315
GlyphClass: 1
Flags: W
HStem: 0 21G<118 271> 380 116<24 118> 578 180<136.703 253.506>
VStem: 105 180<609.703 726.506> 118 153<0 380>
AnchorPoint: "Anchor-2" 271 0 basechar 0
LayerCount: 2
Fore
SplineSet
118 0 m 1xe8
 118 380 l 1
 24 380 l 1
 24 496 l 1
 271 496 l 1
 271 0 l 1
 118 0 l 1xe8
285 668.870537568 m 0xf0
 285 619.422774819 247.362728092 578 195.867894464 578 c 0
 145.163127462 578 105 618.161456263 105 668.867622583 c 0
 105 720.362944335 146.422997475 758 195.870009811 758 c 0
 246.12290145 758 285 719.126142071 285 668.870537568 c 0xf0
EndSplineSet
Substitution2: "Single Substitution lookup 4 subtable" dotlessi
Substitution2: "Single Substitution lookup 3 subtable" dotlessi
EndChar

StartChar: j
Encoding: 106 106 50
Width: 259
GlyphClass: 1
Flags: W
HStem: -161 120<-70 49.2017> 476 20G<55 207> 578 180<73.5605 190.44>
VStem: 42 180<609.19 726.506> 55 152<-36.1516 496>
LayerCount: 2
Fore
SplineSet
207 -24 m 2xe8
 207 -112.271533604 162.111097926 -161 17 -161 c 2
 -70 -161 l 1
 -70 -41 l 1
 -11 -41 l 2
 43.9778091132 -41 55 -32.5547989318 55 -2 c 2
 55 496 l 1
 207 496 l 1
 207 -24 l 2xe8
222 668.867894464 m 0xf0
 222 618.163127462 181.838543737 578 132.000317148 578 c 0
 82.1631274621 578 42 618.161456263 42 668.867622583 c 0
 42 720.362944335 83.4229974753 758 132.000041554 758 c 0
 180.577225181 758 222 720.362728092 222 668.867894464 c 0xf0
EndSplineSet
EndChar

StartChar: k
Encoding: 107 107 51
Width: 567
GlyphClass: 2
Flags: W
HStem: 0 21G<50 202 368.667 563> 476 20G<350.34 548> 648 20G<50 202>
VStem: 50 152<0 125 308 668> 368 180<316 496> 383 180<0 180>
DStem2: 354 289 254 180 0.586002 -0.810309<29.7235 251.173>
AnchorPoint: "Anchor-1" 284 0 basechar 0
AnchorPoint: "Anchor-0" 284 796 basechar 0
LayerCount: 2
Fore
SplineSet
50 0 m 1xf4
 50 668 l 1
 202 668 l 1
 202 308 l 1
 368 496 l 1
 548 496 l 1xf8
 354 289 l 1
 563 0 l 1
 383 0 l 1
 254 180 l 1
 202 125 l 1
 202 0 l 1
 50 0 l 1xf4
EndSplineSet
EndChar

StartChar: l
Encoding: 108 108 52
Width: 314
GlyphClass: 2
Flags: W
HStem: 0 124<208.167 311> 648 20G<50 202>
VStem: 50 152<134.76 668>
AnchorPoint: "Anchor-1" 167 0 basechar 0
AnchorPoint: "Anchor-0" 129 680 basechar 0
LayerCount: 2
Fore
SplineSet
202 180 m 2
 202 137.080628962 214.34001889 124 268 124 c 2
 311 124 l 1
 311 0 l 1
 214 0 l 2
 88.1889720273 0 50 26.8722180242 50 140 c 2
 50 668 l 1
 202 668 l 1
 202 180 l 2
EndSplineSet
EndChar

StartChar: m
Encoding: 109 109 53
Width: 886
GlyphClass: 2
Flags: W
HStem: 0 21G<50 202 366 519 684 836> 392 118<267.848 381.925 573.786 713.121> 476 20G<50 188.758>
VStem: 50 152<0 357.096> 366 153<0 358.704> 684 152<0 371.72>
AnchorPoint: "Anchor-1" 443 0 basechar 0
AnchorPoint: "Anchor-0" 451 496 basechar 0
LayerCount: 2
Fore
SplineSet
292.207286294 392 m 0xdc
 258.165005323 392 202 380.950472184 202 259 c 2
 202 0 l 1
 50 0 l 1
 50 496 l 1
 183 496 l 1xbc
 202 430 l 1
 207.691405378 439.374079446 253.827720878 510 361.142396892 510 c 0
 402.707590324 510 468.978460506 499.404889368 499 427 c 1
 520.023107502 456.7223244 571.329148175 510 679.794071524 510 c 0
 746.447587968 510 836 489.880704251 836 302 c 2
 836 0 l 1
 684 0 l 1
 684 264 l 2
 684 360.05304103 667.030654112 392 609.555959197 392 c 0
 562.293193369 392 519 370.396981339 519 262 c 2
 519 0 l 1
 366 0 l 1
 366 264 l 2
 366 356.460979282 353.259233559 392 292.207286294 392 c 0xdc
EndSplineSet
EndChar

StartChar: n
Encoding: 110 110 54
Width: 572
GlyphClass: 2
Flags: W
HStem: 0 21G<50 202 370 522> 392 118<271.011 402.797> 476 20G<50 188.758>
VStem: 50 152<0 355.167> 370 152<0 371.55>
AnchorPoint: "Anchor-1" 286 0 basechar 0
AnchorPoint: "Anchor-0" 305 496 basechar 0
LayerCount: 2
Fore
SplineSet
296.207303773 392 m 0xd8
 251.201621611 392 202 373.018159015 202 255 c 2
 202 0 l 1
 50 0 l 1
 50 496 l 1
 183 496 l 1xb8
 202 430 l 1
 208.441629947 440.609743443 254.415786099 510 370.98863172 510 c 0
 434.606316935 510 522 489.333857345 522 302 c 2
 522 0 l 1
 370 0 l 1
 370 264 l 2
 370 363.498645927 351.355451473 392 296.207303773 392 c 0xd8
EndSplineSet
EndChar

StartChar: o
Encoding: 111 111 55
Width: 573
GlyphClass: 2
Flags: W
HStem: -12 118<221.872 350.43> 392 118<222.513 349.444>
VStem: 24 155<154.441 343.806> 394 155<154.095 344.223>
AnchorPoint: "Anchor-2" 516 10 basechar 0
AnchorPoint: "Anchor-1" 287 0 basechar 0
AnchorPoint: "Anchor-0" 287 496 basechar 0
LayerCount: 2
Fore
SplineSet
287.760015835 106 m 0
 333.163298312 106 394 128.959906374 394 251.682415463 c 0
 394 302.666666667 383.5 339.5 359.44913427 363.55086573 c 0
 341.5 381.5 316.333333333 392 286.666666667 392 c 0
 257 392 231.5 381.5 213.435280259 363.435280259 c 0
 189.5 339.5 179 302.666666667 179 250.123996651 c 0
 179 198 189.333333333 161 212.394524317 136.450990244 c 0
 230.666666667 117 256.333333333 106 287.760015835 106 c 0
549 250.781176049 m 0
 549 42.5641688857 390.318571854 -12 285.92876991 -12 c 0
 179.53467744 -12 24 44.6795542491 24 250.797805757 c 0
 24 468.286414219 197.16788895 510 285.903411807 510 c 0
 372.144161534 510 549 470.598972664 549 250.781176049 c 0
EndSplineSet
Substitution2: "Single Substitution lookup 12 subtable" ordmasculine
Substitution2: "'aalt' Access All Alternates lookup 0 subtable" ordmasculine
EndChar

StartChar: p
Encoding: 112 112 56
Width: 596
GlyphClass: 1
Flags: W
HStem: -161 21G<50 202> -12 118<269.498 421.305> 392 118<267.641 418.483> 476 20G<50 187.882>
VStem: 50 152<-161 71> 50 145<154.886 345.247> 414 158<159.098 336.642>
AnchorPoint: "Anchor-0" 348 496 basechar 0
LayerCount: 2
Fore
SplineSet
414 246.197999675 m 0xe6
 414 356.017243315 349.405592539 392 301.229840456 392 c 0
 275 392 249.166666667 381.333333333 230.474602194 362.928839084 c 0
 205.833333333 338.666666667 195 302.333333333 195 251.333333333 c 0
 195 200.333333333 205.833333333 163.5 230.00399971 137.841908 c 0
 249.166666667 117.5 275 106 301.470989134 106 c 0
 335.868361579 106 414 125.418158358 414 246.197999675 c 0xe6
365.14211674 -12 m 0
 325.865517026 -12 243.959618277 -0.681014555988 202 71 c 1
 202 -161 l 1
 50 -161 l 1xea
 50 496 l 1xd6
 182 496 l 1
 202 428 l 1xda
 246.109157209 503.353143565 334.11072727 510 363.730487687 510 c 0
 473.234793173 510 572 419.151950797 572 247.636999006 c 0
 572 78.9734673659 476.491420491 -12 365.14211674 -12 c 0
EndSplineSet
EndChar

StartChar: q
Encoding: 113 113 57
Width: 601
GlyphClass: 1
Flags: W
HStem: -172 138<554.501 672.977> -12 118<230.599 328.419> 392 118<177.886 328.941> 476 20G<408.118 546>
VStem: 24 158<159.019 336.513> 394 152<-27.4339 70> 401 145<158.268 345.321>
LayerCount: 2
Fore
SplineSet
294.836686336 392 m 0xea
 245.729548668 392 182 355.361631555 182 246.299408164 c 0
 182 201.333333333 192.833333333 166 216.334845094 139.967556203 c 0
 236.166666667 118 262 106 290.740484804 106 c 0
 317.08314816 106 401 116.081204636 401 253.10188759 c 0
 401 302.333333333 390.166666667 338.666666667 365.406057514 363.046343371 c 0
 346.833333333 381.333333333 321.333333333 392 294.836686336 392 c 0xea
674 -155 m 1
 658.050491609 -159.984221372 614.206144068 -172 562.69645918 -172 c 0
 476.523730251 -172 394 -138.371009907 394 -10 c 2
 394 70 l 1
 378 43.3333333333 355.666666667 23 324.531994085 7.79469478585 c 0
 298.333333333 -5 270.333333333 -12 237.580283477 -12 c 0
 119.494513368 -12 24 78.9891650719 24 247.639465851 c 0
 24 419.159485055 122.771992116 510 233.607927765 510 c 0
 261.851722605 510 349.452962685 504.101188747 394 428 c 1xec
 414 496 l 1
 546 496 l 1xda
 546 38 l 2xdc
 546 -28.4199863397 569.644739426 -34 599.927709864 -34 c 0
 623.333333333 -34 646.666666667 -30.6666666667 674 -24 c 1
 674 -155 l 1
EndSplineSet
EndChar

StartChar: r
Encoding: 114 114 58
Width: 372
GlyphClass: 2
Flags: W
HStem: 0 21G<50 202> 476 20G<50 175.934>
VStem: 50 152<0 324.078>
AnchorPoint: "Anchor-1" 128 0 basechar 0
AnchorPoint: "Anchor-0" 221 496 basechar 0
LayerCount: 2
Fore
SplineSet
322.325590287 361 m 0
 208.712747177 361 202 288.212910706 202 250 c 2
 202 0 l 1
 50 0 l 1
 50 496 l 1
 170 496 l 1
 197 405 l 1
 214.025417178 449.41413177 249.436817484 515.661220132 357 510 c 1
 357 358 l 1
 344.699292576 360.050117904 335.304407098 361 322.325590287 361 c 0
EndSplineSet
EndChar

StartChar: s
Encoding: 115 115 59
Width: 534
GlyphClass: 2
Flags: W
HStem: -12 111<183.366 347.941> 399 111<185.843 338.601>
VStem: 33 145<332.073 389.267> 361 146<114 173.244>
DStem2: 331 302 195 205 0.983353 -0.181706<-155.936 50.5522>
AnchorPoint: "Anchor-1" 267 0 basechar 0
AnchorPoint: "Anchor-0" 268 496 basechar 0
LayerCount: 2
Fore
SplineSet
507 163.570694315 m 0
 507 34.4038713668 381.453337878 -12 262.412623255 -12 c 0
 216.298462711 -12 76.6783314189 -5.0364326886 21 114 c 1
 150 161 l 1
 157.045701792 141.143931313 182.009585995 99 262.44181484 99 c 0
 275.659198475 99 361 100.138061757 361 143.956695623 c 0
 361 173.002483496 323.502235845 183.569403467 284 190 c 2
 195 205 l 2
 139.37782101 214.270363165 33 245.988799982 33 353.177230509 c 0
 33 470.058642596 159.487079742 510 262.095922437 510 c 0
 322.905258604 510 435.453935585 495.972064303 481 400 c 1
 353 353 l 1
 350.03823833 364.423937871 341.074074074 399 257.334445607 399 c 0
 205.333333333 399 178 385.666666667 178 359.908582208 c 0
 178 337.190302197 199.262599945 326.224981828 239 319 c 2
 331 302 l 2
 476.76982023 276.085365292 507 226.953105586 507 163.570694315 c 0
EndSplineSet
EndChar

StartChar: t
Encoding: 116 116 60
Width: 379
GlyphClass: 2
Flags: W
HStem: 0 124<253.167 355> 380 116<13 95 247 355>
VStem: 95 152<134.76 380 496 620>
AnchorPoint: "Anchor-1" 239 0 basechar 0
AnchorPoint: "Anchor-0" 170 620 basechar 0
LayerCount: 2
Fore
SplineSet
247 180 m 2
 247 136.881565316 259.014532712 124 311 124 c 2
 355 124 l 1
 355 0 l 1
 259 0 l 2
 133.188972027 0 95 26.8722180242 95 140 c 2
 95 380 l 1
 13 380 l 1
 13 496 l 1
 95 496 l 1
 95 620 l 1
 247 620 l 1
 247 496 l 1
 355 496 l 1
 355 380 l 1
 247 380 l 1
 247 180 l 2
EndSplineSet
EndChar

StartChar: u
Encoding: 117 117 61
Width: 570
GlyphClass: 2
Flags: W
HStem: -12 118<226.429 309.126> 0 21G<381 519> 476 20G<50 202 366 519>
VStem: 50 152<128.729 496> 366 153<133.964 496>
AnchorPoint: "Anchor-2" 519 0 basechar 0
AnchorPoint: "Anchor-1" 285 0 basechar 0
AnchorPoint: "Anchor-0" 285 496 basechar 0
LayerCount: 2
Fore
SplineSet
366 70 m 1x78
 318.096768096 -10.5645263847 254.828985926 -12 233.695847864 -12 c 0
 117.078922334 -12 50 31.7109664558 50 198 c 2
 50 496 l 1
 202 496 l 1
 202 219 l 2
 202 162.696164659 209.446179164 106 281.137007243 106 c 0xb8
 342.776753351 106 366 147.912944263 366 235 c 2
 366 496 l 1
 519 496 l 1
 519 0 l 1
 387 0 l 1
 366 70 l 1x78
EndSplineSet
EndChar

StartChar: v
Encoding: 118 118 62
Width: 526
GlyphClass: 1
Flags: W
HStem: 0 158<177 348> 476 20G<0 163.272 362.728 526>
VStem: 0 157<339 496> 369 157<339 496>
LayerCount: 2
Fore
SplineSet
177 0 m 1
 0 496 l 1
 157 496 l 1
 263 158 l 1
 369 496 l 1
 526 496 l 1
 348 0 l 1
 177 0 l 1
EndSplineSet
EndChar

StartChar: w
Encoding: 119 119 63
Width: 723
GlyphClass: 1
Flags: W
HStem: 0 21G<119 293.989 428.955 604> 476 20G<0 154.464 285.19 436.81 567.536 723>
VStem: 0 150<346 496> 572 151<345 496>
DStem2: 150 496 0 496 0.242536 -0.970143<0 344.158> 225 160 290 0 0.195586 0.980686<0 218.814> 433 496 361 356 0.198234 -0.980155<122.949 342.019> 497 160 599 0 0.242536 0.970143<0 344.158>
LayerCount: 2
Fore
SplineSet
124 0 m 1
 0 496 l 1
 150 496 l 1
 225 160 l 1
 289 496 l 1
 433 496 l 1
 497 160 l 1
 572 496 l 1
 723 496 l 1
 599 0 l 1
 433 0 l 1
 361 356 l 1
 290 0 l 1
 124 0 l 1
EndSplineSet
EndChar

StartChar: x
Encoding: 120 120 64
Width: 533
GlyphClass: 1
Flags: W
HStem: 0 21G<0 180.126 353.014 533> 476 20G<15 195.215 337.95 518>
VStem: 0 166<0 166> 367 166<0 166>
DStem2: 0 0 166 0 0.578747 0.815507<96.072 271.143 460.341 608.21> 181 496 15 496 0.578747 -0.815507<0 148.449 337.646 512.138>
LayerCount: 2
Fore
SplineSet
0 0 m 1
 184 259 l 1
 15 496 l 1
 181 496 l 1
 267 375 l 1
 352 496 l 1
 518 496 l 1
 349 259 l 1
 533 0 l 1
 367 0 l 1
 267 143 l 1
 166 0 l 1
 0 0 l 1
EndSplineSet
EndChar

StartChar: y
Encoding: 121 121 65
Width: 518
GlyphClass: 2
Flags: W
HStem: -161 110<65 171.434> 476 20G<0 169.258 348.871 518>
DStem2: 190 3 328 0 0.357717 0.93383<-62.1133 0 195.931 384.733>
AnchorPoint: "Anchor-1" 259 0 basechar 0
AnchorPoint: "Anchor-0" 260 496 basechar 0
LayerCount: 2
Fore
SplineSet
65 -161 m 1
 65 -51 l 1
 95 -51 l 2
 160.347273861 -51 174.116137907 -46.6370690408 190 3 c 1
 0 496 l 1
 163 496 l 1
 260 186 l 1
 355 496 l 1
 518 496 l 1
 328 0 l 2
 278.807770539 -129.129602334 239.142672325 -161 114 -161 c 2
 65 -161 l 1
EndSplineSet
EndChar

StartChar: z
Encoding: 122 122 66
Width: 516
GlyphClass: 2
Flags: W
HStem: 0 121<226 496> 375 121<44 287>
DStem2: 30 121 226 121 0.711246 0.702943<139.404 361.338>
AnchorPoint: "Anchor-1" 258 0 basechar 0
AnchorPoint: "Anchor-0" 268 496 basechar 0
LayerCount: 2
Fore
SplineSet
30 0 m 1
 30 121 l 1
 287 375 l 1
 44 375 l 1
 44 496 l 1
 482 496 l 1
 482 375 l 1
 226 121 l 1
 496 121 l 1
 496 0 l 1
 30 0 l 1
EndSplineSet
EndChar

StartChar: circumflex
Encoding: 258 710 67
Width: 467
GlyphClass: 1
Flags: W
HStem: 635 91<187.51 278.51>
LayerCount: 2
Fore
SplineSet
37 574 m 1
 184 706 l 2
 198.666666667 719.333333333 215.333333333 726 233.010368203 726 c 0
 243.10373238 726 264.192789709 723.826489262 284 706 c 2
 430 574 l 1
 302 574 l 1
 234 635 l 1
 166 574 l 1
 37 574 l 1
EndSplineSet
EndChar

StartChar: caron
Encoding: 259 711 68
Width: 467
GlyphClass: 1
Flags: W
HStem: 568 91<188.5 279.5>
LayerCount: 2
Fore
SplineSet
233.666666667 568 m 0
 214.666666667 568 198 574.333333333 184 587 c 2
 37 720 l 1
 166 720 l 1
 234 659 l 1
 302 720 l 1
 430 720 l 1
 284 587 l 2
 269.333333333 574.333333333 252.666666667 568 233.666666667 568 c 0
EndSplineSet
EndChar

StartChar: breve
Encoding: 260 728 69
Width: 373
GlyphClass: 1
Flags: W
HStem: 569 77<154.257 247.123>
VStem: 57 85<658.843 689> 259 85<659.154 689>
LayerCount: 2
Fore
SplineSet
344 689 m 1
 332.380781356 623.157761016 275.253882289 569 200.795044068 569 c 0
 126.979441253 569 68.7836318739 622.226086048 57 689 c 1
 142 689 l 1
 145.90349537 673.386018519 164.907316005 646 200.840909127 646 c 0
 237.819314879 646 255.500433628 675.001734513 259 689 c 1
 344 689 l 1
EndSplineSet
EndChar

StartChar: dotaccent
Encoding: 261 729 70
Width: 201
GlyphClass: 1
Flags: W
HStem: 578 141<50.8574 150.653>
VStem: 30 141<598.347 698.143>
LayerCount: 2
Fore
SplineSet
171 647.92031401 m 0
 171 608.950736421 140.048669951 578 101.079391493 578 c 0
 62.4050284134 578 30 608.484045263 30 647.924496132 c 0
 30 687.073399182 61.927716604 719 101.075894336 719 c 0
 140.516888295 719 171 686.594010882 171 647.92031401 c 0
EndSplineSet
EndChar

StartChar: ring
Encoding: 262 730 71
Width: 295
GlyphClass: 1
Flags: W
HStem: 535 86<108.034 185.901> 715 85<108.446 187.013>
VStem: 15 85<629.38 706.648> 194 86<629.209 708.395>
LayerCount: 2
Fore
SplineSet
100 668.865817999 m 0
 100 642.388899038 121.389916739 621 147.865936748 621 c 0
 175.102019455 621 194 643.634573622 194 668.870631061 c 0
 194 694.898218397 173.897956521 715 147.870671311 715 c 0
 122.635032169 715 100 696.102453394 100 668.865817999 c 0
280 668.838269577 m 0
 280 598.068546448 223.936868739 535 148.013157455 535 c 0
 73.0567481096 535 15 596.471740858 15 668.804578873 c 0
 15 744.064451508 77.8504879847 800 148.008630935 800 c 0
 219.069094182 800 280 742.616398771 280 668.838269577 c 0
EndSplineSet
EndChar

StartChar: ogonek
Encoding: 263 731 72
Width: 295
GlyphClass: 1
Flags: W
HStem: -174 76<165.393 257.287>
VStem: 37 126<-94.5449 -39.3115>
LayerCount: 2
Fore
SplineSet
258 -164 m 1
 242.512190454 -169.631930744 203.430717741 -174 172.628093682 -174 c 0
 40.985650121 -174 37 -94.2178097138 37 -80.721020722 c 0
 37 -31.9568994895 89.0282310045 -8.68089382619 117 0 c 1
 258 0 l 1
 176.590736509 -40.7046317456 163 -49.6896784026 163 -67.8252382474 c 0
 163 -93.8219409962 190.926569861 -98 208.985917902 -98 c 0
 231.623357382 -98 243.389120897 -91.4351465171 258 -89 c 1
 258 -164 l 1
EndSplineSet
EndChar

StartChar: quoteleft
Encoding: 264 8216 73
Width: 277
GlyphClass: 1
Flags: W
HStem: 339 329<124 158.819>
VStem: 41 195<376.353 496.5>
DStem2: 48 472 161 531 0.361528 0.932361<95.862 210.219>
LayerCount: 2
Fore
SplineSet
236 437.836192592 m 0
 236 383.576620472 193.335524696 339 139.07599696 339 c 0
 85.1036977235 339 41 383.105927582 41 435.756988858 c 0
 41 444.974449048 42.3517092472 456.937891326 48 472 c 2
 124 668 l 1
 214 668 l 1
 161 531 l 1
 200.80664193 522.292297078 236 487.116512031 236 437.836192592 c 0
EndSplineSet
EndChar

StartChar: quoteright
Encoding: 265 8217 74
Width: 277
GlyphClass: 1
Flags: W
HStem: 351 329<117.369 153>
VStem: 41 195<522.5 643.139>
DStem2: 63 351 153 351 0.365652 0.930751<32.9087 145.962>
LayerCount: 2
Fore
SplineSet
139.083386494 680 m 0
 192.14483005 680 236 637.910478683 236 581.950410726 c 0
 236 570 234 558.333333333 230 547 c 2
 153 351 l 1
 63 351 l 1
 116 487 l 1
 114.825766833 487.293558292 41 506.312415685 41 580.360671119 c 0
 41 638.37483354 86.3154563163 680 139.083386494 680 c 0
EndSplineSet
EndChar

StartChar: quotesinglbase
Encoding: 266 8218 75
Width: 277
GlyphClass: 1
Flags: W
HStem: -146 330<117.369 153>
VStem: 41 195<26.375 147.139>
DStem2: 63 -146 153 -146 0.364043 0.931382<32.7639 146.894>
LayerCount: 2
Fore
SplineSet
139.083386494 184 m 0
 192.14483005 184 236 141.910478683 236 85.9504107256 c 0
 236 74 234 62.3333333333 230 51 c 2
 153 -146 l 1
 63 -146 l 1
 116 -9 l 1
 114.825766833 -8.70644170836 41 10.3124156851 41 84.3606711186 c 0
 41 142.37483354 86.3154563163 184 139.083386494 184 c 0
EndSplineSet
EndChar

StartChar: quotedblleft
Encoding: 267 8220 76
Width: 498
GlyphClass: 1
Flags: W
HStem: 339 329<124 158.819 345 381.075>
VStem: 41 195<377.309 497.625> 263 194<375.609 496.5>
DStem2: 51 480 161 531 0.361968 0.932191<87.3582 201.675> 270 472 382 531 0.357382 0.933958<95.1303 209.859>
LayerCount: 2
Fore
SplineSet
457 437.671282058 m 0
 457 384.867042308 416.862576174 339 360.867339454 339 c 0
 305.667005775 339 263 383.574037285 263 435.697071183 c 0
 263 444.974449048 264.351709247 456.937891326 270 472 c 2
 345 668 l 1
 436 668 l 1
 382 531 l 1
 421.80664193 522.292297078 457 487.116512031 457 437.671282058 c 0
236 437.836192592 m 0
 236 383.576620472 193.335524696 339 139.07599696 339 c 0
 85.1036977235 339 41 383.105927582 41 440.701989779 c 0
 41 442.535953113 41.0447167999 450.1341504 51 480 c 2
 124 668 l 1
 214 668 l 1
 161 531 l 1
 200.80664193 522.292297078 236 487.116512031 236 437.836192592 c 0
EndSplineSet
EndChar

StartChar: quotedblright
Encoding: 268 8221 77
Width: 498
GlyphClass: 1
Flags: W
HStem: 351 329<117.369 153 338.369 374>
VStem: 41 195<522.5 643.139> 262 195<522.5 643.139>
DStem2: 63 351 153 351 0.365652 0.930751<32.9087 145.962> 284 351 374 351 0.365652 0.930751<32.9087 145.962>
LayerCount: 2
Fore
SplineSet
360.083386494 680 m 0
 413.14483005 680 457 637.910478683 457 581.950410726 c 0
 457 570 455 558.333333333 451 547 c 2
 374 351 l 1
 284 351 l 1
 337 487 l 1
 335.825766833 487.293558292 262 506.312415685 262 580.360671119 c 0
 262 638.37483354 307.315456316 680 360.083386494 680 c 0
139.083386494 680 m 0
 192.14483005 680 236 637.910478683 236 581.950410726 c 0
 236 570 234 558.333333333 230 547 c 2
 153 351 l 1
 63 351 l 1
 116 487 l 1
 114.825766833 487.293558292 41 506.312415685 41 580.360671119 c 0
 41 638.37483354 86.3154563163 680 139.083386494 680 c 0
EndSplineSet
EndChar

StartChar: quotedblbase
Encoding: 269 8222 78
Width: 498
GlyphClass: 1
Flags: W
HStem: -146 330<117.369 153 338.779 374>
VStem: 41 195<26.375 147.139> 263 194<26.375 146.725>
DStem2: 63 -146 153 -146 0.364043 0.931382<32.7639 146.894> 285 -146 374 -146 0.364043 0.931382<32.3998 146.894>
LayerCount: 2
Fore
SplineSet
360.869831012 184 m 0
 415.694825514 184 457 140.637087912 457 86.0185673069 c 0
 457 74 455 62.3333333333 451 51 c 2
 374 -146 l 1
 285 -146 l 1
 338 -9 l 1
 336.825766833 -8.70644170836 263 10.3124156851 263 84.630993777 c 0
 263 141.912285476 306.856986641 184 360.869831012 184 c 0
139.083386494 184 m 0
 192.14483005 184 236 141.910478683 236 85.9504107256 c 0
 236 74 234 62.3333333333 230 51 c 2
 153 -146 l 1
 63 -146 l 1
 116 -9 l 1
 114.825766833 -8.70644170836 41 10.3124156851 41 84.3606711186 c 0
 41 142.37483354 86.3154563163 184 139.083386494 184 c 0
EndSplineSet
EndChar

StartChar: dagger
Encoding: 270 8224 79
Width: 594
GlyphClass: 1
Flags: W
HStem: 0 21G<225 369> 380 116<41 225 369 553> 648 20G<225 369>
VStem: 225 144<0 380 496 668>
LayerCount: 2
Fore
SplineSet
225 0 m 1
 225 380 l 1
 41 380 l 1
 41 496 l 1
 225 496 l 1
 225 668 l 1
 369 668 l 1
 369 496 l 1
 553 496 l 1
 553 380 l 1
 369 380 l 1
 369 0 l 1
 225 0 l 1
EndSplineSet
EndChar

StartChar: daggerdbl
Encoding: 271 8225 80
Width: 594
GlyphClass: 1
Flags: W
HStem: 0 21G<225 369> 173 115<41 225 369 553> 380 116<41 225 369 553> 648 20G<225 369>
VStem: 225 144<0 173 288 380 496 668>
LayerCount: 2
Fore
SplineSet
225 0 m 1
 225 173 l 1
 41 173 l 1
 41 288 l 1
 225 288 l 1
 225 380 l 1
 41 380 l 1
 41 496 l 1
 225 496 l 1
 225 668 l 1
 369 668 l 1
 369 496 l 1
 553 496 l 1
 553 380 l 1
 369 380 l 1
 369 288 l 1
 553 288 l 1
 553 173 l 1
 369 173 l 1
 369 0 l 1
 225 0 l 1
EndSplineSet
EndChar

StartChar: bullet
Encoding: 272 8226 81
Width: 438
GlyphClass: 1
Flags: W
HStem: 88 332<138.402 299.601>
VStem: 53 332<173.272 336.984>
LayerCount: 2
Fore
SplineSet
385 254.929502999 m 0
 385 165.960909681 314.00916374 88 219.001170362 88 c 0
 123.99711584 88 53 165.954445585 53 254.926649959 c 0
 53 345.848707828 127.143062089 420 218.998433796 420 c 0
 310.848707828 420 385 345.856937911 385 254.929502999 c 0
EndSplineSet
EndChar

StartChar: ellipsis
Encoding: 273 8230 82
Width: 803
GlyphClass: 1
Flags: W
HStem: -12 196<79.121 198.722 341.614 462.089 605.289 725.968>
VStem: 41 195<25.96 147.427> 305 194<24.416 147.218> 567 195<25.7608 146.889>
LayerCount: 2
Fore
SplineSet
499 86.8690731415 m 0
 499 33.3170454137 457.376381702 -12 401.719785896 -12 c 0
 346.207140337 -12 305 33.0829325048 305 86.8688371103 c 0
 305 141.415362653 347.380854334 184 401.708282397 184 c 0
 456.183830022 184 499 141.182838615 499 86.8690731415 c 0
236 86.8673650594 m 0
 236 32.5766204719 193.335524696 -12 139.07599696 -12 c 0
 85.1036977235 -12 41 32.1059275816 41 86.8667877025 c 0
 41 142.37483354 86.3154563163 184 139.083386494 184 c 0
 192.14483005 184 236 141.910478683 236 86.8673650594 c 0
762 86.8693194623 m 0
 762 33.8670423077 721.862576174 -12 665.941091434 -12 c 0
 611.103697723 -12 567 32.1059275816 567 86.8667877025 c 0
 567 142.37483354 612.315456316 184 665.951076548 184 c 0
 720.694825514 184 762 140.637087912 762 86.8693194623 c 0
EndSplineSet
EndChar

StartChar: perthousand
Encoding: 274 8240 83
Width: 1406
GlyphClass: 1
Flags: W
HStem: -12 119<702.499 808.327 1130.97 1237.12> 0 21G<192 332.012> 264 118<703.038 810.189 1131.51 1236.65> 286 118<167.225 275.516> 561 119<167.674 275.066> 648 20G<645.018 786>
VStem: 24 119<428.603 535.481> 192 126<0 126> 300 118<428.744 535.343> 559 118<132.091 238.001> 659 127<541 668> 835 118<132.674 237.475> 988 118<131.638 238.464> 1263 119<132.082 238.078>
DStem2: 192 0 318 0 0.573791 0.819001<72.2977 815.054>
LayerCount: 2
Fore
SplineSet
1106 185.212602182 m 0xa21c
 1106 141.580310439 1140.581893 107 1184.21283703 107 c 0
 1227.38816671 107 1263 140.861874266 1263 185.209560171 c 0
 1263 229.108917323 1228.10455612 264 1184.20880285 264 c 0
 1139.86217453 264 1106 228.388468964 1106 185.212602182 c 0xa21c
677 185.207321437 m 0xa25c
 677 140.418166608 714.055777918 107 755.999772376 107 c 0
 797.943061055 107 835 140.417041983 835 185.206910132 c 0
 835 229.55167174 798.675920037 264 756.000217078 264 c 0
 713.325176234 264 677 229.552740663 677 185.207321437 c 0xa25c
1382 186.993040346 m 0
 1382 79.4764562983 1296.85615644 -12 1185.91159476 -12 c 0
 1076.95051082 -12 988 76.2348444982 988 186.959347296 c 0
 988 300.025457526 1080.75255294 382 1185.93957241 382 c 0
 1293.16715477 382 1382 296.814097096 1382 186.993040346 c 0
953 186.993040346 m 0
 953 79.4764562983 867.85615644 -12 756.911594763 -12 c 0
 647.950510824 -12 559 76.2348444982 559 186.959347296 c 0
 559 300.025457526 651.752552937 382 756.939572414 382 c 0
 864.167154766 382 953 296.814097096 953 186.993040346 c 0
143 482.208802849 m 0
 143 437.86217453 178.611531036 404 221.787397818 404 c 0
 265.419689561 404 300 438.581892996 300 482.212837033 c 0
 300 525.388166705 266.138125734 561 221.790439829 561 c 0x1a9c
 177.891082677 561 143 526.10455612 143 482.208802849 c 0
192 0 m 1x473c
 659 668 l 1
 786 668 l 1
 318 0 l 1
 192 0 l 1x473c
418 483.908257061 m 0x1a9c
 418 373.69607044 330.313753961 286 221.001850621 286 c 0
 111.69607044 286 24 373.686246039 24 483.907079457 c 0
 24 596.197610906 115.020460204 680 221.000718438 680 c 0
 326.983286315 680 418 596.19395823 418 483.908257061 c 0x1a9c
EndSplineSet
EndChar

StartChar: guilsinglleft
Encoding: 275 8249 84
Width: 404
GlyphClass: 1
Flags: W
VStem: 189 174<40 214 287 461>
LayerCount: 2
Fore
SplineSet
189 40 m 1
 41 250 l 1
 189 461 l 1
 362 461 l 1
 214 250 l 1
 363 40 l 1
 189 40 l 1
EndSplineSet
EndChar

StartChar: guilsinglright
Encoding: 276 8250 85
Width: 404
GlyphClass: 1
Flags: W
VStem: 41 175<40 215 285 460>
LayerCount: 2
Fore
SplineSet
41 40 m 1
 191 249 l 1
 42 460 l 1
 216 460 l 1
 363 249 l 1
 216 40 l 1
 41 40 l 1
EndSplineSet
EndChar

StartChar: fraction
Encoding: 277 8260 86
Width: 624
GlyphClass: 1
Flags: W
HStem: 0 21G<15 155.982> 648 20G<468.988 609>
VStem: 15 127<0 127> 483 126<542 668>
DStem2: 15 0 142 0 0.573791 0.819001<72.8715 815.627>
LayerCount: 2
Fore
SplineSet
15 0 m 1
 483 668 l 1
 609 668 l 1
 142 0 l 1
 15 0 l 1
EndSplineSet
EndChar

StartChar: ordfeminine
Encoding: 170 170 87
Width: 395
GlyphClass: 1
Flags: W
HStem: 395 72<157.916 233.544> 523 61<159.751 238> 623 68<134.775 236.329>
VStem: 53 104<469.018 518.533> 240 97<475.024 526 588 621.103>
LayerCount: 2
Fore
SplineSet
157 495.720767093 m 0
 157 490.758461344 158.409832784 467 190.518393304 467 c 0
 212.003161679 467 240 477.63746126 240 509 c 2
 240 526 l 1
 203 523 l 2
 189.285742139 521.984129047 157 519.467567594 157 495.720767093 c 0
249 435 m 1
 238.260554169 416.742942087 214.112517345 395 162.129550865 395 c 0
 72.6329644191 395 53 459.447953605 53 497.614412119 c 0
 53 550.060279158 90.0718869349 570.556177016 203 584 c 2
 238 588 l 1
 238 614.48992529 228.266946143 623 201.361547288 623 c 0
 182.476348339 623 163.244413477 618.807262891 159 599 c 1
 72 630 l 1
 86.9761991212 660.950811517 123.725448843 691 205.966367759 691 c 0
 320.720852383 691 337.908242839 632.49457036 337 578 c 2
 337 518 l 2
 337 445.123982246 338.87955767 427.183428057 342 403 c 1
 258 403 l 1
 249 435 l 1
EndSplineSet
EndChar

StartChar: guillemotleft
Encoding: 171 171 88
Width: 669
GlyphClass: 1
Flags: W
VStem: 201 174<40 214 287 461> 440 176<40 216 285 461>
LayerCount: 2
Fore
SplineSet
201 40 m 1
 53 251 l 1
 201 461 l 1
 374 461 l 1
 226 251 l 1
 375 40 l 1
 201 40 l 1
440 40 m 1
 294 251 l 1
 440 461 l 1
 615 461 l 1
 466 251 l 1
 616 40 l 1
 440 40 l 1
EndSplineSet
EndChar

StartChar: logicalnot
Encoding: 172 172 89
Width: 618
GlyphClass: 1
Flags: W
HStem: 295 127<53 437>
VStem: 437 128<56 295>
LayerCount: 2
Fore
SplineSet
437 56 m 1
 437 295 l 1
 53 295 l 1
 53 422 l 1
 565 422 l 1
 565 56 l 1
 437 56 l 1
EndSplineSet
EndChar

StartChar: registered
Encoding: 174 174 90
Width: 798
GlyphClass: 1
Flags: W
HStem: -12 69<294.142 504.198> 300 75<338 370> 453 76<338 453.641> 610 69<293.93 504.413>
VStem: 53 70<228.069 438.308> 241 97<161 300 375 453> 458 101<384.404 426.123> 471 108<161 269> 675 70<228.005 438.365>
DStem2: 472 310 370 300 0.583299 -0.812258<0 120.443>
LayerCount: 2
Fore
SplineSet
458 426.12254902 m 1xfe80
 458 426.12254902 458 453 390 453 c 2
 338 453 l 1
 338 375 l 1
 390 375 l 2
 411.136752137 375 458 375 458 426.12254902 c 1xfe80
559 420.481675374 m 0
 559 369.917420149 538.471793938 327.896252214 472 310 c 1
 579 161 l 1
 471 161 l 1xfd80
 370 300 l 1
 338 300 l 1
 338 161 l 1
 241 161 l 1
 241 529 l 1
 392 529 l 2
 543.878308529 529 559 463.879534125 559 420.481675374 c 0
123 333.569921539 m 0
 123 181.91322534 245.432389039 57 398.870092969 57 c 0
 551.462425479 57 675 180.540587852 675 333.566579885 c 0
 675 487.02095146 550.769797487 610 398.864423229 610 c 0
 246.113312197 610 123 485.6477619 123 333.569921539 c 0
745 332.888868981 m 0
 745 142.10209531 589.626024498 -12 399.537668001 -12 c 0
 210.202155373 -12 53 140.883871515 53 332.891201576 c 0
 53 523.7242623 208.285216121 679 399.543958395 679 c 0
 591.567548008 679 745 522.479877863 745 332.888868981 c 0
EndSplineSet
EndChar

StartChar: macron
Encoding: 175 175 91
Width: 405
GlyphClass: 1
Flags: W
HStem: 570 98<53 352>
VStem: 53 299<570 668>
LayerCount: 2
Fore
SplineSet
53 570 m 1
 53 668 l 1
 352 668 l 1
 352 570 l 1
 53 570 l 1
EndSplineSet
EndChar

StartChar: degree
Encoding: 176 176 92
Width: 404
GlyphClass: 1
Flags: W
HStem: 354 90<150.938 254.709> 590 89<151.256 254.371>
VStem: 40 89<466.554 567.484> 275 89<466.212 567.846>
LayerCount: 2
Fore
SplineSet
129 517.000075981 m 0
 129 476.590603533 161.590203676 444 202.867641058 444 c 0
 244.94748501 444 275 477.869999469 275 516.999657348 c 0
 275 556.12815948 244.949260267 590 202.868027848 590 c 0
 161.590603533 590 129 557.409796324 129 517.000075981 c 0
364 516.890501237 m 0
 364 425.268032414 291.875487476 354 203.164263185 354 c 0
 114.570946774 354 40 425.078710752 40 516.884811505 c 0
 40 609.706263412 116.229537958 679 203.153983973 679 c 0
 290.139297377 679 364 609.609185875 364 516.890501237 c 0
EndSplineSet
EndChar

StartChar: plusminus
Encoding: 177 177 93
Width: 618
GlyphClass: 1
Flags: W
HStem: 0 128<53 565> 283 108<53 245 373 565> 475 20G<245 373>
VStem: 245 128<180 283 391 495>
LayerCount: 2
Fore
SplineSet
53 0 m 1
 53 128 l 1
 565 128 l 1
 565 0 l 1
 53 0 l 1
245 180 m 1
 245 283 l 1
 53 283 l 1
 53 391 l 1
 245 391 l 1
 245 495 l 1
 373 495 l 1
 373 391 l 1
 565 391 l 1
 565 283 l 1
 373 283 l 1
 373 180 l 1
 245 180 l 1
EndSplineSet
EndChar

StartChar: uni00B2
Encoding: 178 178 94
Width: 407
GlyphClass: 1
Flags: W
HStem: 403 87<195 353> 709 76<165.089 246.833>
VStem: 251 102<623.022 704.911>
LayerCount: 2
Fore
SplineSet
354 668.471999171 m 0
 354 628.638144367 340.01042146 587.33576235 195 490 c 1
 353 490 l 1
 353 403 l 1
 53 403 l 1
 53 484 l 1
 207.03846716 589.394740689 251 629.70662126 251 670.333965937 c 0
 251 679.581211567 248.722487669 709 209.754874321 709 c 0
 195.826551941 709 163.261367994 705.241497973 155 666 c 1
 64 699 l 1
 77.1609031143 733.547370675 113.469120424 785 210.954654463 785 c 0
 254.059222754 785 354 774.940559591 354 668.471999171 c 0
EndSplineSet
EndChar

StartChar: uni00B3
Encoding: 179 179 95
Width: 413
GlyphClass: 1
Flags: W
HStem: 395 77<154.211 247.713> 491 20G<88.8485 145.819> 552 84<167 242.725> 675 21G<93.0606 152.603> 709 76<153.487 244.384>
VStem: 247 103<642.888 703.634> 255 105<477.511 543.411>
LayerCount: 2
Fore
SplineSet
360 512.827512082 m 0xfa
 360 430.102988721 276.918541587 395 201.632347481 395 c 0
 157.733469883 395 84.9792769867 406.93494003 53 478 c 1
 144 511 l 1
 147.637203044 501.127591737 162.011360608 472 204.457847489 472 c 0
 219.795401195 472 255 475.803060804 255 512.774784182 c 0xfa
 255 530.833921454 246.60048891 552 182 552 c 2
 167 552 l 1
 167 636 l 1
 182 636 l 2
 225.333333333 636 247 648.666666667 247 673.921838386 c 0
 247 707.089513119 209.630137332 709 201.041952379 709 c 0
 191.719200305 709 158.205430517 706.748719799 147 675 c 1
 58 708 l 1
 70.8564284749 736.737898944 107.028956059 785 199.612522232 785 c 0
 228.563052707 785 350 780.280983821 350 685.878989651 c 0xfc
 350 671.429480873 347.154918769 623.077459385 301 600 c 1
 316.97237563 594.084305322 360 572.360256277 360 512.827512082 c 0xfa
EndSplineSet
EndChar

StartChar: acute
Encoding: 180 180 96
Width: 314
GlyphClass: 1
Flags: W
HStem: 574 153<161.49 194.966>
VStem: 53 208
LayerCount: 2
Fore
SplineSet
204.261988055 727 m 0
 237.268099404 727 261 703.266125781 261 670.561633003 c 0
 261 653.666666667 254.666666667 639.666666667 240.463960256 628.341171882 c 0
 237 625.578947368 237 625.578947368 167 574 c 1
 53 574 l 1
 54.1110518839 575.34913443 162.888948116 707.65086557 166.034545275 711.430075655 c 0
 174 721 187.666666667 727 204.261988055 727 c 0
EndSplineSet
EndChar

StartChar: uni03BC
Encoding: 278 956 97
Width: 570
GlyphClass: 1
Flags: W
HStem: -162 21G<50 202> -12 118<221.334 340.135> 0 21G<374.953 519> 475 20G<50 202 366 519>
VStem: 50 152<-162 18 124.217 495> 366 153<131.685 495>
LayerCount: 2
Fore
SplineSet
368 43 m 1xbc
 357.799553416 24.5116905664 331.063986021 -12 277.63053519 -12 c 0
 249.666666667 -12 224 -2 202 18 c 1
 202 -162 l 1
 50 -162 l 1
 50 495 l 1
 202 495 l 1
 202 230 l 2
 202 134.854650972 218.873771874 106 277.8546167 106 c 0xdc
 344.530426678 106 366 142.874865751 366 230 c 2
 366 495 l 1
 519 495 l 1
 519 0 l 1
 381 0 l 1
 368 43 l 1xbc
EndSplineSet
EndChar

StartChar: paragraph
Encoding: 182 182 98
Width: 515
GlyphClass: 1
Flags: W
HStem: -162 21G<166 261 353 448> 600 67<261 353 448 495>
VStem: 24 237<392.008 563.865> 166 95<-162 302.386> 353 95<-162 600>
LayerCount: 2
Fore
SplineSet
24 477.040775728 m 0xe8
 24 582.736691235 108.262486093 667 213 667 c 2
 495 667 l 1
 495 600 l 1
 448 600 l 1
 448 -162 l 1
 353 -162 l 1
 353 600 l 1
 261 600 l 1
 261 -162 l 1
 166 -162 l 1
 166 295 l 1xd8
 86.3635652571 316.900019554 24 386.110912408 24 477.040775728 c 0xe8
EndSplineSet
EndChar

StartChar: periodcentered
Encoding: 183 183 99
Width: 301
GlyphClass: 1
Flags: W
HStem: 151 194<89.5065 211.029>
VStem: 53 195<188.154 309.256>
LayerCount: 2
Fore
SplineSet
248 248.868470191 m 0
 248 194.128370896 204.871346006 151 151.078942259 151 c 0
 97.5766204719 151 53 193.664475304 53 248.867440342 c 0
 53 304.865767283 98.8703900891 345 151.086302303 345 c 0
 203.596925637 345 248 304.411446625 248 248.868470191 c 0
EndSplineSet
EndChar

StartChar: cedilla
Encoding: 184 184 100
Width: 321
GlyphClass: 1
Flags: W
HStem: -187 50<83.4801 193.085>
VStem: 194 94<-134.185 -86.2264>
LayerCount: 2
Fore
SplineSet
288 -109.872842066 m 0
 288 -182.576268167 185.088343898 -187 158.868817278 -187 c 0
 141.518973382 -187 108.032824553 -185.062997227 73 -174 c 1
 89 -124 l 1
 89.5578530272 -124.278926514 116.589107045 -137 149.556896992 -137 c 0
 168.0214098 -137 194 -133.009569063 194 -110.543554389 c 0
 194 -93.8938059084 179.731482337 -84 157.59941488 -84 c 0
 133.895613123 -84 126.358309377 -95.3489433609 113.854248722 -87.8086891541 c 0
 103.709029866 -81.6908742092 99.5151326656 -68.5985178352 105 -59 c 2
 157 25 l 1
 198 0 l 1
 168 -48 l 1
 177.333333333 -46 188.666666667 -45 198.156623386 -45 c 0
 209.859199765 -45 288 -46.5206683432 288 -109.872842066 c 0
EndSplineSet
EndChar

StartChar: uni00B9
Encoding: 185 185 101
Width: 291
GlyphClass: 1
Flags: W
HStem: 647 87<53 135.849>
VStem: 137 101<403 647> 159 79<748.209 779>
LayerCount: 2
Fore
SplineSet
53 734 m 1xc0
 137.398871597 734 150.548614589 752.800705225 159 779 c 1
 238 779 l 1xa0
 238 403 l 1
 137 403 l 1
 137 647 l 1
 53 647 l 1
 53 734 l 1xc0
EndSplineSet
EndChar

StartChar: ordmasculine
Encoding: 186 186 102
Width: 409
GlyphClass: 1
Flags: W
HStem: 395 77<172.381 247.321> 612 77<173.404 246.922>
VStem: 57 103<483.025 601.818> 258 102<481.541 602.743>
LayerCount: 2
Fore
SplineSet
160 545.700839738 m 0
 160 531.909087692 161.980096123 472 207.238914606 472 c 0
 219.827451999 472 258 476.634862239 258 539.2213951 c 0
 258 557.468790007 254.755176301 612 211.734502494 612 c 0
 201.936656772 612 160 609.171527821 160 545.700839738 c 0
360 542.521107295 m 0
 360 403.429859935 238.553422804 395 207.940008296 395 c 0
 159.935019967 395 57 415.72857999 57 537.089420953 c 0
 57 576.314933883 67.7533371213 689 202.843563904 689 c 0
 242.992157523 689 360 679.046881472 360 542.521107295 c 0
EndSplineSet
EndChar

StartChar: guillemotright
Encoding: 187 187 103
Width: 669
GlyphClass: 1
Flags: W
VStem: 53 175<40 215 286 461> 294 174<40 214 287 461>
LayerCount: 2
Fore
SplineSet
53 40 m 1
 203 251 l 1
 54 461 l 1
 228 461 l 1
 375 251 l 1
 228 40 l 1
 53 40 l 1
294 40 m 1
 442 251 l 1
 294 461 l 1
 468 461 l 1
 616 251 l 1
 468 40 l 1
 294 40 l 1
EndSplineSet
EndChar

StartChar: onequarter
Encoding: 188 188 104
Width: 853
GlyphClass: 1
Flags: W
HStem: 0 21G<110 251.033 641 742> 74 87<563 641 742 800> 535 88<53 136.935> 647 20G<154.634 238 563.967 705>
VStem: 110 127<0 127> 137 101<292 535> 159 79<637.08 667> 578 127<540 667> 641 101<0 74 161 256>
DStem2: 110 0 237 0 0.574368 0.818597<72.9447 814.809> 460 152 563 161 0.630199 0.776433<71.8984 194.815>
LayerCount: 2
Fore
SplineSet
563 161 m 1xf080
 641 161 l 1
 641 256 l 1
 563 161 l 1xf080
641 0 m 1
 641 74 l 1
 460 74 l 1
 460 152 l 1
 641 375 l 1
 742 375 l 1
 742 161 l 1
 800 161 l 1
 800 74 l 1
 742 74 l 1
 742 0 l 1
 641 0 l 1
53 623 m 1
 137.063889956 623 150.268363717 639.931927524 159 667 c 1
 238 667 l 1xf2
 238 292 l 1
 137 292 l 1
 137 535 l 1xf4
 53 535 l 1
 53 623 l 1
110 0 m 1xf9
 578 667 l 1
 705 667 l 1
 237 0 l 1
 110 0 l 1xf9
EndSplineSet
Ligature2: "'frac' Diagonal Fractions lookup 10 subtable" one slash four
EndChar

StartChar: onehalf
Encoding: 189 189 105
Width: 856
GlyphClass: 1
Flags: W
HStem: 0 87<644 802> 306 75<613.232 695.83> 535 88<53 136.935> 647 20G<154.634 238 563.967 705>
VStem: 110 127<0 127> 137 101<292 535> 159 79<637.08 667> 578 127<540 667> 700 102<219.192 300.86>
DStem2: 110 0 237 0 0.574368 0.818597<72.9447 814.809>
LayerCount: 2
Fore
SplineSet
658.897156058 381 m 0xf080
 697.710189669 381 803 372.420811689 803 273.895912797 c 0
 803 237.333333333 788.5 205.166666667 752.212028557 170.547107704 c 0
 730.5 149.833333333 692 119.666666667 644 87 c 1
 802 87 l 1
 802 0 l 1
 502 0 l 1
 502 81 l 1
 552.999751944 117.7198214 576.659278596 130.452561403 616.195077042 161.339903939 c 0
 672.853355872 205.604184275 700 238.624110582 700 266.839632706 c 0
 700 277.72011206 695.963211224 306 658.157463102 306 c 0
 642.207440871 306 612.991139913 300.966331669 603 263 c 1
 512 296 l 1
 533.067915174 349.986532634 585.101695077 381 658.897156058 381 c 0xf080
53 623 m 1
 137.063889956 623 150.268363717 639.931927524 159 667 c 1
 238 667 l 1xf2
 238 292 l 1
 137 292 l 1
 137 535 l 1xf4
 53 535 l 1
 53 623 l 1
110 0 m 1xf9
 578 667 l 1
 705 667 l 1
 237 0 l 1
 110 0 l 1xf9
EndSplineSet
Ligature2: "'frac' Diagonal Fractions lookup 10 subtable" one slash two
EndChar

StartChar: threequarters
Encoding: 190 190 106
Width: 959
GlyphClass: 1
Flags: W
HStem: 0 21G<200 341.033 748 849> 74 87<669 748 849 906> 290 76<153.14 250.243> 446 84<167 242.716> 603 76<130.739 242.779> 647 20G<653.967 795>
VStem: 200 127<0 127> 247 103<536.908 597.159> 255 105<372.297 437.452> 668 127<540 667> 748 101<0 74 161 256>
DStem2: 200 0 327 0 0.574368 0.818597<72.9447 814.809> 567 152 669 161 0.630199 0.776433<71.2682 194.815>
LayerCount: 2
Fore
SplineSet
669 161 m 1xf020
 748 161 l 1
 748 256 l 1
 669 161 l 1xf020
748 0 m 1
 748 74 l 1
 567 74 l 1
 567 152 l 1
 748 375 l 1
 849 375 l 1
 849 161 l 1
 906 161 l 1
 906 74 l 1
 849 74 l 1
 849 0 l 1
 748 0 l 1
200 0 m 1xf640
 668 667 l 1
 795 667 l 1
 327 0 l 1
 200 0 l 1xf640
360 407.645953182 m 0xf880
 360 327.859670286 280.545954857 290 202.317154299 290 c 0
 160.283232612 290 85.801269621 300.930582488 53 372 c 1
 144 404 l 1
 148.130925332 392.787488385 162.451978268 366 204.19576764 366 c 0
 218.986108148 366 255 369.362827576 255 405.949240851 c 0xf880
 255 423.644670206 246.575335907 446 182 446 c 2
 167 446 l 1
 167 530 l 1
 182 530 l 2
 225.333333333 530 247 543 247 567.455271431 c 0
 247 599.603132857 209.558666999 603 199.724860515 603 c 0
 191.719200305 603 158.205430517 600.748719799 147 569 c 1
 58 602 l 1
 81.3333333333 653.333333333 131.333333333 679 202.013046893 679 c 0
 271.69578859 679 350 654.052308296 350 579.617749261 c 0xf9
 350 565.429480873 347.154918769 517.077459385 301 494 c 1
 316.97237563 488.084305322 360 466.360256277 360 407.645953182 c 0xf880
EndSplineSet
Ligature2: "'frac' Diagonal Fractions lookup 10 subtable" three slash four
EndChar

StartChar: less
Encoding: 60 60 107
Width: 573
GlyphClass: 1
Flags: W
HStem: 490 20G<486.27 533>
LayerCount: 2
Fore
SplineSet
533 -12 m 1
 40 200 l 1
 40 299 l 1
 533 510 l 1
 533 368 l 1
 209 250 l 1
 533 130 l 1
 533 -12 l 1
EndSplineSet
EndChar

StartChar: equal
Encoding: 61 61 108
Width: 618
GlyphClass: 1
Flags: W
HStem: 96 129<53 565> 283 127<53 565>
LayerCount: 2
Fore
SplineSet
53 96 m 1
 53 225 l 1
 565 225 l 1
 565 96 l 1
 53 96 l 1
53 283 m 1
 53 410 l 1
 565 410 l 1
 565 283 l 1
 53 283 l 1
EndSplineSet
EndChar

StartChar: greater
Encoding: 62 62 109
Width: 573
GlyphClass: 1
Flags: W
HStem: 490 20G<40 86.7299>
LayerCount: 2
Fore
SplineSet
40 -12 m 1
 40 130 l 1
 365 250 l 1
 40 368 l 1
 40 510 l 1
 533 299 l 1
 533 200 l 1
 40 -12 l 1
EndSplineSet
EndChar

StartChar: question
Encoding: 63 63 110
Width: 614
GlyphClass: 1
Flags: W
HStem: -12 195<204.693 324.725> 558 122<217.385 385.83>
VStem: 167 194<24.6597 146.743> 408 156<462.208 536.622>
LayerCount: 2
Fore
SplineSet
361 86.9549033626 m 0
 361 33.8670423077 320.862576174 -12 264.867339454 -12 c 0
 209.667005775 -12 167 32.5740372853 167 86.9447314915 c 0
 167 142.408903267 211.400460541 183 264.870187554 183 c 0
 319.156871593 183 361 141.159055314 361 86.9549033626 c 0
40 536 m 1
 81.9408999031 640.852249758 194.480305763 680 306.276187266 680 c 0
 357.729379508 680 463.057928662 671.707607539 524.551880057 608.528890352 c 0
 551.833333333 580.5 564 548.333333333 564 506.666666667 c 0
 564 465 551.833333333 430.833333333 518.025042284 397.025042284 c 0
 443.802259135 322.802259135 350.423917387 335.459277135 341 253 c 2
 340 243 l 1
 186 243 l 1
 186 255 l 2
 189.640006841 342.360164184 217.608527922 380.517706508 351.829234177 444.012792228 c 0
 397.299049234 465.522959216 408 473.902744799 408 494.375235558 c 0
 408 532.005498699 371.846070325 558 305.120897416 558 c 0
 265.089843776 558 198.430798597 548.643872823 177 486 c 1
 40 536 l 1
EndSplineSet
EndChar

StartChar: at
Encoding: 64 64 111
Width: 754
GlyphClass: 1
Flags: W
HStem: -12 70<275.6 487.857> 153 87<526.897 612.843> 155 95<314.098 397.044> 427 91<323.631 418.546> 610 70<276.173 488.404>
VStem: 35 69<228.417 436.303> 200 97<265.798 344.408> 419 94<273.084 426.463> 642 75.0025<271.847 457.498>
LayerCount: 2
Fore
SplineSet
297 344.408496732 m 1xbf80
 297 259.578230804 336.569590522 250 350.381762063 250 c 0
 365.118057818 250 419 260.902799594 419 339 c 2
 419 423 l 1
 411.230325648 424.942418588 398.797422225 427 384.920284093 427 c 0
 297 427 297 344.408496732 297 344.408496732 c 1xbf80
104 334.301131576 m 0
 104 181.976294133 225.266053434 58 381.164334247 58 c 0
 429.666666667 58 474 70 516 94 c 1
 516 16 l 1
 473.333333333 -2.66666666667 428 -12 381.282125354 -12 c 0
 192.202155373 -12 35 140.883871515 35 333.270806582 c 0
 35 522.905386567 187.736351679 680 381.615703928 680 c 0
 566.810630769 680 719 536.663648732 717.00252784 349.902262374 c 0
 716.333333333 287.333333333 700.333333333 238.833333333 670.154662725 203.510571144 c 0
 641.666666667 170.166666667 604.333333333 153 563.258241432 153 c 0xdf80
 544.770308124 153 479.399640447 156.47780813 454 219 c 1
 439.655829848 199.042893701 400.775923746 155 339.828059168 155 c 0xbf80
 280.882814334 155 200 196.196128983 200 324.444555549 c 0
 200 389.353053791 220.71835572 466.748080468 303.038923758 500.971237967 c 0
 329.166666667 511.833333333 360.666666667 518 394.548606737 518 c 0
 420.585255052 518 462.106987325 514.35846836 513 498 c 1
 513 309 l 2
 513 249.421189754 552.92444427 240 569.99005578 240 c 0xdf80
 589.931059892 240 636.571758382 252.863409262 642 356 c 1
 642 504.923492198 522.406763769 610 381.521699788 610 c 0
 231.131072488 610 104 490.266062349 104 334.301131576 c 0
EndSplineSet
EndChar

StartChar: colon
Encoding: 58 58 112
Width: 243
GlyphClass: 1
Flags: W
HStem: -12 195<61.607 181.491> 316 194<60.2755 183.539>
VStem: 24 195<25.9751 147.271 352.311 473.398>
LayerCount: 2
Fore
SplineSet
219 86.9456726336 m 0
 219 32.5766204719 176.335524696 -12 122.07599696 -12 c 0
 68.1036977235 -12 24 32.1059275816 24 86.9420869096 c 0
 24 142.865767283 69.8703900891 183 122.086302303 183 c 0
 174.596925637 183 219 142.411446625 219 86.9456726336 c 0
219 412.714563295 m 0
 219 357.661678102 175.371820989 316 122.081166512 316 c 0
 69.0805402416 316 24 357.209434399 24 412.719911237 c 0
 24 468.37483354 69.3154563163 510 122.083386494 510 c 0
 175.14483005 510 219 467.910478683 219 412.714563295 c 0
EndSplineSet
EndChar

StartChar: semicolon
Encoding: 59 59 113
Width: 243
GlyphClass: 1
Flags: W
HStem: 316 194<60.2755 183.539>
VStem: 24 195<25.5 146.977 352.311 473.398>
DStem2: 46 -146 136 -146 0.365652 0.930751<32.9087 146.893>
LayerCount: 2
Fore
SplineSet
122.086302303 183 m 0
 174.596925637 183 219 142.411446625 219 85.4271566335 c 0
 219 73.3333333333 217 61.3333333333 213 50 c 2
 136 -146 l 1
 46 -146 l 1
 99 -9 l 1
 97.8257668335 -8.70644170836 24 10.3124156851 24 84.4371669815 c 0
 24 142.865767283 69.8703900891 183 122.086302303 183 c 0
219 412.714563295 m 0
 219 357.661678102 175.371820989 316 122.081166512 316 c 0
 69.0805402416 316 24 357.209434399 24 412.719911237 c 0
 24 468.37483354 69.3154563163 510 122.083386494 510 c 0
 175.14483005 510 219 467.910478683 219 412.714563295 c 0
EndSplineSet
EndChar

StartChar: bracketleft
Encoding: 91 91 114
Width: 333
GlyphClass: 1
Flags: W
HStem: -161 115<172 300> 552 116<172 300>
VStem: 44 256<-161 -46 552 668> 44 128<-46 552>
LayerCount: 2
Fore
SplineSet
44 -161 m 1xe0
 44 668 l 1
 300 668 l 1
 300 552 l 1xe0
 172 552 l 1
 172 -46 l 1xd0
 300 -46 l 1
 300 -161 l 1
 44 -161 l 1xe0
EndSplineSet
EndChar

StartChar: backslash
Encoding: 92 92 115
Width: 442
GlyphClass: 1
Flags: W
HStem: 0 21G<268.186 427> 648 20G<15 175.754>
DStem2: 168 668 15 668 0.363926 -0.931428<0 661.498>
LayerCount: 2
Fore
SplineSet
276 0 m 1
 15 668 l 1
 168 668 l 1
 427 0 l 1
 276 0 l 1
EndSplineSet
EndChar

StartChar: bracketright
Encoding: 93 93 116
Width: 333
GlyphClass: 1
Flags: W
HStem: -161 115<33 161> 552 116<33 161>
VStem: 33 256<-161 -46 552 668> 161 128<-46 552>
LayerCount: 2
Fore
SplineSet
33 -161 m 1xe0
 33 -46 l 1xe0
 161 -46 l 1
 161 552 l 1xd0
 33 552 l 1
 33 668 l 1
 289 668 l 1
 289 -161 l 1
 33 -161 l 1xe0
EndSplineSet
EndChar

StartChar: asciicircum
Encoding: 94 94 117
Width: 589
GlyphClass: 1
Flags: W
HStem: 648 20G<227.607 361.393>
DStem2: 53 312 196 312 0.461117 0.887339<65.9398 283.734> 351 668 295 506 0.461117 -0.887339<117.926 335.26>
LayerCount: 2
Fore
SplineSet
53 312 m 1
 238 668 l 1
 351 668 l 1
 536 312 l 1
 393 312 l 1
 295 506 l 1
 196 312 l 1
 53 312 l 1
EndSplineSet
EndChar

StartChar: underscore
Encoding: 95 95 118
Width: 430
GlyphClass: 1
Flags: W
HStem: -128 128<10 420>
LayerCount: 2
Fore
SplineSet
10 -128 m 1
 10 0 l 1
 420 0 l 1
 420 -128 l 1
 10 -128 l 1
EndSplineSet
EndChar

StartChar: grave
Encoding: 96 96 119
Width: 314
GlyphClass: 1
Flags: W
HStem: 574 154<119.028 152.719>
VStem: 53 208
LayerCount: 2
Fore
SplineSet
53 671.116361511 m 0
 53 701.551760661 77.5782262677 728 110.314100011 728 c 0
 126.333333333 728 140.333333333 721.666666667 151 709 c 2
 261 574 l 1
 147 574 l 1
 77 625.578947368 77 625.578947368 72 629 c 0
 59.3333333333 641.666666667 53 655.666666667 53 671.116361511 c 0
EndSplineSet
EndChar

StartChar: exclam
Encoding: 33 33 120
Width: 283
GlyphClass: 1
Flags: W
HStem: -12 195<81.607 201.491> 648 20G<44 238>
VStem: 44 195<25.9751 147.271 453.977 668>
LayerCount: 2
Fore
SplineSet
239 86.9456726336 m 0
 239 32.5766204719 196.335524696 -12 142.07599696 -12 c 0
 88.1036977235 -12 44 32.1059275816 44 86.9420869096 c 0
 44 142.865767283 89.8703900891 183 142.086302303 183 c 0
 194.596925637 183 239 142.411446625 239 86.9456726336 c 0
85 243 m 1
 44 495 l 1
 44 668 l 1
 238 668 l 1
 238 495 l 1
 196 243 l 1
 85 243 l 1
EndSplineSet
EndChar

StartChar: quotedbl
Encoding: 34 34 121
Width: 410
GlyphClass: 1
Flags: W
HStem: 434 234<54 168 243 356>
VStem: 54 114<434 551> 243 113<434 543.2>
LayerCount: 2
Fore
SplineSet
54 434 m 1
 40 668 l 1
 182 668 l 1
 168 434 l 1
 54 434 l 1
243 434 m 1
 228 668 l 1
 370 668 l 1
 356 434 l 1
 243 434 l 1
EndSplineSet
EndChar

StartChar: numbersign
Encoding: 35 35 122
Width: 783
GlyphClass: 1
Flags: W
HStem: 0 21G<134 277.835 411 554.835> 127 140<44 152 313 429 591 699> 401 140<84 192 352 469 630 738> 648 20G<228.008 371 505.008 649>
DStem2: 134 0 275 0 0.143702 0.989621<20.262 128.269 289.952 405.173 566.712 675.006> 411 0 552 0 0.143702 0.989621<20.262 128.269 290.095 405.173 566.856 675.006>
LayerCount: 2
Fore
SplineSet
313 267 m 1
 450 267 l 1
 469 401 l 1
 332 401 l 1
 313 267 l 1
134 0 m 1
 152 127 l 1
 24 127 l 1
 44 266 l 1
 172 266 l 1
 192 401 l 1
 64 401 l 1
 84 541 l 1
 212 541 l 1
 231 668 l 1
 371 668 l 1
 352 541 l 1
 489 541 l 1
 508 668 l 1
 649 668 l 1
 630 541 l 1
 759 541 l 1
 738 402 l 1
 610 402 l 1
 591 267 l 1
 719 267 l 1
 699 127 l 1
 570 127 l 1
 552 0 l 1
 411 0 l 1
 429 127 l 1
 293 127 l 1
 275 0 l 1
 134 0 l 1
EndSplineSet
EndChar

StartChar: dollar
Encoding: 36 36 123
Width: 619
GlyphClass: 1
Flags: W
HStem: -11 128<224.982 272 345 403.075> 552 126<214.756 272 345 382.707>
VStem: 28 162<444.905 529.243> 272 73<-87 -8.44966 120 261 420 548 675.852 747>
LayerCount: 2
Fore
SplineSet
345 117 m 1
 377.179699593 120.785847011 434 135.101822249 434 201.694924028 c 1
 434 201.694924028 434 237.12195122 345 261 c 1
 345 117 l 1
272 552 m 1
 256.556257866 550.284028652 190 539.93436663 190 490.022688988 c 0
 190 473.581601143 197.221803374 432.463032771 272 420 c 1
 272 552 l 1
596 209.864545296 m 0
 596 63.7587886652 453.536909586 -0.824664726282 345 -11 c 1
 345 -87 l 1
 272 -87 l 1
 272 -10 l 1
 195.220833094 -3.39534048116 75.0365080223 28.334693657 25 157 c 1
 169 209 l 1
 177.243093873 181.273229698 198.582788557 134.683442289 272 120 c 1
 272 277 l 1
 231 286 l 2
 48.8527205318 326.477173215 28 414.645648659 28 470.539157291 c 0
 28 638.109847743 215.428701215 673.285725101 272 678 c 1
 272 747 l 1
 345 747 l 1
 345 678 l 1
 411.724111973 672.515826413 521.933937001 646.055655246 567 535 c 1
 424 483 l 1
 411.333333333 515.666666667 385 537.333333333 345 548 c 1
 345 405 l 1
 356 403 l 2
 538.411324707 371.856603099 596 302.757909484 596 209.864545296 c 0
EndSplineSet
EndChar

StartChar: percent
Encoding: 37 37 124
Width: 977
GlyphClass: 1
Flags: W
HStem: -12 119<702.499 808.327> 0 21G<192 332.012> 264 118<703.038 810.189> 286 118<167.386 275.355> 561 119<168.018 274.72> 648 20G<645.018 786>
VStem: 24 119<428.212 535.294> 192 126<0 126> 300 118<428.353 535.156> 559 118<132.091 238.001> 659 127<541 668> 835 118<132.674 237.475>
DStem2: 192 0 318 0 0.573791 0.819001<72.2977 815.054>
LayerCount: 2
Fore
SplineSet
677 185.207321437 m 0xa250
 677 140.418166608 714.055777918 107 755.999772376 107 c 0
 797.943061055 107 835 140.417041983 835 185.206910132 c 0
 835 229.55167174 798.675920037 264 756.000217078 264 c 0
 713.325176234 264 677 229.552740663 677 185.207321437 c 0xa250
953 186.993040346 m 0
 953 79.4764562983 867.85615644 -12 756.911594763 -12 c 0
 647.950510824 -12 559 76.2348444982 559 186.959347296 c 0
 559 300.025457526 651.752552937 382 756.939572414 382 c 0
 864.167154766 382 953 296.814097096 953 186.993040346 c 0
143 482.790439829 m 0
 143 438.891082677 177.89544388 404 221.791197151 404 c 0
 266.13782547 404 300 439.611531036 300 482.787397818 c 0
 300 526.419689561 265.418107004 561 221.787162967 561 c 0x1a90
 178.611833295 561 143 527.138125734 143 482.790439829 c 0
192 0 m 1x4730
 659 668 l 1
 786 668 l 1
 318 0 l 1
 192 0 l 1x4730
418 482.841092014 m 0x1a90
 418 371.846108529 328.616569068 286 221.000974232 286 c 0
 113.388516461 286 24 371.841103662 24 482.839691069 c 0
 24 595.559488036 116.182232428 680 220.99948919 680 c 0
 325.815173394 680 418 595.562021713 418 482.841092014 c 0x1a90
EndSplineSet
EndChar

StartChar: ampersand
Encoding: 38 38 125
Width: 702
GlyphClass: 1
Flags: W
HStem: -13 125<217.152 369.562> 0 21G<504.642 698> 592 114<272.731 376.826>
VStem: 24 159<146.889 250.766> 121 139<479.749 579.15> 394 127<476.734 575.246> 546 127<316.933 389>
DStem2: 395 352 266 290 0.652386 -0.757887<0 143.176 274.804 349.629>
LayerCount: 2
Fore
SplineSet
183 198.830075212 m 0xb6
 183 155.497163427 220.60405491 112 284.189733211 112 c 0
 303.6092798 112 342.682355876 116.057144639 392 146 c 1
 266 290 l 1
 236.732178992 278.691978247 183 250.628643981 183 198.830075212 c 0xb6
324.740178494 592 m 0
 295.611267813 592 260 577.636729942 260 538.413156458 c 0x2e
 260 520.795060587 267.184740021 483.754192335 322 437 c 1
 342.76077279 447.926722521 394 479.778623515 394 527.627043327 c 0
 394 562.845887629 366.240120756 592 324.740178494 592 c 0
476 53 m 1
 419.185800635 18.1140881092 346.06221601 -13 264.574931678 -13 c 0
 115.145873739 -13 24 91.6278991155 24 189.72412855 c 0xb6
 24 231.35114167 40.412807779 325.294557497 182 385 c 1
 148.725190256 427.633349984 121 479.977471624 121 536.631572162 c 0
 121 641.414520019 215.840331167 706 316.37404413 706 c 0
 427.454827144 706 521 627.152248784 521 532.269710872 c 0
 521 490.9769805 503.282762893 418.880530022 395 352 c 1
 489 244 l 1
 515.645427445 286.071727545 534.552615589 334.306941149 546 389 c 1
 673 389 l 1
 667.249608953 353.539255213 643.937305528 238.105213506 573 145 c 1
 698 0 l 1
 522 0 l 1x6e
 476 53 l 1
EndSplineSet
EndChar

StartChar: quotesingle
Encoding: 39 39 126
Width: 222
GlyphClass: 1
Flags: W
HStem: 434 234<54 168>
VStem: 54 114<434 551>
LayerCount: 2
Fore
SplineSet
54 434 m 1
 40 668 l 1
 182 668 l 1
 168 434 l 1
 54 434 l 1
EndSplineSet
EndChar

StartChar: parenleft
Encoding: 40 40 127
Width: 366
GlyphClass: 1
Flags: W
HStem: -161 21G<146.927 331> 648 20G<99.0785 289>
VStem: 35 141<115.262 452.832> 145 144<524 668> 180 151<-161 -10>
LayerCount: 2
Fore
SplineSet
176 289.471224501 m 0xe0
 176 160.825425357 209.408896664 9.22754467048 331 -161 c 1
 180 -161 l 1
 113.853439618 -68.7957037101 35 82.5211804831 35 277.515804132 c 0xe8
 35 371.085359987 53.1570171473 516.105836051 145 668 c 1
 289 668 l 1xd0
 247.306761685 604.741293591 176 477.415844993 176 289.471224501 c 0xe0
EndSplineSet
EndChar

StartChar: parenright
Encoding: 41 41 128
Width: 366
GlyphClass: 1
Flags: W
HStem: -161 21G<35 246.435> 648 20G<77 245.738>
VStem: 35 152<-161 -9> 77 144<524 668> 190 141<119.855 456.884>
LayerCount: 2
Fore
SplineSet
331 282.024165291 m 0xc8
 331 171.319543416 305.870132246 7.24695640979 187 -161 c 1
 35 -161 l 1
 112.572892625 -54.0434359261 190 97.4659188826 190 292.989698495 c 0xe8
 190 487.583744144 113.307488284 613.846458152 77 668 c 1
 221 668 l 1xd0
 270.476436581 587.717480265 331 453.828017043 331 282.024165291 c 0xc8
EndSplineSet
EndChar

StartChar: asterisk
Encoding: 42 42 129
Width: 434
GlyphClass: 1
Flags: W
HStem: 351 317
VStem: 173 88<567 668>
LayerCount: 2
Fore
SplineSet
158 351 m 1
 87 402 l 1
 146 484 l 1
 50 515 l 1
 77 598 l 1
 173 567 l 1
 173 668 l 1
 261 668 l 1
 261 567 l 1
 355 598 l 1
 383 515 l 1
 288 484 l 1
 347 402 l 1
 276 351 l 1
 217 432 l 1
 158 351 l 1
EndSplineSet
EndChar

StartChar: plus
Encoding: 43 43 130
Width: 618
GlyphClass: 1
Flags: W
HStem: 0 21G<245 373> 184 128<53 245 373 565> 476 20G<245 373>
VStem: 245 128<0 184 312 496>
LayerCount: 2
Fore
SplineSet
245 0 m 1
 245 184 l 1
 53 184 l 1
 53 312 l 1
 245 312 l 1
 245 496 l 1
 373 496 l 1
 373 312 l 1
 565 312 l 1
 565 184 l 1
 373 184 l 1
 373 0 l 1
 245 0 l 1
EndSplineSet
EndChar

StartChar: comma
Encoding: 44 44 131
Width: 243
GlyphClass: 1
Flags: W
HStem: -146 329<100.414 136>
VStem: 24 195<25.5 146.25>
DStem2: 46 -146 136 -146 0.365652 0.930751<32.9087 146.893>
LayerCount: 2
Fore
SplineSet
121.881662545 183 m 0
 175.14483005 183 219 140.910478683 219 84.9504107256 c 0
 219 73 217 61.3333333333 213 50 c 2
 136 -146 l 1
 46 -146 l 1
 99 -9 l 1
 97.8257668335 -8.70644170836 24 10.3124156851 24 84.4371669815 c 0
 24 142.865767283 69.8703900891 183 121.881662545 183 c 0
EndSplineSet
EndChar

StartChar: hyphen
Encoding: 45 45 132
Width: 374
GlyphClass: 1
Flags: W
HStem: 184 129<24 350>
VStem: 24 326<184 313>
LayerCount: 2
Fore
SplineSet
24 184 m 1
 24 313 l 1
 350 313 l 1
 350 184 l 1
 24 184 l 1
EndSplineSet
EndChar

StartChar: period
Encoding: 46 46 133
Width: 243
GlyphClass: 1
Flags: W
HStem: -12 195<61.607 181.491>
VStem: 24 195<25.9751 147.271>
LayerCount: 2
Fore
SplineSet
219 86.9456726336 m 0
 219 32.5766204719 176.335524696 -12 122.07599696 -12 c 0
 68.1036977235 -12 24 32.1059275816 24 86.9420869096 c 0
 24 142.865767283 69.8703900891 183 122.086302303 183 c 0
 174.596925637 183 219 142.411446625 219 86.9456726336 c 0
EndSplineSet
EndChar

StartChar: slash
Encoding: 47 47 134
Width: 442
GlyphClass: 1
Flags: W
HStem: 0 21G<15 175.754> 648 20G<268.186 427>
DStem2: 15 0 168 0 0.363926 0.931428<55.6807 717.178>
LayerCount: 2
Fore
SplineSet
15 0 m 1
 276 668 l 1
 427 668 l 1
 168 0 l 1
 15 0 l 1
EndSplineSet
EndChar

StartChar: braceleft
Encoding: 123 123 135
Width: 370
GlyphClass: 1
Flags: W
HStem: -161 120<245.699 336> 193 123<24 78.5508> 548 120<244.7 336>
VStem: 94 144<-34.6989 178.268 330.231 541.434>
LayerCount: 2
Fore
SplineSet
238 3 m 2
 238 -21.596983187 244.360081458 -41 303 -41 c 2
 336 -41 l 1
 336 -161 l 1
 285 -161 l 2
 135.298694848 -161 94 -102.047731796 94 2 c 2
 94 97 l 2
 94 184.667174239 64.4468000277 193 24 193 c 1
 24 316 l 1
 64.3175183309 316 94 324.10197025 94 410 c 2
 94 506 l 2
 94 605.172897671 130.973701283 668 285 668 c 2
 336 668 l 1
 336 548 l 1
 303 548 l 2
 244.360622517 548 238 528.597463911 238 504 c 2
 238 381 l 2
 238 331.65464803 225.41286158 278.795601242 144 256 c 1
 144 253 l 1
 235.311492036 231.085241911 238 160.313289342 238 128 c 2
 238 3 l 2
EndSplineSet
EndChar

StartChar: bar
Encoding: 124 124 136
Width: 234
GlyphClass: 1
Flags: W
HStem: -161 21G<44 190> 648 20G<44 190>
VStem: 44 146<-161 668>
LayerCount: 2
Fore
SplineSet
44 -161 m 1
 44 668 l 1
 190 668 l 1
 190 -161 l 1
 44 -161 l 1
EndSplineSet
EndChar

StartChar: braceright
Encoding: 125 125 137
Width: 370
GlyphClass: 1
Flags: W
HStem: -161 120<34 123.98> 193 123<291.469 346> 548 120<34 125.003>
VStem: 133 144<-31.9951 178.203 330.501 538.714>
LayerCount: 2
Fore
SplineSet
277 2 m 2
 277 -107.776391527 229.984825046 -161 86 -161 c 2
 34 -161 l 1
 34 -41 l 1
 68 -41 l 2
 125.058815361 -41 133 -23.7939136639 133 3 c 2
 133 128 l 2
 133 165.549890143 137.267519555 230.816879889 226 253 c 1
 226 256 l 1
 147.15901085 278.995288502 133 327.111352598 133 381 c 2
 133 504 l 2
 133 530.793812811 125.058935551 548 68 548 c 2
 34 548 l 1
 34 668 l 1
 86 668 l 2
 234.412774971 668 277 610.980221774 277 506 c 2
 277 410 l 2
 277 323.795871655 307.088279454 316 346 316 c 1
 346 193 l 1
 306.953863736 193 277 184.97396818 277 97 c 2
 277 2 l 2
EndSplineSet
EndChar

StartChar: asciitilde
Encoding: 126 126 138
Width: 533
GlyphClass: 1
Flags: W
HStem: 167 123<285.999 378.607> 227 123<154.421 252.783>
LayerCount: 2
Fore
SplineSet
493 333 m 1x80
 482.479184404 170.979439819 400.281205612 167 375.653013708 167 c 0x80
 280.022347001 167 251.991541888 227 195.916659582 227 c 0
 141.823529412 227 144.013098004 171.166000888 145 146 c 1
 40 184 l 1
 50.6314798967 347.72479041 138.146285938 350 158.071851838 350 c 0x40
 260.395398492 350 290.868490397 290 341.179293222 290 c 0
 391.897959184 290 388.164687693 350.976767677 387 370 c 1
 493 333 l 1x80
EndSplineSet
EndChar

StartChar: exclamdown
Encoding: 161 161 139
Width: 283
GlyphClass: 1
Flags: W
HStem: -161 21G<45 238> 325 194<80.2755 203.539>
VStem: 45 193<-161 49.0244 359.515 484.206>
LayerCount: 2
Fore
SplineSet
45 -161 m 1
 45 12 l 1
 86 265 l 1
 197 265 l 1
 238 12 l 1
 238 -161 l 1
 45 -161 l 1
239 421.714563295 m 0
 239 366.661678102 195.371820989 325 142.081166512 325 c 0
 89.0805402416 325 44 366.209434399 44 421.719911237 c 0
 44 477.37483354 89.3154563163 519 142.083386494 519 c 0
 195.14483005 519 239 476.910478683 239 421.714563295 c 0
EndSplineSet
EndChar

StartChar: cent
Encoding: 162 162 140
Width: 520
GlyphClass: 1
Flags: W
VStem: 24 155<154.893 341.795> 244 73<-87 -8.51619 115 383 505.588 571>
LayerCount: 2
Fore
SplineSet
244 383 m 1
 209.831136269 367.135884696 179 330.512866274 179 250.359622025 c 0
 179 202.873817266 189.821187574 139.079472189 244 115 c 1
 244 383 l 1
500 107 m 1
 476.091699701 63.8108123636 424.293059737 4.4432965031 317 -10 c 1
 317 -87 l 1
 244 -87 l 1
 244 -11 l 1
 173.333333333 -3.66666666667 119 23.5 80.1651965734 71.5325200277 c 0
 43 117.5 24 177.666666667 24 246.843207928 c 0
 24 400.54168113 117.793991817 494.614514284 244 508 c 1
 244 571 l 1
 317 571 l 1
 317 507 l 1
 376.566030749 499.418868814 458.804278564 471.349473415 502 379 c 1
 375 334 l 1
 366.581255696 355.514568778 350.131738117 379.07451719 318 388 c 1
 318 109 l 1
 344 115 363.333333333 129.333333333 376 152 c 1
 500 107 l 1
EndSplineSet
EndChar

StartChar: sterling
Encoding: 163 163 141
Width: 617
GlyphClass: 1
Flags: W
HStem: -12 125<324.566 538.339> 24 110<226.512 350.252> 295 73<50 125 324 450> 558 121<266.483 413.61>
VStem: 82 160<419.061 531.826> 173 158<190.946 294.39>
LayerCount: 2
Fore
SplineSet
221.70370501 24 m 1x74
 221.70370501 24 171 24 105 -12 c 1
 50 104 l 1
 160.627930769 158.376440547 173 203.68354766 173 244.92599638 c 0xb4
 173 266.333333333 169.666666667 281 163 295 c 1
 50 295 l 1
 50 368 l 1
 125 368 l 1
 106.504500873 403.835029558 82 451.3125 82 506.718095621 c 0
 82 672.947611094 302.574286416 679 335.661675158 679 c 0
 378.553139765 679 528.352137854 668.829469861 585 536 c 1
 449 486 l 1
 430.265827592 552.421156718 359.307979323 558 335.477348082 558 c 0
 291.044153447 558 242 538.605073105 242 486.010547619 c 0xb8
 242 468.666666667 247.333333333 448.166666667 264.869890637 415.833639138 c 0
 268.666666667 408.833333333 279.333333333 388.666666667 290 368 c 1
 450 368 l 1
 450 295 l 1
 324 295 l 1
 328.666666667 283 331 269.666666667 331 256.784101869 c 0
 331 218.982976899 310.909924744 168.315534142 226 115 c 1
 236.74137931 121.137931034 259.25 134 310.081375719 134 c 0x74
 375.03241344 134 397.689808782 113 453.751845927 113 c 0
 470.380285069 113 507.412500487 114.847500292 556 144 c 1
 600 23 l 1
 536.170521629 -8.91473918546 477.235526134 -12 450.844981837 -12 c 0xb4
 360.697488266 -12 314.7191784 24 221.70370501 24 c 1x74
EndSplineSet
EndChar

StartChar: currency
Encoding: 164 164 142
Width: 596
GlyphClass: 1
Flags: W
HStem: 102 119<236.697 359.303> 419 120<235.597 360.024>
VStem: 79 120<258.901 382.686> 397 119<259.156 381.817>
DStem2: 105 565 53 513 0.707107 -0.707107<0 99.0295 520.392 619.426> 53 127 105 75 0.707107 0.707107<0 99.0336 520.744 619.426>
LayerCount: 2
Fore
SplineSet
199 321.157824096 m 0
 199 266.249832013 242.318007396 221 298.000052695 221 c 0
 353.682275873 221 397 266.250121117 397 321.157090474 c 0
 397 376.683525777 352.699332307 419 298.000826266 419 c 0
 243.305168548 419 199 376.687932765 199 321.157824096 c 0
516 321.506365466 m 0
 516 284.87011116 507.601077022 238.906793663 476 194 c 1
 543 127 l 1
 491 75 l 1
 424 142 l 1
 387.333333333 115.333333333 345.333333333 102 298 102 c 0
 250.666666667 102 208.666666667 115.333333333 172 142 c 1
 105 75 l 1
 53 127 l 1
 120 194 l 1
 98.9855225418 223.862678493 79 266.57986877 79 320.210052333 c 0
 79 355.607455288 87.7064225396 400.109126767 120 446 c 1
 53 513 l 1
 105 565 l 1
 172 498 l 1
 201.540248038 519.881665214 243.712464052 539 299.943002608 539 c 0
 321.439028094 539 372.421861014 536.206028878 424 498 c 1
 491 565 l 1
 543 513 l 1
 476 446 l 1
 502.666666667 409.333333333 516 367.666666667 516 321.506365466 c 0
EndSplineSet
EndChar

StartChar: yen
Encoding: 165 165 143
Width: 687
GlyphClass: 1
Flags: W
HStem: 0 21G<265 422> 75 74<136 265 422 552> 212 74<136 249 438 552> 647 20G<10 205.641 480.359 677>
VStem: 10 184<483 667> 265 157<0 75 149 212> 492 185<482 667>
DStem2: 194 667 10 667 0.531397 -0.847123<0 296.042> 343 411 438 286 0.531397 0.847123<0 296.042>
LayerCount: 2
Fore
SplineSet
265 0 m 1
 265 75 l 1
 136 75 l 1
 136 149 l 1
 265 149 l 1
 265 212 l 1
 136 212 l 1
 136 286 l 1
 249 286 l 1
 10 667 l 1
 194 667 l 1
 343 411 l 1
 492 667 l 1
 677 667 l 1
 438 286 l 1
 552 286 l 1
 552 212 l 1
 422 212 l 1
 422 149 l 1
 552 149 l 1
 552 75 l 1
 422 75 l 1
 422 0 l 1
 265 0 l 1
EndSplineSet
EndChar

StartChar: brokenbar
Encoding: 166 166 144
Width: 216
GlyphClass: 1
Flags: W
HStem: -161 21G<44 172> 648 20G<44 172>
VStem: 44 128<-161 150 358 668>
LayerCount: 2
Fore
SplineSet
44 -161 m 1
 44 150 l 1
 172 150 l 1
 172 -161 l 1
 44 -161 l 1
44 358 m 1
 44 668 l 1
 172 668 l 1
 172 358 l 1
 44 358 l 1
EndSplineSet
EndChar

StartChar: section
Encoding: 167 167 145
Width: 578
GlyphClass: 1
Flags: W
HStem: -173 117<220.055 339.515> 565 115<222.611 343.958>
VStem: 21 149<269.957 340.223> 68 149<497.228 557.317> 351 151<-42.0947 36.0485> 398 153<195.596 267.111>
DStem2: 356 184 162 125 0.895856 -0.444345<-215.71 13.8819> 278 474 211 352 0.89735 -0.44132<-19.7428 210.202>
LayerCount: 2
Fore
SplineSet
356 184 m 1xe4
 394.868859968 201.490986986 398 217.715380103 398 231.058759332 c 0
 398 250.45231029 391.385675411 264.877329218 321 298 c 2
 211 352 l 1
 183.666666667 338.666666667 170 323.666666667 170 302.311110851 c 0
 170 291.101634355 173.765403353 275.677198261 231 246 c 2
 356 184 l 1xe4
502 9.87685734354 m 0xc8
 502 -103.372051505 408.448630085 -173 281.404636859 -173 c 0
 219.766064442 -173 107.703573172 -156.609942741 64 -35 c 1
 194 12 l 1
 202.049378713 -18.4087640276 223.606437219 -56 279.181616223 -56 c 0
 293.760150708 -56 351 -53.4132610544 351 -5.29490930663 c 0
 351 11.206890045 344.268069855 37.2345225687 277 69 c 2
 162 125 l 2
 25.7913234283 190.054890303 21 262.517681911 21 286.218165343 c 0xe8
 21 320.072324104 30.7760886645 374.864474718 107 421 c 1
 83.7130037396 450.755606333 68 486.01472654 68 526.956490916 c 0
 68 640.063222089 187.923144427 680 284.051513095 680 c 0
 347.124822842 680 444.903895075 662.806625588 489 568 c 1
 359 521 l 1
 354.097538532 532.439076758 340.142857143 565 281.431985386 565 c 0
 264.427372151 565 217 562.268550538 217 527.569007731 c 0
 217 520.832171335 218.787695546 503.606152227 278 474 c 2
 400 414 l 2
 537.576225898 347.122667966 551 295.617353978 551 255.174555204 c 0xd4
 551 216.495248634 538.721379146 158.02984317 458 114 c 1
 500.956364474 68.9980943605 502 21.8382949077 502 9.87685734354 c 0xc8
EndSplineSet
EndChar

StartChar: dieresis
Encoding: 168 168 146
Width: 452
GlyphClass: 1
Flags: W
HStem: 578 141<79.8574 179.653 273.867 373.344>
VStem: 59 141<598.347 698.143> 253 140<598.172 698.143>
LayerCount: 2
Fore
SplineSet
393 647.916346649 m 0
 393 609.471850676 363.532626043 578 324.157396945 578 c 0
 285.405028413 578 253 608.484045263 253 647.924496132 c 0
 253 687.073399182 284.927716604 719 324.149827974 719 c 0
 363.987946754 719 393 686.062670114 393 647.916346649 c 0
200 647.92031401 m 0
 200 608.950736421 169.048669951 578 130.079391493 578 c 0
 91.4050284134 578 59 608.484045263 59 647.924496132 c 0
 59 687.073399182 90.927716604 719 130.075894336 719 c 0
 169.516888295 719 200 686.594010882 200 647.92031401 c 0
EndSplineSet
EndChar

StartChar: copyright
Encoding: 169 169 147
Width: 798
GlyphClass: 1
Flags: W
HStem: -12 69<294.142 504.198> 145 85<356.015 464.241> 437 85<357.646 458.731> 610 69<293.93 504.413>
VStem: 53 70<228.069 438.308> 218 112<256.999 410.259> 675 70<228.005 438.365>
LayerCount: 2
Fore
SplineSet
563 231 m 1
 545.289421562 200.639008392 499.40613301 145 398.598929178 145 c 0
 342.333333333 145 297.166666667 162.333333333 264.509160321 198.084708701 c 0
 233.833333333 231.666666667 218 277.333333333 218 330.910318398 c 0
 218 449.352477933 295.379950482 522 402.337501397 522 c 0
 448.007401775 522 525.90810621 508.754814835 564 428 c 1
 472 394 l 1
 462.662003198 417.863769604 443.723965599 437 410.132865693 437 c 0
 390.304967205 437 330 430.332526234 330 331.648786702 c 0
 330 295.333333333 338.166666667 268.333333333 357.690102343 250.005210045 c 0
 370.833333333 237.666666667 388.333333333 230 410.898164734 230 c 0
 438.333333333 230 460.333333333 241.333333333 473 264 c 1
 563 231 l 1
123 333.569921539 m 0
 123 181.91322534 245.432389039 57 398.870092969 57 c 0
 551.462425479 57 675 180.540587852 675 333.566579885 c 0
 675 487.02095146 550.769797487 610 398.864423229 610 c 0
 246.113312197 610 123 485.6477619 123 333.569921539 c 0
745 332.888868981 m 0
 745 142.10209531 589.626024498 -12 399.537668001 -12 c 0
 210.202155373 -12 53 140.883871515 53 332.891201576 c 0
 53 523.7242623 208.285216121 679 399.543958395 679 c 0
 591.567548008 679 745 522.479877863 745 332.888868981 c 0
EndSplineSet
EndChar

StartChar: questiondown
Encoding: 191 191 148
Width: 614
GlyphClass: 1
Flags: W
HStem: -172 122<228.23 397.088> 324 195<290.154 410.953>
VStem: 50 156<-27.5268 46.5364> 253 194<361.139 482.413>
LayerCount: 2
Fore
SplineSet
574 -28 m 1
 532.059100097 -132.852249758 419.519694237 -172 310.110323418 -172 c 0
 200.364767653 -172 50 -132.61129957 50 4.10923340566 c 0
 50 43 62.1666666667 77.1666666667 95.7542649195 110.75426492 c 0
 169.091751092 184.091751092 263.415222651 173.529392537 273 255 c 2
 274 265 l 1
 428 265 l 1
 428 253 l 2
 426.133526141 163.409254769 393.486360688 127.193331892 235.249836535 50.6152278928 c 0
 216.883213265 41.7267541702 206 35.7115723987 206 14.5550582317 c 0
 206 -24.0054986993 242.153929675 -50 308.879102584 -50 c 0
 348.910156224 -50 415.569201403 -40.643872823 437 22 c 1
 574 -28 l 1
447 421.785485549 m 0
 447 368.403074363 406.411446625 324 350.868470191 324 c 0
 296.128370896 324 253 367.128653994 253 421.790570451 c 0
 253 476.912285476 296.856986641 519 350.869831012 519 c 0
 405.694825514 519 447 475.637087912 447 421.785485549 c 0
EndSplineSet
EndChar

StartChar: germandbls
Encoding: 223 223 149
Width: 621
GlyphClass: 1
Flags: W
HStem: -12 126<319.312 404.927> 0 21G<44 197> 298 117<278 387.915> 556 123<232.869 387.075>
VStem: 44 153<0 521.844> 410 147<436.894 531.454> 443 156<146.158 262.531>
LayerCount: 2
Fore
SplineSet
504 370 m 1x7c
 541.296043547 350.419577138 599 303.969719309 599 203.777222077 c 0
 599 141.253576031 576.528928552 -12 357 -12 c 2
 338 -12 l 2
 332 -12 325.666666667 -11.6666666667 319 -11 c 1
 278 123 l 1
 300 117 322.333333333 114 338.859390633 114 c 0
 380.755633118 114 443 133.281148313 443 203.451881716 c 0xba
 443 254.159880749 410.495688653 298 309 298 c 2
 278 298 l 1
 278 415 l 1
 304 415 l 2
 374.666666667 415 410 438.666666667 410 484.466371693 c 0
 410 509.916685082 399.089478293 556 306.610234394 556 c 0
 226.678147892 556 197 521.573135485 197 424 c 2
 197 0 l 1
 44 0 l 1
 44 435 l 2
 44 550.482326917 80.0665242237 679 301.082462671 679 c 0
 361.212966388 679 557 669.487266061 557 498.963580025 c 0
 557 477.594969373 553.925552545 412.436719663 504 370 c 1x7c
EndSplineSet
EndChar

StartChar: AE
Encoding: 198 198 150
Width: 1016
GlyphClass: 1
Flags: W
HStem: 0 139<639 994> 119 128<341 481> 275 138<639 857> 528 139<639 994>
DStem2: 5 0 177 0 0.580892 0.813981<99.9134 243.248 396.233 602.496>
AnchorPoint: "Anchor-0" 698 668 basechar 0
LayerCount: 2
Fore
SplineSet
341 247 m 1x70
 481 247 l 1
 481 453 l 1
 341 247 l 1x70
5 0 m 1xb0
 481 667 l 1
 994 667 l 1
 994 528 l 1
 639 528 l 1
 639 413 l 1
 857 413 l 1
 857 275 l 1
 639 275 l 1
 639 139 l 1
 994 139 l 1
 994 0 l 1
 481 0 l 1xb0
 481 119 l 1
 257 119 l 1x70
 177 0 l 1
 5 0 l 1xb0
EndSplineSet
EndChar

StartChar: florin
Encoding: 279 402 151
Width: 377
GlyphClass: 1
Flags: W
HStem: -174 141<16.0619 157.023> 381 115<15 97 249 357> 608 121<253.831 357>
VStem: 97 152<-26.4843 381 496 600.178>
LayerCount: 2
Fore
SplineSet
249 -16 m 2
 249 -92.2108759548 219.337841181 -174 94.7075161315 -174 c 0
 81.1489721272 -174 53.3860108546 -173.032002554 15 -164 c 1
 15 -31 l 1
 22.0271101393 -31.8783887674 32.9461810164 -33 46.2281664424 -33 c 0
 70.0054399944 -33 97 -29.4054836798 97 39 c 2
 97 381 l 1
 15 381 l 1
 15 496 l 1
 97 496 l 1
 97 578 l 2
 97 676.183625177 133.097662111 729 288 729 c 2
 357 729 l 1
 357 608 l 1
 315 608 l 2
 260.194613912 608 249 599.112026866 249 564 c 2
 249 496 l 1
 357 496 l 1
 357 381 l 1
 249 381 l 1
 249 -16 l 2
EndSplineSet
EndChar

StartChar: integral
Encoding: 280 8747 152
Width: 486
GlyphClass: 1
Flags: W
HStem: -174 144<85.9286 142.397> 536 144<344.906 407.179>
VStem: 41.8279 112.172<-104.371 -42.184> 171.481 135.519<193.007 566.696> 180 135.519<-60.6133 307.579> 333 111.234<547.534 609.982>
LayerCount: 2
Fore
SplineSet
315.519223412 116.718667528 m 0xec
 315.994732703 31.4582548006 311.374528155 -174 163.19544813 -174 c 0
 96.6513925336 -174 41 -132.564905058 41.8279339207 -84.6321985506 c 0
 42.3917693754 -51.9893043661 68.4637930566 -30 98.0304980644 -30 c 0
 130.026249677 -30 154 -55.7507728159 154 -86.4058088399 c 0
 154 -92.6666666667 153 -99 151 -105 c 1
 166.196649563 -97.8486354999 180 -80.6759403073 180 8.84624387192 c 0xec
 180 76.9989972681 172 297.81003051 171.481425384 389.943908037 c 0
 171.005267297 474.541745199 175.625471845 680 329.909937798 680 c 0
 395.167107777 680 445 643.243371987 444.233660603 594.430015269 c 0
 443.723082116 561.907806546 421.404333874 536 388.564290063 536 c 0
 355.454703639 536 333 562.334841073 333 592.335579648 c 0
 333 598.666666667 334 605 336 611 c 1
 316.666666667 601.666666667 307 566 307 494.364656432 c 0xf4
 307 429.196719861 315 209.817169028 315.519223412 116.718667528 c 0xec
EndSplineSet
EndChar

StartChar: approxequal
Encoding: 281 8776 153
Width: 532
GlyphClass: 1
Flags: W
HStem: 59 123<286.66 378.361> 118 125<153.183 254.295> 257 123<286.521 385.709> 317 124<153.291 251.052>
LayerCount: 2
Fore
SplineSet
194.897247618 118 m 0x40
 146.605263158 118 145.499396767 75.9770771457 145 57 c 1
 41 95 l 1
 45.6666666667 140.333333333 58 176.333333333 75.9051962469 200.206928329 c 0
 98 229.666666667 130.333333333 243 171.863042029 243 c 0x40
 260.691972689 243 291.854475398 182 341.872739086 182 c 0
 385.368421053 182 386.58231656 228.128029264 387 244 c 1
 491 206 l 1
 476.560114664 63.6639873986 398.167410344 59 372.505564963 59 c 0x80
 281.234061271 59 252.118575264 118 194.897247618 118 c 0x40
194.339993097 317 m 0x10
 146.605263158 317 145.499396767 274.977077146 145 256 c 1
 41 294 l 1
 56.0309717919 440.01515455 141.39040343 441 154.84024242 441 c 0x10
 260.691972689 441 291.854475398 380 341.868704758 380 c 0x20
 385.351351351 380 386.597508714 426.10782241 387 441 c 1x10
 491 404 l 1
 475.983307699 258.123560507 392.453112793 257 378.965091701 257 c 0x20
 280.399432935 257 251.378344843 317 194.339993097 317 c 0x10
EndSplineSet
EndChar

StartChar: notequal
Encoding: 282 8800 154
Width: 594
GlyphClass: 1
Flags: W
HStem: 0 21G<47 214.167> 96 129<41 114 357 553> 283 127<41 245 487 553> 475 20G<380.118 547>
LayerCount: 2
Fore
SplineSet
47 0 m 1
 114 96 l 1
 41 96 l 1
 41 225 l 1
 204 225 l 1
 245 283 l 1
 41 283 l 1
 41 410 l 1
 335 410 l 1
 394 495 l 1
 547 495 l 1
 487 410 l 1
 553 410 l 1
 553 283 l 1
 397 283 l 1
 357 225 l 1
 553 225 l 1
 553 96 l 1
 268 96 l 1
 200 0 l 1
 47 0 l 1
EndSplineSet
EndChar

StartChar: lessequal
Encoding: 283 8804 155
Width: 594
GlyphClass: 1
Flags: W
HStem: 0 128<41 553> 490 20G<470.419 553>
LayerCount: 2
Fore
SplineSet
41 0 m 1
 41 128 l 1
 553 128 l 1
 553 0 l 1
 41 0 l 1
553 136 m 1
 41 260 l 1
 41 386 l 1
 553 510 l 1
 553 381 l 1
 216 324 l 1
 553 265 l 1
 553 136 l 1
EndSplineSet
EndChar

StartChar: greaterequal
Encoding: 284 8805 156
Width: 594
GlyphClass: 1
Flags: W
HStem: 0 128<41 553> 490 20G<41 123.581>
LayerCount: 2
Fore
SplineSet
41 0 m 1
 41 128 l 1
 553 128 l 1
 553 0 l 1
 41 0 l 1
41 136 m 1
 41 265 l 1
 378 324 l 1
 41 381 l 1
 41 510 l 1
 553 386 l 1
 553 260 l 1
 41 136 l 1
EndSplineSet
EndChar

StartChar: lozenge
Encoding: 285 9674 157
Width: 607
GlyphClass: 1
Flags: W
DStem2: 41 313 179 313 0.546521 0.837445<75.4199 302.012> 179 313 41 313 0.545572 -0.838064<0 226.591> 304 716 304 502 0.545061 -0.838396<179.417 405.461> 304 124 304 -91 0.544112 0.839013<0 226.043>
LayerCount: 2
Fore
SplineSet
304 124 m 1
 428 313 l 1
 304 502 l 1
 179 313 l 1
 304 124 l 1
304 -91 m 1
 41 313 l 1
 304 716 l 1
 566 313 l 1
 304 -91 l 1
EndSplineSet
EndChar

StartChar: summation
Encoding: 286 8721 158
Width: 617
GlyphClass: 1
Flags: W
HStem: -162 128<211 576> 540 128<211 576>
DStem2: 211 540 41 540 0.641239 -0.767341<0 262.423> 41 -34 211 -34 0.638606 0.769534<108.563 372.975>
LayerCount: 2
Fore
SplineSet
41 -162 m 1
 41 -34 l 1
 278 254 l 1
 41 540 l 1
 41 668 l 1
 576 668 l 1
 576 540 l 1
 211 540 l 1
 450 254 l 1
 211 -34 l 1
 576 -34 l 1
 576 -162 l 1
 41 -162 l 1
EndSplineSet
EndChar

StartChar: minus
Encoding: 287 8722 159
Width: 594
GlyphClass: 1
Flags: W
HStem: 184 128<41 553>
LayerCount: 2
Fore
SplineSet
41 184 m 1
 41 312 l 1
 553 312 l 1
 553 184 l 1
 41 184 l 1
EndSplineSet
EndChar

StartChar: uni2215
Encoding: 288 8725 160
Width: 651
GlyphClass: 1
Flags: W
HStem: 0 21G<15 182.012> 648 20G<468.988 636>
VStem: 15 153<0 153> 483 153<515 668>
DStem2: 15 0 168 0 0.573791 0.819001<87.7901 815.627>
LayerCount: 2
Fore
SplineSet
15 0 m 1
 483 668 l 1
 636 668 l 1
 168 0 l 1
 15 0 l 1
EndSplineSet
EndChar

StartChar: uni2219
Encoding: 289 8729 161
Width: 277
GlyphClass: 1
Flags: W
HStem: 157 194<78.607 199.224>
VStem: 41 195<194.99 316.122>
LayerCount: 2
Fore
SplineSet
236 256.021747421 m 0
 236 201.576620472 193.335524696 157 139.07599696 157 c 0
 85.1036977235 157 41 201.105927582 41 256.015453093 c 0
 41 312.377958172 87.4686650307 351 139.089727361 351 c 0
 191.007642179 351 236 311.932480523 236 256.021747421 c 0
EndSplineSet
EndChar

StartChar: radical
Encoding: 290 8730 162
Width: 709
GlyphClass: 1
Flags: W
HStem: -162 21G<284.373 454.277> 93 132<41 183> 648 20G<518.679 668>
VStem: 524 144<524 668>
DStem2: 354 29 449 -162 0.255124 0.966908<0 661.226>
LayerCount: 2
Fore
SplineSet
293 -162 m 1
 183 93 l 1
 41 93 l 1
 41 225 l 1
 274 225 l 1
 354 29 l 1
 524 668 l 1
 668 668 l 1
 449 -162 l 1
 293 -162 l 1
EndSplineSet
EndChar

StartChar: infinity
Encoding: 291 8734 163
Width: 749
GlyphClass: 1
Flags: W
HStem: 97 107<172.847 232.336 472.036 575.611> 306 106<173.782 239.684 471.52 578.313>
VStem: 41 120<217.004 294.179> 588 120<216.424 295.893>
LayerCount: 2
Fore
SplineSet
441 256 m 1
 452.31205954 242.026279391 483.095238095 204 529.088737794 204 c 0
 565.554545898 204 588 227.903561078 588 256.618139705 c 0
 588 289.735957293 558.142948278 306 528.546698827 306 c 0
 505.818755525 306 475.347433534 296.408745335 441 256 c 1
161 256.387422707 m 0
 161 227.906229787 183.442590646 204 232.335775336 204 c 1
 232.335775336 204 265.904761905 204 308 256 c 1
 297.795657727 268.005108557 265.5 306 221.456955196 306 c 0
 193.448007922 306 161 290.63388392 161 256.387422707 c 0
374 176 m 1
 350.911595 151.422020484 299.787878788 97 211.996592307 97 c 0
 115.850478554 97 41 162.273260129 41 254.158158705 c 0
 41 351.104565788 124.323928491 412 239.684077618 412 c 1
 239.684077618 412 302.606060606 412 374 336 c 1
 393.149714253 355.748142823 447.696969697 412 535.411323656 412 c 0
 629.057143233 412 708 347.883129414 708 254.270010916 c 0
 708 165.939268005 637.714914288 97 509.838769257 97 c 0
 509.838767421 97 448.212121212 97 374 176 c 1
EndSplineSet
EndChar

StartChar: uni03A9
Encoding: 292 937 164
Width: 656
GlyphClass: 1
Flags: W
HStem: 0 115<35 172 484 621> 564 116<246.141 408.117>
VStem: 35 121<313.257 475.717> 353 268<0 115> 499 122<309.667 473.454>
LayerCount: 2
Fore
SplineSet
156 394.26014966 m 0xe8
 156 306.757515174 220.132315861 235.126978167 303 223 c 1
 303 0 l 1
 35 0 l 1
 35 115 l 1
 172 115 l 1
 172 139 l 1
 142.543506022 157.832840412 35 236.804456219 35 385.732716323 c 0
 35 551.943365455 168.951521367 680 327.998523327 680 c 0
 487.040829833 680 621 551.950926427 621 391.85357561 c 0xe8
 621 349.572221994 611.656664956 219.300160214 484 139 c 1
 484 115 l 1
 621 115 l 1
 621 0 l 1
 353 0 l 1
 353 223 l 1xf0
 439.638157469 235.376879638 499 309.258152307 499 393.575510672 c 0
 499 490.005920849 421.357159174 564 327.92582557 564 c 0
 235.598806342 564 156 491.744734139 156 394.26014966 c 0xe8
EndSplineSet
EndChar

StartChar: estimated
Encoding: 293 8494 165
Width: 604
GlyphClass: 1
Flags: W
HStem: -12 70<213.151 388.829> 249 66<178 426> 440 70<213.607 390.63>
VStem: 41 137<147.287 249 315 351.041>
LayerCount: 2
Fore
SplineSet
303.938821763 440 m 0
 272.542653947 440 222.293258592 432.978067561 178 394 c 1
 178 315 l 1
 426 315 l 1
 426 394 l 1
 391.333333333 424.666666667 350.333333333 440 303.938821763 440 c 0
518 103 m 1
 497.904405639 73.1436883783 429.505754273 -12 304.03740456 -12 c 0
 157.065194208 -12 41 104.830043805 41 248.740051395 c 0
 41 394.468813905 160.017428948 510 301.989666628 510 c 0
 440.779964733 510 563 399.589444673 563 249 c 1
 178 249 l 1
 178 104 l 1
 201.141379182 83.6355863195 242.662001371 58 300.12842892 58 c 0
 328.785505022 58 398.30466866 64.3749768118 450 128 c 1
 518 103 l 1
EndSplineSet
EndChar

StartChar: partialdiff
Encoding: 294 8706 166
Width: 597
GlyphClass: 1
Flags: W
HStem: 315 120<234.266 360.012> 560 120<172 331.847>
VStem: 41 151<151.555 275.071>
LayerCount: 2
Fore
SplineSet
192 211.869302705 m 0
 192 153.097782371 238.091787424 107 296.077814932 107 c 0
 354.380545407 107 399 153.60270308 399 211.87034133 c 0
 399 270.960731045 353.111576753 315 296.084684863 315 c 0
 239.379431952 315 192 271.456104353 192 211.869302705 c 0
172 680 m 1
 302.444395094 680 556 677.884744346 556 269.751155405 c 1
 556 269.751155405 556 133.478873239 470.135863654 53.6615070591 c 0
 338.393639924 -68.8030952815 41 -24.4538629956 41 204.679972129 c 0
 41 337.991634876 141.667554528 435 272.259576819 435 c 0
 311.666666667 435 349.5 426.166666667 386.461497083 403.649892582 c 0
 407.5 390.833333333 428.666666667 373.333333333 442 356 c 1
 428.968337298 561.248687557 264.930757698 565.575845462 172 560 c 1
 172 680 l 1
EndSplineSet
EndChar

StartChar: uni0394
Encoding: 295 916 167
Width: 715
GlyphClass: 1
Flags: W
HStem: 0 115<229 485> 660 20G<347.706 366.324>
DStem2: 41 0 229 115 0.421425 0.906863<183.517 512.239> 357 680 357 418 0.422521 -0.906353<237.465 566.172>
LayerCount: 2
Fore
SplineSet
229 115 m 1
 485 115 l 1
 357 418 l 1
 229 115 l 1
41 0 m 1
 357 680 l 1
 674 0 l 1
 41 0 l 1
EndSplineSet
EndChar

StartChar: product
Encoding: 296 8719 168
Width: 614
GlyphClass: 1
Flags: W
HStem: -161 21G<41 169 445 573> 552 116<169 445>
VStem: 41 128<-161 552> 445 128<-161 552>
LayerCount: 2
Fore
SplineSet
41 -161 m 1
 41 668 l 1
 573 668 l 1
 573 -161 l 1
 445 -161 l 1
 445 552 l 1
 169 552 l 1
 169 -161 l 1
 41 -161 l 1
EndSplineSet
EndChar

StartChar: pi
Encoding: 297 960 169
Width: 626
GlyphClass: 1
Flags: W
HStem: 0 105<519 602> 380 116<13 104 232 386 514 602>
VStem: 104 128<0 380> 386 128<109.461 380>
LayerCount: 2
Fore
SplineSet
524 0 m 2
 416.124722756 0 386 24.7984180486 386 118 c 2
 386 380 l 1
 232 380 l 1
 232 0 l 1
 104 0 l 1
 104 380 l 1
 13 380 l 1
 13 496 l 1
 602 496 l 1
 602 380 l 1
 514 380 l 1
 514 151 l 2
 514 116.345633163 523.976370572 105 569 105 c 2
 602 105 l 1
 602 0 l 1
 524 0 l 2
EndSplineSet
EndChar

StartChar: hungarumlaut
Encoding: 298 733 170
Width: 490
GlyphClass: 1
Flags: W
HStem: 574 153<146.003 151 349.003 354>
LayerCount: 2
Fore
SplineSet
391.848711894 727 m 0
 424.268099404 727 448 703.266125781 448 670.179015453 c 0
 448 657.711361717 444.630353787 639.941247651 429 629 c 2
 354 574 l 1
 240 574 l 1
 349 707 l 2
 360.333333333 720.333333333 374.666666667 727 391.848711894 727 c 0
188.848711894 727 m 0
 221.268099404 727 245 703.266125781 245 670.179015453 c 0
 245 657.711361717 241.630353787 639.941247651 226 629 c 2
 151 574 l 1
 37 574 l 1
 146 707 l 2
 157.333333333 720.333333333 171.666666667 727 188.848711894 727 c 0
EndSplineSet
EndChar

StartChar: tilde
Encoding: 299 732 171
Width: 444
GlyphClass: 1
Flags: W
HStem: 569 79<231.016 328.534> 607 82<130.768 222.016>
LayerCount: 2
Fore
SplineSet
407 650.105121079 m 0x40
 407 611.921677006 352.80338469 569 285.782909222 569 c 0x80
 222.721893473 569 205.108515884 607 169.852753112 607 c 0
 162.331454709 607 131.863227383 605.27054604 126 574 c 1
 37 574 l 1
 45.320621302 624.84824129 73.3785837701 689 162.311591211 689 c 0x40
 233.408484516 689 239.025797326 648 283.093731345 648 c 0x80
 327.161665364 648 331.92776553 689 367.884387161 689 c 0
 392.419528365 689 407 669.910119044 407 650.105121079 c 0x40
EndSplineSet
EndChar

StartChar: endash
Encoding: 300 8211 172
Width: 508
GlyphClass: 1
Flags: W
HStem: 185 128<41 467>
LayerCount: 2
Fore
SplineSet
41 185 m 1
 41 313 l 1
 467 313 l 1
 467 185 l 1
 41 185 l 1
EndSplineSet
EndChar

StartChar: emdash
Encoding: 301 8212 173
Width: 842
GlyphClass: 1
Flags: W
HStem: 185 128<41 801>
LayerCount: 2
Fore
SplineSet
41 185 m 1
 41 313 l 1
 801 313 l 1
 801 185 l 1
 41 185 l 1
EndSplineSet
EndChar

StartChar: trademark
Encoding: 302 8482 174
Width: 935
GlyphClass: 1
Flags: W
HStem: 301 367<162 271 415 522 787 894> 575 93<41 162 271 391>
VStem: 162 109<301 575> 415 107<301 558> 787 107<301 558>
DStem2: 654 432 703 301 0.310675 0.950516<0 161.085>
LayerCount: 2
Fore
SplineSet
162 301 m 1xb8
 162 575 l 1
 41 575 l 1
 41 668 l 1
 391 668 l 1
 391 575 l 1
 271 575 l 1x78
 271 301 l 1
 162 301 l 1xb8
415 301 m 1xb8
 415 668 l 1xb8
 588 668 l 1
 654 432 l 1
 721 668 l 1x78
 894 668 l 1
 894 301 l 1
 787 301 l 1
 787 558 l 1
 703 301 l 1
 606 301 l 1
 522 558 l 1
 522 301 l 1
 415 301 l 1xb8
EndSplineSet
EndChar

StartChar: uni2113
Encoding: 303 8467 175
Width: 504
GlyphClass: 1
Flags: W
HStem: -12 122<271.372 384.435> 573 107<266.477 331.899>
VStem: 106 151<122.216 157 265 279.344 373 565.861> 339 124<443.552 567.779>
LayerCount: 2
Fore
SplineSet
298.452078507 573 m 0
 277.206585594 573 257 562.436394379 257 501 c 2
 257 373 l 1
 311.666666667 414.333333333 339 463.666666667 339 517.834329731 c 0
 339 555.666666667 325.666666667 573 298.452078507 573 c 0
455 52 m 1
 428.204031499 27.640028635 371.332412504 -12 280.44122129 -12 c 0
 195.715658621 -12 114.530213824 22.4444530061 106 144 c 1
 106 157 l 1
 41 112 l 1
 41 218 l 1
 106 265 l 1
 106 452 l 2
 106 502.867307919 106.935194918 680 292.78035443 680 c 0
 343.056806179 680 463 667.036404996 463 531.24124211 c 0
 463 441.496324326 410.612613092 375.167022632 257 264 c 1
 257 191 l 2
 257 147.901954795 267.045353233 110 318.67476254 110 c 0
 340.167740258 110 367.930354864 116.568413327 398 141 c 1
 455 52 l 1
EndSplineSet
EndChar

StartChar: Lslash
Encoding: 304 321 176
Width: 586
GlyphClass: 1
Flags: W
HStem: 0 139<251 571> 416 122<289 411> 648 20G<93 251>
VStem: 93 158<139 226 441 668>
DStem2: 13 300 93 226 0.858253 0.513227<0 30.6815 276.629 401.119>
LayerCount: 2
Fore
SplineSet
93 0 m 1
 93 226 l 1
 13 178 l 1
 13 300 l 1
 93 347 l 1
 93 668 l 1
 251 668 l 1
 251 441 l 1
 411 538 l 1
 411 416 l 1
 251 321 l 1
 251 139 l 1
 571 139 l 1
 571 0 l 1
 93 0 l 1
EndSplineSet
EndChar

StartChar: lslash
Encoding: 305 322 177
Width: 322
GlyphClass: 1
Flags: W
HStem: 0 124<218.151 319> 485 20G<286.077 319> 648 20G<59 212>
VStem: 59 153<133.84 228 440 668>
LayerCount: 2
Fore
SplineSet
212 179 m 2
 212 136.435122596 224.506593974 124 277 124 c 2
 319 124 l 1
 319 0 l 1
 224 0 l 2
 97.8551036042 0 59 27.6188901361 59 139 c 2
 59 228 l 1
 5 195 l 1
 5 317 l 1
 59 349 l 1
 59 668 l 1
 212 668 l 1
 212 440 l 1
 319 505 l 1
 319 383 l 1
 212 319 l 1
 212 179 l 2
EndSplineSet
EndChar

StartChar: oslash
Encoding: 248 248 178
Width: 573
GlyphClass: 1
Flags: W
HStem: -12 118<224.252 350.02> 392 118<225.124 341.034>
VStem: 24 155<194.85 343.926> 394 155<151.575 315.212>
DStem2: 36 22 92 -26 0.653148 0.75723<0.229281 74.6133 227.563 451.228 599.899 662.943>
AnchorPoint: "Anchor-0" 287 496 basechar 0
LayerCount: 2
Fore
SplineSet
286.702272618 106 m 0
 333.163298312 106 394 128.959906374 394 251.358009819 c 0
 394 269.913036249 392.60189613 292.893363546 386 316 c 1
 223 126 l 1
 240.333333333 112.666666667 261.666666667 106 286.702272618 106 c 0
185 194 m 1
 342 377 l 1
 326 387 307.666666667 392 287.075428439 392 c 0
 257 392 231.5 381.333333333 213.288499815 362.832761716 c 0
 189.5 338.666666667 179 302 179 250.947711878 c 0
 179 228.666666667 181 210 185 194 c 1
549 247.705586149 m 0
 549 33.4721381543 378.65585794 -12 282.683698143 -12 c 0
 270.053250684 -12 202.35776723 -11.2124242926 138 27 c 1
 92 -26 l 1
 36 22 l 1
 82 75 l 1
 49.6616383248 113.326947171 24 169.208300393 24 252.338320181 c 0
 24 468.286414219 197.16788895 510 289.037911218 510 c 0
 327.452222327 510 378.299299059 502.706836 427 476 c 1
 469 524 l 1
 525 476 l 1
 486 431 l 1
 519.611979082 393.910919634 549 336.688955476 549 247.705586149 c 0
EndSplineSet
EndChar

StartChar: Oslash
Encoding: 216 216 179
Width: 763
GlyphClass: 1
Flags: W
HStem: -12 130<298.274 464.878> 549 130<299.1 465.487>
VStem: 35 167<222.877 445.234> 560 168<223.797 444.604>
DStem2: 70 36 126 -12 0.652053 0.758174<0.122628 79.6873 238.95 621.956 777.919 848.091>
AnchorPoint: "Anchor-0" 382 668 basechar 0
LayerCount: 2
Fore
SplineSet
272 157 m 1
 300.197699136 133.70624854 335.658666794 118 379.109989294 118 c 0
 460.610848738 118 560 173.257450573 560 334.057404674 c 0
 560 383.333333333 550.666666667 425 532 459 c 1
 272 157 l 1
383.600248395 549 m 0
 303.540050941 549 202 495.785601332 202 336.411210863 c 0
 202 301.758544271 206.800357958 258.890128093 226 217 c 1
 483 516 l 1
 454.333333333 538 420 549 383.600248395 549 c 0
728 333.343157131 m 0
 728 128.168895318 588.523546506 -12 382.114919476 -12 c 0
 327.620825147 -12 248.344990715 -2.22999381001 176 46 c 1
 126 -12 l 1
 70 36 l 1
 120 95 l 1
 84.7310953156 133.795795153 35 210.415777763 35 334.096837147 c 0
 35 543.268526772 177.241865874 679 382.364189756 679 c 0
 418.091361304 679 500.916332334 674.882325837 578 626 c 1
 623 679 l 1
 679 631 l 1
 635 579 l 1
 674.120132849 538.990773222 728 460.865325773 728 333.343157131 c 0
EndSplineSet
EndChar

StartChar: Thorn
Encoding: 222 222 180
Width: 615
GlyphClass: 1
Flags: W
HStem: 0 21G<44 203> 128 141<203 397.888> 425 137<203 400.807> 647 20G<44 203>
VStem: 44 159<0 128 269 425 562 667> 426 167<293.895 401.804>
LayerCount: 2
Fore
SplineSet
426 347.98051429 m 0
 426 398.732981733 400.773053832 425 296 425 c 2
 203 425 l 1
 203 269 l 1
 296 269 l 2
 396.562620005 269 426 293.15604983 426 347.98051429 c 0
593 345.687774296 m 0
 593 235.705617361 551.924162321 128 291 128 c 2
 203 128 l 1
 203 0 l 1
 44 0 l 1
 44 667 l 1
 203 667 l 1
 203 562 l 1
 291 562 l 2
 560.669865197 562 593 443.261474775 593 345.687774296 c 0
EndSplineSet
EndChar

StartChar: ae
Encoding: 230 230 181
Width: 883
GlyphClass: 1
Flags: W
HStem: -12 118<536.994 689.557> -12 103<195.849 322.972> 209 90<203.182 353 493 719> 396 114<534.818 682.024> 407 103<209.13 334.202>
VStem: 24 157<105.66 187.634> 353 139<150.163 209 300 354.302>
AnchorPoint: "Anchor-0" 447 496 basechar 0
LayerCount: 2
Fore
SplineSet
181 152.215546803 m 0x66
 181 135.237542071 185.708780741 91 254.968426166 91 c 0
 304.735925475 91 356 113.841367387 356 201 c 2
 356 209 l 1
 191.313691038 211.008369621 181 177.342479397 181 152.215546803 c 0x66
719 299 m 1
 717.248285485 383.08229672 641.423799383 396 608.444239642 396 c 0x36
 583.825422897 396 504.325723517 388.801699906 492 299 c 1
 719 299 l 1
405 67 m 1
 385.442687715 43.6266267815 338.897959184 -12 225.101793452 -12 c 0
 128.161752348 -12 24 28.3676870038 24 134.681687706 c 0
 24 290.920805138 248.960831631 300 353 300 c 1
 353 329 l 2
 353 360.085707598 346.837531458 407 274.126095361 407 c 0
 248.203618625 407 198.143244291 401.037166091 184 348 c 1
 56 394 l 1
 70.1173743613 422.234748723 126.578228385 510 290.372578645 510 c 0x6e
 393.54508287 510 432.80822118 475.178080333 447 462 c 1
 492.333333333 494 545 510 604.180704877 510 c 0
 765.617524428 510 871.337515214 390.940267759 861 209 c 1
 493 209 l 1
 498.845238573 107.682531399 600.266809593 106 612.453352941 106 c 0
 634.227971455 106 679.34836975 111.3715944 709 143 c 1
 829 99 l 1
 804.918075872 63.1858564251 739.211977977 -12 604.431543023 -12 c 0xb6
 524.666666667 -12 455.666666667 14.3333333333 405 67 c 1
EndSplineSet
EndChar

StartChar: eth
Encoding: 240 240 182
Width: 589
GlyphClass: 1
Flags: W
HStem: -12 113<219.136 350.599> 338 114<219.385 352.194> 604 122<163 274.496>
VStem: 24 156<143.497 295.83> 394 160<165.801 353.855 403 412.598>
DStem2: 223 530 271 483 0.705367 0.708842<0.542056 74.9531 220.453 287.627>
LayerCount: 2
Fore
SplineSet
180 223.23134165 m 0
 180 200.415668952 184.975452879 101 283.92194233 101 c 0
 351.551883284 101 394 147.44426292 394 219.799635516 c 0
 394 295.764441586 347.211219581 338 285.379186582 338 c 0
 215.675014749 338 180 284.325410496 180 223.23134165 c 0
554 314.83918938 m 0
 554 212.033784726 525.660269917 -12 286.664697612 -12 c 0
 138.408314125 -12 24 74.2105883858 24 218.496485723 c 0
 24 364.472127895 141.103696836 452 265.487144217 452 c 0
 282.00146519 452 344.416214401 450.457082751 396 403 c 1
 395.333333333 463.666666667 374.666666667 511.666666667 334 547 c 1
 271 483 l 1
 223 530 l 1
 276 583 l 1
 244 597 206.333333333 604 163 604 c 1
 163 726 l 1
 199.418030397 726 289.57716335 724.243131074 370 678 c 1
 426 734 l 1
 474 686 l 1
 426 639 l 1
 528.374145325 562.219391006 554 412.598306683 554 314.83918938 c 0
EndSplineSet
EndChar

StartChar: thorn
Encoding: 254 254 183
Width: 596
GlyphClass: 1
Flags: W
HStem: -161 21G<50 202> -12 118<267.471 365.392> 392 118<267.696 363.1> 648 20G<50 202>
VStem: 50 152<-161 70 428 668> 50 145<154.163 344.85> 414 158<157.622 335.39>
LayerCount: 2
Fore
SplineSet
300.837837211 392 m 0xf6
 269.672946072 392 195 377.087732447 195 248.604591958 c 0
 195 199.666666667 205.833333333 162.666666667 230.151761273 137.225849745 c 0
 249.166666667 117.333333333 275 106 301.598783205 106 c 0
 339.527188287 106 414 129.044287465 414 246.013208969 c 0
 414 353.882320175 350.663949173 392 300.837837211 392 c 0xf6
360.133177029 -12 m 0
 348.774787767 -12 250.673351455 -11.1222524253 202 70 c 1
 202 -161 l 1
 50 -161 l 1
 50 668 l 1
 202 668 l 1
 202 428 l 1xfa
 246.109157209 503.353143565 334.11072727 510 363.887773661 510 c 0
 475.753680781 510 572 416.190124222 572 246.869453154 c 0
 572 75.7563400151 473.705152571 -12 360.133177029 -12 c 0
EndSplineSet
EndChar

StartChar: multiply
Encoding: 215 215 184
Width: 539
GlyphClass: 1
Flags: W
DStem2: 44 112 135 22 0.706133 0.708079<0.531059 192.158 318.904 513.89> 270 337 180 248 0.706133 -0.708079<-195.692 -0.533004 126.746 317.667>
LayerCount: 2
Fore
SplineSet
135 22 m 1
 44 112 l 1
 180 248 l 1
 41 385 l 1
 132 476 l 1
 270 337 l 1
 407 476 l 1
 498 385 l 1
 359 248 l 1
 495 112 l 1
 404 22 l 1
 270 158 l 1
 135 22 l 1
EndSplineSet
EndChar

StartChar: divide
Encoding: 247 247 185
Width: 594
GlyphClass: 1
Flags: W
HStem: -12 159<244.082 349.92> 186 128<41 553> 351 159<243.146 350.853>
VStem: 218 158<13.7162 122.203 376.846 484.903>
LayerCount: 2
Fore
SplineSet
376 67.2090299849 m 0
 376 22.8722291612 339.446493414 -12 297.000052266 -12 c 0
 254.553771232 -12 218 22.8719660753 218 67.2096704903 c 0
 218 111.131800181 253.871749814 147 297.00070787 147 c 0
 340.131800181 147 376 111.128250186 376 67.2090299849 c 0
41 186 m 1
 41 314 l 1
 553 314 l 1
 553 186 l 1
 41 186 l 1
376 431.072495865 m 0
 376 385.872229161 339.446493414 351 297.000052266 351 c 0
 254.553771232 351 218 385.871966075 218 431.072240828 c 0
 218 476.581833392 255.055777918 510 296.999772376 510 c 0
 338.943061055 510 376 476.582958017 376 431.072495865 c 0
EndSplineSet
EndChar

StartChar: OE
Encoding: 306 338 186
Width: 1061
GlyphClass: 1
Flags: W
HStem: -12 130<299.958 466.116> 0 139<683 1039> 275 138<683 901> 528 140<683 1039> 549 131<298.832 466.361>
VStem: 35 167<221.388 444.949> 561 122<222.37 275 413 445.372>
LayerCount: 2
Fore
SplineSet
202 334.225055107 m 0xae
 202 170.903130976 304.198535667 118 382.047996548 118 c 0
 461.610848738 118 561 173.257450573 561 334.221319825 c 0
 561 494.215637937 462.804565677 549 382.051519604 549 c 0
 303.165192648 549 202 496.719196593 202 334.225055107 c 0xae
35 333.067787232 m 0
 35 544.058417695 177.357021259 680 382.415265239 680 c 0xae
 449 680 509 665.666666667 561 637 c 1
 561 668 l 1
 1039 668 l 1
 1039 528 l 1
 683 528 l 1
 683 413 l 1
 901 413 l 1
 901 275 l 1
 683 275 l 1
 683 139 l 1
 1039 139 l 1
 1039 0 l 1
 561 0 l 1x76
 561 31 l 1
 509 2.33333333333 449 -12 382.641931251 -12 c 0
 182.652753048 -12 35 118.18852792 35 333.067787232 c 0
EndSplineSet
EndChar

StartChar: oe
Encoding: 307 339 187
Width: 937
GlyphClass: 1
Flags: W
HStem: -12 118<222.732 351.656 592.338 743.771> 209 90<547 773> 392 118<223.106 350.877 584.875 742.435>
VStem: 24 155<152.609 343.217> 394 153<153.211 209 299 346.292>
LayerCount: 2
Fore
SplineSet
287.760015835 106 m 0
 333.163298312 106 394 128.959906374 394 251.211420518 c 0
 394 302 383.5 338.666666667 359.595685583 362.950414646 c 0
 341.5 381.333333333 316.333333333 392 286.666666667 392 c 0
 257 392 231.5 381.333333333 213.288499815 362.832761716 c 0
 189.5 338.666666667 179 302 179 249.791996672 c 0
 179 198 189.333333333 161 212.394524317 136.450990244 c 0
 230.666666667 117 256.333333333 106 287.760015835 106 c 0
773 299 m 1
 771.248349924 383.079203634 696.745783604 396 662.701417429 396 c 0
 634.883922191 396 559.12969555 387.373496147 547 299 c 1
 773 299 l 1
473 55 m 1
 444.480597687 28.7929816587 384.427804387 -12 291.459135896 -12 c 0
 191.018762779 -12 24 35.6133636012 24 249.99450756 c 0
 24 468.286414219 197.16788895 510 288.430912184 510 c 0
 332.319035679 510 412.255155025 500.353231733 475 441 c 1
 505.33661301 468.808561926 566.112324179 510 659.44935812 510 c 0
 817.430035811 510 925.397342855 391.993234241 915 209 c 1
 547 209 l 1
 554.739179601 108.390665192 651.792897457 106 668.221838912 106 c 0
 700.320484669 106 738.405155979 115.125843443 763 143 c 1
 884 99 l 1
 858.633728508 61.2758013714 793.01797671 -12 659.206843374 -12 c 0
 585.333333333 -12 521 10.3333333333 473 55 c 1
EndSplineSet
EndChar

StartChar: Aring
Encoding: 197 197 191
Width: 690
GlyphClass: 2
Flags: W
HStem: 0 21G<5 183.723 506.277 685> 119 128<260 430> 776 85<305.446 384.013>
VStem: 212 85<689.893 767.354> 391 86<689.137 769.21>
DStem2: 247.104 639.231 344 501 0.35419 0.935173<-362.236 -94.9502> 442.601 640.011 344 501 0.35419 -0.935173<95.0763 363.071> 442.601 640.011 430 247 0.35419 -0.935173<95.0763 363.071 498.003 537.862>
AnchorPoint: "Anchor-2" 654 0 basechar 0
AnchorPoint: "Anchor-1" 345 0 basechar 0
AnchorPoint: "Anchor-0" 345 796 basechar 0
LayerCount: 2
Fore
SplineSet
477 729.151723248 m 0
 477 705.642388164 470.926798034 671.635855333 442.600543607 640.011212926 c 1
 685 0 l 1
 513 0 l 1
 473 119 l 1
 217 119 l 1
 177 0 l 1
 5 0 l 1
 247.10390291 639.230858277 l 1
 231.22542641 656.683499665 212 686.572752372 212 728.769530431 c 0
 212 805.064451508 274.850487985 861 345.008630935 861 c 0
 416.069094182 861 477 803.616398771 477 729.151723248 c 0
260 247 m 1
 430 247 l 1
 344 501 l 1
 260 247 l 1
297 729.865817999 m 0
 297 703.388899038 318.389916739 682 344.865936748 682 c 0
 372.102019455 682 391 704.634573622 391 729.870631061 c 0
 391 755.898218397 370.897956521 776 344.870671311 776 c 0
 319.635032169 776 297 757.102453394 297 729.865817999 c 0
EndSplineSet
EndChar

StartChar: Ccedilla
Encoding: 199 199 202
Width: 673
GlyphClass: 2
Flags: W
HStem: -187 50<259.48 369.085> -12 130<366.504 458.405> 550 130<295.326 455.784>
VStem: 35 167<219.056 443.247> 370 94<-134.185 -86.2264>
AnchorPoint: "Anchor-1" 357 -187 basechar 0
AnchorPoint: "Anchor-0" 357 668 basechar 0
LayerCount: 2
Fore
SplineSet
464 -109.872842066 m 0
 464 -182.576268167 361.088343898 -187 334.868817278 -187 c 0
 317.518973382 -187 284.032824553 -185.062997227 249 -174 c 1
 265 -124 l 1
 265.557853027 -124.278926514 292.589107045 -137 325.556896992 -137 c 0
 344.0214098 -137 370 -133.009569063 370 -110.543554389 c 0
 370 -93.8938059084 355.731482337 -84 333.59941488 -84 c 0
 309.895613123 -84 302.358309377 -95.3489433609 289.854248722 -87.8086891541 c 0
 279.709029866 -81.6908742092 275.515132666 -68.5985178352 281 -59 c 2
 312.197647184 -8.60380070205 l 1
 242.590880076 0.0781648577054 35 49.7944919416 35 326.541370295 c 0
 35 549.74427212 170.033797532 680 365.518164842 680 c 0
 436.355517248 680 573.196501093 662.896011116 647 525 c 1
 507 474 l 1
 492.336642299 501.327166625 454.12934245 550 376.237608423 550 c 0
 285.143961963 550 202 483.429769873 202 330.681551017 c 0
 202 160.215618997 305.550833908 118 374.097619199 118 c 0
 405.431200183 118 476.601943468 126.821024745 512 193 c 1
 651 142 l 1
 625.353897602 96.478168243 545.701332129 -12 368.929931382 -12 c 0
 368.166534201 -12 367.334465312 -11.9979768903 366.503793331 -11.9939306708 c 2
 344 -48 l 1
 353.333333333 -46 364.666666667 -45 374.156623386 -45 c 0
 385.859199765 -45 464 -46.5206683432 464 -109.872842066 c 0
EndSplineSet
EndChar

StartChar: ccedilla
Encoding: 231 231 203
Width: 520
GlyphClass: 2
Flags: W
HStem: -187 50<177.48 287.085> -11.9266 117.927<284.546 350.567> 392 118<223.967 350.509>
VStem: 24 155<157.119 344.661> 288 94<-134.185 -86.2264>
AnchorPoint: "Anchor-1" 275 -187 basechar 0
AnchorPoint: "Anchor-0" 280 496 basechar 0
LayerCount: 2
Fore
SplineSet
382 -109.872842066 m 0
 382 -182.576268167 279.088343898 -187 252.868817278 -187 c 0
 235.518973382 -187 202.032824553 -185.062997227 167 -174 c 1
 183 -124 l 1
 183.557853027 -124.278926514 210.589107045 -137 243.556896992 -137 c 0
 262.0214098 -137 288 -133.009569063 288 -110.543554389 c 0
 288 -93.8938059084 273.731482337 -84 251.59941488 -84 c 0
 227.895613123 -84 220.358309377 -95.3489433609 207.854248722 -87.8086891541 c 0
 197.709029866 -81.6908742092 193.515132666 -68.5985178352 199 -59 c 2
 230.023319844 -8.88540640517 l 1
 95.8168977348 9.45994943703 24 112.651695037 24 247.458917871 c 0
 24 410.283983391 128.771422509 510 277.795457311 510 c 0
 339.555187003 510 449.018458308 492.873719256 502 380 c 1
 375 334 l 1
 362.894560761 366.281171303 337.426334875 392 289.775888169 392 c 0
 255.729372015 392 179 378.870064554 179 254.46549297 c 0
 179 212.44666898 187.753399512 106 288.236463191 106 c 0
 319.941885733 106 354.489576088 116.597744149 376 153 c 1
 500 108 l 1
 474.847145542 62.7248619758 414.597144049 -9.01363212789 284.54588813 -11.926578992 c 1
 262 -48 l 1
 271.333333333 -46 282.666666667 -45 292.156623386 -45 c 0
 303.859199765 -45 382 -46.5206683432 382 -109.872842066 c 0
EndSplineSet
EndChar

StartChar: Eth
Encoding: 208 208 248
Width: 773
GlyphClass: 2
Flags: W
HStem: 0 133<289 480.617> 275 137<13 131 289 366> 537 131<289 477.922>
VStem: 131 158<133 275 412 537> 575 163<222.856 447.488>
AnchorPoint: "Anchor-1" 430 0 basechar 0
AnchorPoint: "Anchor-0" 420 668 basechar 0
LayerCount: 2
Fore
SplineSet
575 335.451626745 m 0
 575 458.161031823 528.997453443 537 354 537 c 2
 289 537 l 1
 289 412 l 1
 366 412 l 1
 366 275 l 1
 289 275 l 1
 289 133 l 1
 354 133 l 2
 513.440150039 133 575 193.501530892 575 335.451626745 c 0
738 331.716324179 m 0
 738 216.510063955 708.392316982 0 351 0 c 2
 131 0 l 1
 131 275 l 1
 13 275 l 1
 13 412 l 1
 131 412 l 1
 131 668 l 1
 351 668 l 2
 700.721399684 668 738 460.988085642 738 331.716324179 c 0
EndSplineSet
EndChar

StartChar: one.tf
Encoding: 316 -1 250
Width: 632
GlyphClass: 1
Flags: W
HStem: 0 124<101 253 404 532> 448 123<101 233.418> 648 20G<272.285 404>
VStem: 253 151<124 448>
LayerCount: 2
Fore
SplineSet
101 571 m 1
 216.269059322 571 255.569707042 584.424267604 289 668 c 1
 404 668 l 1
 404 124 l 1
 532 124 l 1
 532 0 l 1
 101 0 l 1
 101 124 l 1
 253 124 l 1
 253 448 l 1
 101 448 l 1
 101 571 l 1
EndSplineSet
Substitution2: "'pnum' Proportional Numbers lookup 13 subtable" one
Substitution2: "'aalt' Access All Alternates lookup 0 subtable" one
EndChar

StartChar: Aogonek
Encoding: 327 260 261
Width: 690
GlyphClass: 2
Flags: W
HStem: -174 76<592.393 684.287> 0 21G<5 183.723> 119 128<260 430> 648 20G<250.425 439.575>
VStem: 464 126<-94.5449 -39.3115>
DStem2: 5 0 177 0 0.35419 0.935173<60.9207 186.374 321.306 484.629> 432 668 344 501 0.35419 -0.935173<125.005 393> 685 0 473 119 0.35419 -0.935173<-558.903 -321.306 -186.374 -60.9207>
AnchorPoint: "Anchor-2" 654 0 basechar 0
AnchorPoint: "Anchor-1" 345 0 basechar 0
AnchorPoint: "Anchor-0" 345 668 basechar 0
LayerCount: 2
Fore
SplineSet
260 247 m 1
 430 247 l 1
 344 501 l 1
 260 247 l 1
685 -164 m 1
 669.512190454 -169.631930744 630.430717741 -174 599.628093682 -174 c 0
 467.985650121 -174 464 -94.2178097138 464 -80.721020722 c 0
 464 -31.9568994895 516.028231005 -8.68089382619 544 0 c 1
 513 0 l 1
 473 119 l 1
 217 119 l 1
 177 0 l 1
 5 0 l 1
 258 668 l 1
 432 668 l 1
 685 0 l 1
 603.590736509 -40.7046317456 590 -49.6896784026 590 -67.8252382474 c 0
 590 -93.8219409962 617.926569861 -98 635.985917902 -98 c 0
 658.623357382 -98 670.389120897 -91.4351465171 685 -89 c 1
 685 -164 l 1
EndSplineSet
EndChar

StartChar: aogonek
Encoding: 328 261 262
Width: 553
GlyphClass: 2
Flags: W
HStem: -174 76<427.393 519.287> -12 104<195.999 303.382> 220 90<236.036 353> 407 103<207.539 334.417>
VStem: 24 157<106.603 185.956> 299 126<-94.5449 -39.3115> 356 147<125.194 220 308.98 386.048>
AnchorPoint: "Anchor-2" 518 0 basechar 0
AnchorPoint: "Anchor-1" 277 0 basechar 0
AnchorPoint: "Anchor-0" 285 496 basechar 0
LayerCount: 2
Fore
SplineSet
181 152.726375119 m 0xfa
 181 110.759880006 213.517822857 92 254.341263199 92 c 0
 281 92 306 100 322.846584384 113.477267507 c 0
 346 132 356 162.666666667 356 208 c 2
 356 220 l 1
 189.505923714 205.247360329 181 174.189982295 181 152.726375119 c 0xfa
520 -164 m 1
 504.512190454 -169.631930744 465.430717741 -174 434.628093682 -174 c 0
 302.985650121 -174 299 -94.2178097138 299 -80.721020722 c 0xfc
 299 -31.9568994895 351.028231005 -8.68089382619 379 0 c 1
 361 60 l 1
 348.879904752 43.1184387618 309.307692308 -12 206.583166957 -12 c 0
 109.927484692 -12 24 36.7981550514 24 137.87392342 c 0
 24 209.534187305 67.1911534508 289.159771606 353 310 c 1
 353 386.840790556 328.856148923 407 276.615422795 407 c 0
 248.203618625 407 198.143244291 401.037166091 184 348 c 1
 56 394 l 1
 70.1173743613 422.234748723 126.578228385 510 290.229473159 510 c 0
 487.808494648 510 503 382.071992697 503 303 c 2
 503 194 l 2xfa
 503 185.960909603 503.335309991 73.3246360396 520 0 c 1
 438.590736509 -40.7046317456 425 -49.6896784026 425 -67.8252382474 c 0xfc
 425 -93.8219409962 452.926569861 -98 470.985917902 -98 c 0
 493.623357382 -98 505.389120897 -91.4351465171 520 -89 c 1
 520 -164 l 1
EndSplineSet
EndChar

StartChar: Eogonek
Encoding: 333 280 267
Width: 580
GlyphClass: 2
Flags: W
HStem: -174 76<429.393 521.287> 0 139<202 381 480.331 558> 274 139<202 419> 529 139<202 558>
VStem: 44 158<139 274 413 529> 301 126<-94.5449 -39.3115>
AnchorPoint: "Anchor-2" 522 0 basechar 0
AnchorPoint: "Anchor-1" 290 0 basechar 0
AnchorPoint: "Anchor-0" 303 668 basechar 0
LayerCount: 2
Fore
SplineSet
522 -164 m 1
 506.512190454 -169.631930744 467.430717741 -174 436.628093682 -174 c 0
 304.985650121 -174 301 -94.2178097138 301 -80.721020722 c 0
 301 -31.9568994895 353.028231005 -8.68089382619 381 0 c 1
 44 0 l 1
 44 668 l 1
 558 668 l 1
 558 529 l 1
 202 529 l 1
 202 413 l 1
 419 413 l 1
 419 274 l 1
 202 274 l 1
 202 139 l 1
 558 139 l 1
 558 0 l 1
 522 0 l 1
 440.590736509 -40.7046317456 427 -49.6896784026 427 -67.8252382474 c 0
 427 -93.8219409962 454.926569861 -98 472.985917902 -98 c 0
 495.623357382 -98 507.389120897 -91.4351465171 522 -89 c 1
 522 -164 l 1
EndSplineSet
EndChar

StartChar: eogonek
Encoding: 334 281 268
Width: 566
GlyphClass: 2
Flags: W
HStem: -164 76<311.393 403.287> 210 90<177 403> 397 113<221.795 364.45>
VStem: 24 153<150.614 210 300 351.848> 183 126<-84.3758 -29.1421>
AnchorPoint: "Anchor-2" 509 10 basechar 0
AnchorPoint: "Anchor-1" 283 0 basechar 0
AnchorPoint: "Anchor-0" 283 496 basechar 0
LayerCount: 2
Fore
SplineSet
403 300 m 1
 401.247186639 384.13504133 325.17206737 397 292.026073195 397 c 0
 264.883922191 397 189.12969555 388.373496147 177 300 c 1
 403 300 l 1
404 -154 m 1
 388.512190454 -159.631930744 349.430717741 -164 318.628093682 -164 c 0
 186.985650121 -164 183 -84.2178097138 183 -70.0842984587 c 0
 183 -39.8567570823 201.23075615 -21.9590915122 228.176965765 -5.70611450486 c 1
 178.019868966 4.13950024965 24 50.6822762482 24 241.691649886 c 0
 24 418.442185287 155.883014288 510 293.224133032 510 c 0
 451.594470039 510 554.128271458 388.257577656 544 210 c 1
 177 210 l 1
 184.387079273 113.967969453 272.488160773 106 296.62454196 106 c 0
 313.35626916 106 362.975371391 109.828995875 392 143 c 1
 513 99 l 1
 473.947116577 41.9227088438 428.940515305 20.2582566629 388.167951278 0.71426014786 c 0
 322.768355945 -30.6345032614 309 -39.6552187547 309 -57.8743900214 c 0
 309 -83.8219409962 336.926569861 -88 354.985917902 -88 c 0
 377.623357382 -88 389.389120897 -81.4351465171 404 -79 c 1
 404 -154 l 1
EndSplineSet
EndChar

StartChar: Iogonek
Encoding: 341 302 275
Width: 458
GlyphClass: 2
Flags: W
HStem: -174 76<238.393 330.287> 0 124<57 151 309.847 401> 544 124<57 151 309 401>
VStem: 57 344<0 124 544 668> 110 126<-94.5449 -39.3115>
AnchorPoint: "Anchor-2" 331 0 basechar 0
AnchorPoint: "Anchor-1" 229 0 basechar 0
AnchorPoint: "Anchor-0" 231 668 basechar 0
LayerCount: 2
Fore
SplineSet
331 -164 m 1xe8
 315.512190454 -169.631930744 276.430717741 -174 245.628093682 -174 c 0
 113.985650121 -174 110 -94.2178097138 110 -80.721020722 c 0xe8
 110 -31.9568994895 162.028231005 -8.68089382619 190 0 c 1
 57 0 l 1
 57 124 l 1
 151 124 l 1
 151 544 l 1
 57 544 l 1
 57 668 l 1
 401 668 l 1
 401 544 l 1
 309 544 l 1
 309 124 l 1
 401 124 l 1
 401 0 l 1xf0
 331 0 l 1
 249.590736509 -40.7046317456 236 -49.6896784026 236 -67.8252382474 c 0
 236 -93.8219409962 263.926569861 -98 281.985917902 -98 c 0
 304.623357382 -98 316.389120897 -91.4351465171 331 -89 c 1
 331 -164 l 1xe8
EndSplineSet
EndChar

StartChar: iogonek
Encoding: 342 303 276
Width: 315
GlyphClass: 1
Flags: W
HStem: -174 76<178.393 270.287> 380 116<24 118> 578 180<136.703 253.506>
VStem: 50 126<-94.5449 -39.3115> 105 180<609.703 726.506> 118 153<0 380>
LayerCount: 2
Fore
SplineSet
285 668.870537568 m 0xe8
 285 619.422774819 247.362728092 578 195.867894464 578 c 0
 145.163127462 578 105 618.161456263 105 668.867622583 c 0
 105 720.362944335 146.422997475 758 195.870009811 758 c 0
 246.12290145 758 285 719.126142071 285 668.870537568 c 0xe8
271 -164 m 1xe4
 255.512190454 -169.631930744 216.430717741 -174 185.628093682 -174 c 0
 53.985650121 -174 50 -94.2178097138 50 -80.721020722 c 0xf0
 50 -31.9568994895 102.028231005 -8.68089382619 130 0 c 1
 118 0 l 1
 118 380 l 1
 24 380 l 1
 24 496 l 1
 271 496 l 1
 271 0 l 1xe4
 189.590736509 -40.7046317456 176 -49.6896784026 176 -67.8252382474 c 0xf0
 176 -93.8219409962 203.926569861 -98 221.985917902 -98 c 0
 244.623357382 -98 256.389120897 -91.4351465171 271 -89 c 1
 271 -164 l 1xe4
EndSplineSet
EndChar

StartChar: Uogonek
Encoding: 355 370 289
Width: 663
GlyphClass: 2
Flags: W
HStem: -174 76<347.393 439.287> 648 20G<44 202 461 619>
VStem: 44 158<167.044 668> 219 126<-94.1026 -39.7742> 461 158<166.985 668>
AnchorPoint: "Anchor-2" 440 0 basechar 0
AnchorPoint: "Anchor-1" 332 0 basechar 0
AnchorPoint: "Anchor-0" 332 668 basechar 0
LayerCount: 2
Fore
SplineSet
440 -164 m 1
 424.512190454 -169.631930744 385.430717741 -174 354.628093682 -174 c 0
 222.985650121 -174 219 -94.2178097138 219 -79.0479575759 c 0
 219 -66.6753381581 221.651305573 -36.2560478298 275.814721789 -9.3099798854 c 1
 163.876349086 2.07364266738 44 49.3420451765 44 292 c 2
 44 668 l 1
 202 668 l 1
 202 279 l 2
 202 154.551887025 241.682963466 117 332.321907077 117 c 0
 418.596846783 117 461 151.022907477 461 279 c 2
 461 668 l 1
 619 668 l 1
 619 292 l 2
 619 64.6190831407 511.576857865 16.7117080712 438.306337181 -0.84760754139 c 1
 359.297976162 -40.4244147505 345 -49.5532016126 345 -68.0172554442 c 0
 345 -93.8219409962 372.926569861 -98 390.985917902 -98 c 0
 413.623357382 -98 425.389120897 -91.4351465171 440 -89 c 1
 440 -164 l 1
EndSplineSet
EndChar

StartChar: uogonek
Encoding: 356 371 290
Width: 570
GlyphClass: 1
Flags: W
HStem: -174 76<426.393 518.287> -12 118<226.429 309.126> 476 20G<50 202 366 519>
VStem: 50 152<128.729 496> 298 126<-94.696 -39.5559> 366 153<133.964 496>
LayerCount: 2
Fore
SplineSet
519 -164 m 1xf4
 503.512190454 -169.631930744 464.430717741 -174 433.628093682 -174 c 0
 301.985650121 -174 298 -94.2178097138 298 -78.1858955351 c 0xf8
 298 -44.6164903326 315.474940493 -25.989042808 386.46295973 1.79013423448 c 1
 366 70 l 1
 318.096768096 -10.5645263847 254.828985926 -12 233.695847864 -12 c 0
 117.078922334 -12 50 31.7109664558 50 198 c 2
 50 496 l 1
 202 496 l 1
 202 219 l 2
 202 162.696164659 209.446179164 106 281.137007243 106 c 0
 342.776753351 106 366 147.912944263 366 235 c 2
 366 496 l 1
 519 496 l 1
 519 0 l 1xf4
 437.590736509 -40.7046317456 424 -49.6896784026 424 -67.8252382474 c 0xf8
 424 -93.8219409962 451.926569861 -98 469.985917902 -98 c 0
 492.623357382 -98 504.389120897 -91.4351465171 519 -89 c 1
 519 -164 l 1xf4
EndSplineSet
EndChar

StartChar: Hbar
Encoding: 365 294 299
Width: 740
GlyphClass: 2
Flags: W
HStem: 0 21G<75 233 508 666> 274 139<233 508> 496 98<15 75 233 508 666 725> 648 20G<75 233 508 666>
VStem: 75 158<0 274 413 496 594 668> 508 158<0 274 413 496 594 668>
AnchorPoint: "Anchor-1" 371 0 basechar 0
AnchorPoint: "Anchor-0" 371 668 basechar 0
LayerCount: 2
Fore
SplineSet
233 413 m 1
 508 413 l 1
 508 496 l 1
 233 496 l 1
 233 413 l 1
75 0 m 1
 75 496 l 1
 15 496 l 1
 15 594 l 1
 75 594 l 1
 75 668 l 1
 233 668 l 1
 233 594 l 1
 508 594 l 1
 508 668 l 1
 666 668 l 1
 666 594 l 1
 725 594 l 1
 725 496 l 1
 666 496 l 1
 666 0 l 1
 508 0 l 1
 508 274 l 1
 233 274 l 1
 233 0 l 1
 75 0 l 1
EndSplineSet
EndChar

StartChar: hbar
Encoding: 366 295 300
Width: 629
GlyphClass: 1
Flags: W
HStem: 0 21G<107 259 427 579> 392 118<328.011 459.797> 555 78<13 107 259 382>
VStem: 107 152<0 355.167 430 555 633 698> 427 152<0 371.55>
LayerCount: 2
Fore
SplineSet
353.207303773 392 m 0
 308.201621611 392 259 373.018159015 259 255 c 2
 259 0 l 1
 107 0 l 1
 107 555 l 1
 13 555 l 1
 13 633 l 1
 107 633 l 1
 107 698 l 1
 259 698 l 1
 259 633 l 1
 382 633 l 1
 382 555 l 1
 259 555 l 1
 259 430 l 1
 265.441629947 440.609743443 311.415786099 510 427.98863172 510 c 0
 491.606316935 510 579 489.333857345 579 302 c 2
 579 0 l 1
 427 0 l 1
 427 264 l 2
 427 363.498645927 408.355451473 392 353.207303773 392 c 0
EndSplineSet
EndChar

StartChar: dcroat
Encoding: 385 273 319
Width: 632
GlyphClass: 1
Flags: W
HStem: -12 118<234.019 332.044> 0 21G<412.03 563> 392 118<231.47 328.173> 555 78<243 394 546 612>
VStem: 24 158<159.771 340.321> 394 152<428 555 633 698> 401 145<154.121 343.173>
LayerCount: 2
Fore
SplineSet
182 251.304490737 m 0xba
 182 142.890709956 245.910783519 106 294.694598458 106 c 0
 321.333333333 106 346.833333333 117 365.569514888 136.024430502 c 0
 390.166666667 161 401 197.666666667 401 248.666666667 c 0
 401 299.666666667 390.166666667 336.166666667 365.719131515 361.36643367 c 0
 346.833333333 380.833333333 321.333333333 392 294.405775507 392 c 0
 252.948856683 392 182 365.531845548 182 251.304490737 c 0xba
398 67 m 1
 375.854676298 36.2822929292 327.591715476 -12 240.733087633 -12 c 0
 117.715458596 -12 24 84.8493394389 24 251.902803907 c 0
 24 425.435820735 125.126387904 510 233.285534957 510 c 0
 261.851722605 510 349.452962685 504.101188747 394 428 c 1
 394 555 l 1
 243 555 l 1
 243 633 l 1
 394 633 l 1
 394 698 l 1
 546 698 l 1
 546 633 l 1
 612 633 l 1
 612 555 l 1
 546 555 l 1xbc
 546 194 l 2
 546 156.078710167 548.115513792 81.8646741453 563 0 c 1
 418 0 l 1x7a
 398 67 l 1
EndSplineSet
EndChar

StartChar: Scedilla
Encoding: 393 350 327
Width: 619
GlyphClass: 2
Flags: W
HStem: -187 50<231.48 341.085> 553 127<211.639 382.558>
VStem: 28 162<447.501 530.256> 342 94<-134.185 -86.2264>
DStem2: 266 421 231 285 0.980581 -0.196116<-69.2049 187.544>
AnchorPoint: "Anchor-1" 329 -187 basechar 0
AnchorPoint: "Anchor-0" 304 668 basechar 0
LayerCount: 2
Fore
SplineSet
436 -109.872842066 m 0
 436 -182.576268167 333.088343898 -187 306.868817278 -187 c 0
 289.518973382 -187 256.032824553 -185.062997227 221 -174 c 1
 237 -124 l 1
 237.557853027 -124.278926514 264.589107045 -137 297.556896992 -137 c 0
 316.0214098 -137 342 -133.009569063 342 -110.543554389 c 0
 342 -93.8938059084 327.731482337 -84 305.59941488 -84 c 0
 281.895613123 -84 274.358309377 -95.3489433609 261.854248722 -87.8086891541 c 0
 251.709029866 -81.6908742092 247.515132666 -68.5985178352 253 -59 c 2
 282.690852017 -11.0378544341 l 1
 210.624003135 -6.50045224528 77.7197514013 20.9490286418 25 157 c 1
 169 209 l 1
 180.753233686 168.703198792 215.147744555 115 312.67582169 115 c 0
 341.389730689 115 434 119.655062012 434 200.482088646 c 1
 434 200.482088646 434 246.407407407 312 269 c 2
 231 285 l 2
 121.004909088 307.406407408 28 359.816019388 28 474.506174872 c 0
 28 634.563255377 209.135415421 680 310.403622236 680 c 0
 360.939713672 680 513.011929085 668.684747028 567 535 c 1
 424 483 l 1
 415.261754171 505.853873707 386.400437474 553 301.043206351 553 c 0
 279.74799243 553 190 550.065531904 190 489.979566148 c 0
 190 451.460770944 226.882813302 429.053538438 266 421 c 2
 356 403 l 2
 529.787372766 369.090268729 596 312.521760887 596 214.137474303 c 0
 596 85.6910824782 483.141790195 -1.34446025729 339.029841319 -11.15225389 c 1
 316 -48 l 1
 325.333333333 -46 336.666666667 -45 346.156623386 -45 c 0
 357.859199765 -45 436 -46.5206683432 436 -109.872842066 c 0
EndSplineSet
Substitution2: "'locl' Localized Forms in Latin lookup 8 subtable" uni0218
Substitution2: "'aalt' Access All Alternates lookup 0 subtable" uni0218
EndChar

StartChar: scedilla
Encoding: 394 351 328
Width: 534
GlyphClass: 2
Flags: W
HStem: -187 50<169.48 279.085> -11.8289 110.829<276.607 349.15> 399 111<185.843 338.601>
VStem: 33 145<332.073 389.267> 280 94<-134.185 -86.2264> 361 146<115.93 173.392>
DStem2: 331 302 195 205 0.983353 -0.181706<-155.936 50.552>
AnchorPoint: "Anchor-1" 267 -187 basechar 0
AnchorPoint: "Anchor-0" 268 496 basechar 0
LayerCount: 2
Fore
SplineSet
374 -109.872842066 m 0xf8
 374 -182.576268167 271.088343898 -187 244.868817278 -187 c 0
 227.518973382 -187 194.032824553 -185.062997227 159 -174 c 1
 175 -124 l 1
 175.557853027 -124.278926514 202.589107045 -137 235.556896992 -137 c 0
 254.0214098 -137 280 -133.009569063 280 -110.543554389 c 0xf8
 280 -93.8938059084 265.731482337 -84 243.59941488 -84 c 0
 219.895613123 -84 212.358309377 -95.3489433609 199.854248722 -87.8086891541 c 0
 189.709029866 -81.6908742092 185.515132666 -68.5985178352 191 -59 c 2
 221.370164237 -9.94050392487 l 1
 157.658332326 -3.5580824179 63.9828482502 22.1056347755 21 114 c 1
 150 161 l 1
 157.045701792 141.143931313 182.009585995 99 262.44181484 99 c 0
 275.659198475 99 361 100.138061757 361 143.956695623 c 0
 361 173.002483496 323.502235845 183.569403467 284 190 c 2
 195 205 l 2
 139.37782101 214.270363165 33 245.988799982 33 353.177230509 c 0
 33 470.058642596 159.487079742 510 262.095922437 510 c 0
 322.905258604 510 435.453935585 495.972064303 481 400 c 1
 353 353 l 1
 350.03823833 364.423937871 341.074074074 399 257.334445607 399 c 0
 205.333333333 399 178 385.666666667 178 359.908582208 c 0
 178 337.190302197 199.262599945 326.224981828 239 319 c 2
 331 302 l 2
 476.76982023 276.085365292 507 226.953105586 507 163.913159774 c 0xf4
 507 45.5116378853 400.359140472 -8.44137523844 276.606918839 -11.8289298583 c 1
 254 -48 l 1
 263.333333333 -46 274.666666667 -45 284.156623386 -45 c 0
 295.859199765 -45 374 -46.5206683432 374 -109.872842066 c 0xf8
EndSplineSet
Substitution2: "'locl' Localized Forms in Latin lookup 8 subtable" uni0219
Substitution2: "'aalt' Access All Alternates lookup 0 subtable" uni0219
EndChar

StartChar: uni0162
Encoding: 396 354 330
Width: 617
GlyphClass: 2
Flags: W
HStem: -187 50<211.48 321.085> 529 139<15 230 387 602>
VStem: 230 157<0 529> 322 94<-134.185 -86.2264>
AnchorPoint: "Anchor-1" 286 -251 basechar 0
AnchorPoint: "Anchor-0" 309 668 basechar 0
LayerCount: 2
Fore
SplineSet
416 -109.872842066 m 0xd0
 416 -182.576268167 313.088343898 -187 286.868817278 -187 c 0
 269.518973382 -187 236.032824553 -185.062997227 201 -174 c 1
 217 -124 l 1
 217.557853027 -124.278926514 244.589107045 -137 277.556896992 -137 c 0
 296.0214098 -137 322 -133.009569063 322 -110.543554389 c 0xd0
 322 -93.8938059084 307.731482337 -84 285.59941488 -84 c 0
 261.895613123 -84 254.358309377 -95.3489433609 241.854248722 -87.8086891541 c 0
 231.709029866 -81.6908742092 227.515132666 -68.5985178352 233 -59 c 2
 269.523809524 -3.5527136788e-15 l 1
 230 0 l 1
 230 529 l 1
 15 529 l 1
 15 668 l 1
 602 668 l 1
 602 529 l 1
 387 529 l 1
 387 0 l 1xe0
 326 0 l 1
 296 -48 l 1
 305.333333333 -46 316.666666667 -45 326.156623386 -45 c 0
 337.859199765 -45 416 -46.5206683432 416 -109.872842066 c 0xd0
EndSplineSet
Substitution2: "'locl' Localized Forms in Latin lookup 8 subtable" uni021A
Substitution2: "'aalt' Access All Alternates lookup 0 subtable" uni021A
EndChar

StartChar: acutecomb
Encoding: 398 769 332
Width: 0
GlyphClass: 4
Flags: W
HStem: 574 153<108.49 141.966>
VStem: 0 208
AnchorPoint: "Anchor-4" 104 727 basemark 0
AnchorPoint: "Anchor-4" 68 496 mark 0
AnchorPoint: "Anchor-0" 68 496 mark 0
LayerCount: 2
Fore
SplineSet
151.261988055 727 m 0
 184.268099404 727 208 703.266125781 208 670.561633003 c 0
 208 653.666666667 201.666666667 639.666666667 187.463960256 628.341171882 c 0
 184 625.578947368 184 625.578947368 114 574 c 1
 0 574 l 1
 1.11105188387 575.34913443 109.888948116 707.65086557 113.034545275 711.430075655 c 0
 121 721 134.666666667 727 151.261988055 727 c 0
EndSplineSet
Substitution2: "'case' Case-Sensitive Forms lookup 15 subtable" acutecomb.case
Substitution2: "Single Substitution lookup 7 subtable" acutecomb.case
Substitution2: "Single Substitution lookup 6 subtable" acutecomb.case
Substitution2: "Single Substitution lookup 4 subtable" acutecomb.case
Substitution2: "Single Substitution lookup 3 subtable" acutecomb.case
Substitution2: "'aalt' Access All Alternates lookup 0 subtable" acutecomb.case
EndChar

StartChar: acutecomb.case
Encoding: 399 -1 333
Width: 0
GlyphClass: 4
Flags: W
HStem: 731 154<118.306 153.872>
VStem: 0 218
AnchorPoint: "Anchor-4" 109 885 basemark 0
AnchorPoint: "Anchor-4" 70 668 mark 0
AnchorPoint: "Anchor-0" 70 668 mark 0
LayerCount: 2
Fore
SplineSet
162.435028183 885 m 0
 192.981872138 885 218 859.981095056 218 826.649446791 c 0
 218 821.901248275 217.492309586 804.492309586 199 786 c 1
 175.835823418 770.150826549 143.023437873 744.280427906 125 731 c 1
 0 731 l 1
 1.18570645838 732.343800653 117.814293542 863.656199347 126.033018367 871.964415813 c 0
 132.333333333 878.333333333 146.666666667 885 162.435028183 885 c 0
EndSplineSet
EndChar

StartChar: uni0306
Encoding: 400 774 334
Width: 0
GlyphClass: 4
Flags: W
HStem: 569 77<97.257 190.123>
VStem: 0 85<658.843 689> 202 85<659.154 689>
AnchorPoint: "Anchor-4" 144 689 basemark 0
AnchorPoint: "Anchor-4" 144 496 mark 0
AnchorPoint: "Anchor-0" 144 496 mark 0
LayerCount: 2
Fore
SplineSet
287 689 m 1
 275.380781356 623.157761016 218.253882289 569 143.795044068 569 c 0
 69.9794412531 569 11.7836318739 622.226086048 0 689 c 1
 85 689 l 1
 88.9034953704 673.386018519 107.907316005 646 143.840909127 646 c 0
 180.819314879 646 198.500433628 675.001734513 202 689 c 1
 287 689 l 1
EndSplineSet
Substitution2: "'case' Case-Sensitive Forms lookup 15 subtable" uni0306.case
Substitution2: "Single Substitution lookup 7 subtable" uni0306.case
Substitution2: "Single Substitution lookup 6 subtable" uni0306.case
Substitution2: "Single Substitution lookup 4 subtable" uni0306.case
Substitution2: "Single Substitution lookup 3 subtable" uni0306.case
Substitution2: "'aalt' Access All Alternates lookup 0 subtable" uni0306.case
EndChar

StartChar: uni030C
Encoding: 402 780 336
Width: 0
GlyphClass: 4
Flags: W
HStem: 568 91<151.5 242.5>
AnchorPoint: "Anchor-4" 197 720 basemark 0
AnchorPoint: "Anchor-4" 197 496 mark 0
AnchorPoint: "Anchor-0" 197 496 mark 0
LayerCount: 2
Fore
SplineSet
196.666666667 568 m 0
 177.666666667 568 161 574.333333333 147 587 c 2
 0 720 l 1
 129 720 l 1
 197 659 l 1
 265 720 l 1
 393 720 l 1
 247 587 l 2
 232.333333333 574.333333333 215.666666667 568 196.666666667 568 c 0
EndSplineSet
Substitution2: "'case' Case-Sensitive Forms lookup 15 subtable" uni030C.case
Substitution2: "Single Substitution lookup 7 subtable" uni030C.case
Substitution2: "Single Substitution lookup 6 subtable" uni030C.case
Substitution2: "Single Substitution lookup 4 subtable" uni030C.case
Substitution2: "Single Substitution lookup 3 subtable" uni030C.case
Substitution2: "'aalt' Access All Alternates lookup 0 subtable" uni030C.case
EndChar

StartChar: uni030C.alt
Encoding: 403 -1 337
Width: 0
GlyphClass: 1
Flags: W
HStem: 496 192<53.6425 100>
VStem: 44.8415 110.158<572.52 677.294>
LayerCount: 2
Fore
SplineSet
104.916227038 688 m 0
 142.68796524 688 155 648.088157169 155 630.120629977 c 0
 155 625 154 619.333333333 152 614 c 2
 100 496 l 1
 20 496 l 1
 20.2416217728 497.449730637 43.7583782272 639.550269363 44.8415491569 645.787671934 c 0
 50.8937525552 680.639077192 88.6950556756 688 104.916227038 688 c 0
EndSplineSet
EndChar

StartChar: uni0327
Encoding: 405 807 339
Width: 0
GlyphClass: 4
Flags: W
HStem: -187 50<10.4801 120.085>
VStem: 121 94<-134.185 -86.2264>
AnchorPoint: "Anchor-3" 108 -187 basemark 0
AnchorPoint: "Anchor-3" 108 0 mark 0
AnchorPoint: "Anchor-1" 108 0 mark 0
LayerCount: 2
Fore
SplineSet
215 -109.872842066 m 0
 215 -182.576268167 112.088343898 -187 85.8688172781 -187 c 0
 68.5189733819 -187 35.0328245526 -185.062997227 0 -174 c 1
 16 -124 l 1
 16.5578530272 -124.278926514 43.5891070452 -137 76.5568969925 -137 c 0
 95.0214098002 -137 121 -133.009569063 121 -110.543554389 c 0
 121 -93.8938059084 106.731482337 -84 84.5994148804 -84 c 0
 60.8956131227 -84 53.3583093774 -95.3489433609 40.8542487215 -87.8086891541 c 0
 30.709029866 -81.6908742092 26.5151326656 -68.5985178352 32 -59 c 2
 84 25 l 1
 125 0 l 1
 95 -48 l 1
 104.333333333 -46 115.666666667 -45 125.156623386 -45 c 0
 136.859199765 -45 215 -46.5206683432 215 -109.872842066 c 0
EndSplineSet
EndChar

StartChar: uni0302
Encoding: 406 770 340
Width: 0
GlyphClass: 4
Flags: W
HStem: 635 91<150.51 241.51>
AnchorPoint: "Anchor-4" 197 726 basemark 0
AnchorPoint: "Anchor-4" 197 496 mark 0
AnchorPoint: "Anchor-0" 197 496 mark 0
LayerCount: 2
Fore
SplineSet
0 574 m 1
 147 706 l 2
 161.666666667 719.333333333 178.333333333 726 196.010368203 726 c 0
 206.10373238 726 227.192789709 723.826489262 247 706 c 2
 393 574 l 1
 265 574 l 1
 197 635 l 1
 129 574 l 1
 0 574 l 1
EndSplineSet
Substitution2: "'case' Case-Sensitive Forms lookup 15 subtable" uni0302.case
Substitution2: "Single Substitution lookup 7 subtable" uni0302.case
Substitution2: "Single Substitution lookup 6 subtable" uni0302.case
Substitution2: "Single Substitution lookup 4 subtable" uni0302.case
Substitution2: "Single Substitution lookup 3 subtable" uni0302.case
Substitution2: "'aalt' Access All Alternates lookup 0 subtable" uni0302.case
EndChar

StartChar: uni0302.case
Encoding: 407 -1 341
Width: 0
GlyphClass: 4
Flags: W
HStem: 731 152
AnchorPoint: "Anchor-4" 197 883 basemark 0
AnchorPoint: "Anchor-4" 197 668 mark 0
AnchorPoint: "Anchor-0" 197 668 mark 0
LayerCount: 2
Fore
SplineSet
0 731 m 1
 147 864 l 2
 158.029120245 872.823296196 175.245953988 883 197.282449576 883 c 0
 214.666666667 883 231 876.666666667 245 864 c 2
 393 731 l 1
 264 731 l 1
 196 792 l 1
 129 731 l 1
 0 731 l 1
EndSplineSet
EndChar

StartChar: uni0326
Encoding: 408 806 342
Width: 0
GlyphClass: 4
Flags: W
HStem: -251 45<52 81.2716>
VStem: 102 118<-187.075 -106.916>
AnchorPoint: "Anchor-3" 110 -251 basemark 0
AnchorPoint: "Anchor-3" 133 0 mark 0
AnchorPoint: "Anchor-1" 133 0 mark 0
LayerCount: 2
Fore
SplineSet
136 -45 m 1
 190.622765248 -67.0815433982 220 -98.6446861334 220 -139.409305672 c 0
 220 -184.336004526 184.317675048 -251 52 -251 c 1
 0 -206 l 1
 25.0944331786 -206 102 -201.399283701 102 -148.832807521 c 0
 102 -111.641036591 63.502390379 -92.1212666432 34 -85 c 1
 136 -45 l 1
EndSplineSet
EndChar

StartChar: uni0308
Encoding: 409 776 343
Width: 0
GlyphClass: 4
Flags: W
HStem: 578 141<20.8574 120.653 214.867 314.344>
VStem: 0 141<598.347 698.143> 194 140<598.172 698.143>
AnchorPoint: "Anchor-4" 167 719 basemark 0
AnchorPoint: "Anchor-4" 167 496 mark 0
AnchorPoint: "Anchor-0" 167 496 mark 0
LayerCount: 2
Fore
SplineSet
334 647.916346649 m 0
 334 609.471850676 304.532626043 578 265.157396945 578 c 0
 226.405028413 578 194 608.484045263 194 647.924496132 c 0
 194 687.073399182 225.927716604 719 265.149827974 719 c 0
 304.987946754 719 334 686.062670114 334 647.916346649 c 0
141 647.92031401 m 0
 141 608.950736421 110.048669951 578 71.0793914932 578 c 0
 32.4050284134 578 0 608.484045263 0 647.924496132 c 0
 0 687.073399182 31.927716604 719 71.0758943361 719 c 0
 110.516888295 719 141 686.594010882 141 647.92031401 c 0
EndSplineSet
Substitution2: "'case' Case-Sensitive Forms lookup 15 subtable" uni0308.case
Substitution2: "Single Substitution lookup 7 subtable" uni0308.case
Substitution2: "Single Substitution lookup 6 subtable" uni0308.case
Substitution2: "Single Substitution lookup 4 subtable" uni0308.case
Substitution2: "Single Substitution lookup 3 subtable" uni0308.case
Substitution2: "'aalt' Access All Alternates lookup 0 subtable" uni0308.case
EndChar

StartChar: uni0307
Encoding: 411 775 345
Width: 0
GlyphClass: 4
Flags: W
HStem: 578 141<20.8574 120.653>
VStem: 0 141<598.347 698.143>
AnchorPoint: "Anchor-4" 71 719 basemark 0
AnchorPoint: "Anchor-4" 71 496 mark 0
AnchorPoint: "Anchor-0" 71 496 mark 0
LayerCount: 2
Fore
SplineSet
141 647.92031401 m 0
 141 608.950736421 110.048669951 578 71.0793914932 578 c 0
 32.4050284134 578 0 608.484045263 0 647.924496132 c 0
 0 687.073399182 31.927716604 719 71.0758943361 719 c 0
 110.516888295 719 141 686.594010882 141 647.92031401 c 0
EndSplineSet
Substitution2: "'case' Case-Sensitive Forms lookup 15 subtable" uni0307.case
Substitution2: "Single Substitution lookup 7 subtable" uni0307.case
Substitution2: "Single Substitution lookup 6 subtable" uni0307.case
Substitution2: "Single Substitution lookup 4 subtable" uni0307.case
Substitution2: "Single Substitution lookup 3 subtable" uni0307.case
Substitution2: "'aalt' Access All Alternates lookup 0 subtable" uni0307.case
EndChar

StartChar: Euro
Encoding: 413 8364 347
Width: 673
GlyphClass: 1
Flags: W
HStem: -12 130<325.401 478.804> 231 74<46 95 260 333> 366 74<45 95 262 407> 550 130<326.522 475.124>
VStem: 95 151<305 366>
LayerCount: 2
Fore
SplineSet
651 142 m 1
 628.087088854 96.8106474623 556.276130028 -12 397.04389763 -12 c 0
 321.604711595 -12 150.016158374 12.4232477244 104 231 c 1
 6 231 l 1
 46 305 l 1
 95 305 l 1
 95 366 l 1
 5 366 l 1
 45 440 l 1
 105 440 l 1
 121.344713553 510.407996842 183.214436384 680 391.137509034 680 c 0
 455.686252038 680 581.601662563 663.655351706 648 525 c 1
 519 478 l 1
 507.698507883 500.602984233 473.966679361 550 401.309869626 550 c 0
 344.309164401 550 289.033131659 519.59755433 262 440 c 1
 448 440 l 1
 407 366 l 1
 247 366 l 1
 245.881093279 355.929839513 244.490125931 321.608614756 246 305 c 1
 373 305 l 1
 333 231 l 1
 260 231 l 1
 270.776092002 198.073052216 306.305648195 118 398.431218957 118 c 0
 426.655296339 118 492.844925213 125.515632027 523 189 c 1
 651 142 l 1
EndSplineSet
EndChar

StartChar: uni2074
Encoding: 414 8308 348
Width: 448
GlyphClass: 1
Flags: W
HStem: 477 87<158 236 337 395>
VStem: 236 101<403 477 564 659>
DStem2: 55 555 158 564 0.630199 0.776433<71.8984 194.815>
LayerCount: 2
Fore
SplineSet
158 564 m 1
 236 564 l 1
 236 659 l 1
 158 564 l 1
236 403 m 1
 236 477 l 1
 55 477 l 1
 55 555 l 1
 236 778 l 1
 337 778 l 1
 337 564 l 1
 395 564 l 1
 395 477 l 1
 337 477 l 1
 337 403 l 1
 236 403 l 1
EndSplineSet
EndChar

StartChar: gravecomb
Encoding: 415 768 349
Width: 0
GlyphClass: 4
Flags: W
HStem: 574 154<66.0284 99.7188>
VStem: 0 208
AnchorPoint: "Anchor-4" 104 728 basemark 0
AnchorPoint: "Anchor-4" 139 496 mark 0
AnchorPoint: "Anchor-0" 139 496 mark 0
LayerCount: 2
Fore
SplineSet
0 671.116361511 m 0
 0 701.551760661 24.5782262677 728 57.314100011 728 c 0
 73.3333333333 728 87.3333333333 721.666666667 98 709 c 2
 208 574 l 1
 94 574 l 1
 24 625.578947368 24 625.578947368 19 629 c 0
 6.33333333333 641.666666667 0 655.666666667 0 671.116361511 c 0
EndSplineSet
Substitution2: "'case' Case-Sensitive Forms lookup 15 subtable" gravecomb.case
Substitution2: "Single Substitution lookup 7 subtable" gravecomb.case
Substitution2: "Single Substitution lookup 6 subtable" gravecomb.case
Substitution2: "Single Substitution lookup 4 subtable" gravecomb.case
Substitution2: "Single Substitution lookup 3 subtable" gravecomb.case
Substitution2: "'aalt' Access All Alternates lookup 0 subtable" gravecomb.case
EndChar

StartChar: gravecomb.case
Encoding: 416 -1 350
Width: 0
GlyphClass: 4
Flags: W
HStem: 731 154<65.989 99.8594>
VStem: 0 219
AnchorPoint: "Anchor-4" 110 885 basemark 0
AnchorPoint: "Anchor-4" 147 668 mark 0
AnchorPoint: "Anchor-0" 147 668 mark 0
LayerCount: 2
Fore
SplineSet
0 825.915262038 m 0
 0 858.689792752 26.3119189909 885 57.6652732953 885 c 0
 71.3333333333 885 84 880 94 870 c 2
 219 731 l 1
 94 731 l 1
 68.2871049118 749.946343749 45.420479289 768.607040486 20 786 c 1
 2.82282147543 803.177178525 0 815.180265058 0 825.915262038 c 0
EndSplineSet
EndChar

StartChar: uni030B
Encoding: 417 779 351
Width: 0
GlyphClass: 4
Flags: W
HStem: 574 153<109.003 114 312.003 317>
AnchorPoint: "Anchor-4" 206 727 basemark 0
AnchorPoint: "Anchor-4" 158 496 mark 0
AnchorPoint: "Anchor-0" 158 496 mark 0
LayerCount: 2
Fore
SplineSet
354.848711894 727 m 0
 387.268099404 727 411 703.266125781 411 670.179015453 c 0
 411 657.711361717 407.630353787 639.941247651 392 629 c 2
 317 574 l 1
 203 574 l 1
 312 707 l 2
 323.333333333 720.333333333 337.666666667 727 354.848711894 727 c 0
151.848711894 727 m 0
 184.268099404 727 208 703.266125781 208 670.179015453 c 0
 208 657.711361717 204.630353787 639.941247651 189 629 c 2
 114 574 l 1
 0 574 l 1
 109 707 l 2
 120.333333333 720.333333333 134.666666667 727 151.848711894 727 c 0
EndSplineSet
Substitution2: "'case' Case-Sensitive Forms lookup 15 subtable" uni030B.case
Substitution2: "Single Substitution lookup 7 subtable" uni030B.case
Substitution2: "Single Substitution lookup 6 subtable" uni030B.case
Substitution2: "Single Substitution lookup 4 subtable" uni030B.case
Substitution2: "Single Substitution lookup 3 subtable" uni030B.case
Substitution2: "'aalt' Access All Alternates lookup 0 subtable" uni030B.case
EndChar

StartChar: dotlessi
Encoding: 419 305 353
Width: 301
GlyphClass: 2
Flags: W
HStem: 0 21G<118 271> 381 115<24 118>
VStem: 118 153<0 381>
AnchorPoint: "Anchor-2" 271 10 basechar 0
AnchorPoint: "Anchor-1" 151 0 basechar 0
AnchorPoint: "Anchor-0" 161 496 basechar 0
LayerCount: 2
Fore
SplineSet
118 0 m 1
 118 381 l 1
 24 381 l 1
 24 496 l 1
 271 496 l 1
 271 0 l 1
 118 0 l 1
EndSplineSet
EndChar

StartChar: uni0304
Encoding: 420 772 354
Width: 0
GlyphClass: 4
Flags: W
HStem: 570 98<0 299>
VStem: 0 299<570 668>
AnchorPoint: "Anchor-4" 150 668 basemark 0
AnchorPoint: "Anchor-4" 150 496 mark 0
AnchorPoint: "Anchor-0" 150 496 mark 0
LayerCount: 2
Fore
SplineSet
0 570 m 1
 0 668 l 1
 299 668 l 1
 299 570 l 1
 0 570 l 1
EndSplineSet
Substitution2: "'case' Case-Sensitive Forms lookup 15 subtable" uni0304.case
Substitution2: "Single Substitution lookup 7 subtable" uni0304.case
Substitution2: "Single Substitution lookup 6 subtable" uni0304.case
Substitution2: "Single Substitution lookup 4 subtable" uni0304.case
Substitution2: "Single Substitution lookup 3 subtable" uni0304.case
Substitution2: "'aalt' Access All Alternates lookup 0 subtable" uni0304.case
EndChar

StartChar: uni00B5
Encoding: 181 181 356
Width: 591
GlyphClass: 1
Flags: W
HStem: -161 21G<50 207> -12 118<224.012 318.766> 0 124<520.227 588> 476 20G<50 202 365 517>
VStem: 50 152<-161 -7.97786 127.816 496> 365 152<143.631 496>
LayerCount: 2
Fore
SplineSet
195 -6 m 1xdc
 204.230393913 -48.4598119989 207 -73.8662960432 207 -95 c 2
 207 -161 l 1
 50 -161 l 1
 50 496 l 1
 202 496 l 1
 202 235 l 2
 202 135.133888288 227.244455669 106 273.098121684 106 c 0xdc
 305.470239736 106 365 120.52086724 365 234 c 2
 365 496 l 1
 517 496 l 1
 517 163 l 2
 517 137 531.666666667 124 561.799744505 124 c 0
 577.006714522 124 583.294017378 127.310867073 588 130 c 1
 588 6 l 1
 572.746255546 2.61027901032 558.151374619 0 529.795060527 0 c 0xbc
 430.796752264 0 392.977139706 31.8158053632 375 72 c 1
 363.666666667 51.3333333333 347.5 32.1666666667 331.737818731 18.9064189324 c 0
 305.5 -3.16666666667 276.666666667 -12 240.980555994 -12 c 0
 224 -12 209 -10 195 -6 c 1xdc
EndSplineSet
EndChar

StartChar: uni0328
Encoding: 422 808 357
Width: 0
GlyphClass: 4
Flags: W
HStem: -174 76<128.393 220.287>
VStem: 0 126<-94.5449 -39.3115>
AnchorPoint: "Anchor-2" 221 0 mark 0
LayerCount: 2
Fore
SplineSet
221 -164 m 1
 205.512190454 -169.631930744 166.430717741 -174 135.628093682 -174 c 0
 3.98565012096 -174 0 -94.2178097138 0 -80.721020722 c 0
 0 -31.9568994895 52.0282310045 -8.68089382619 80 0 c 1
 221 0 l 1
 139.590736509 -40.7046317456 126 -49.6896784026 126 -67.8252382474 c 0
 126 -93.8219409962 153.926569861 -98 171.985917902 -98 c 0
 194.623357382 -98 206.389120897 -91.4351465171 221 -89 c 1
 221 -164 l 1
EndSplineSet
Substitution2: "'case' Case-Sensitive Forms lookup 15 subtable" uni0328.case
Substitution2: "Single Substitution lookup 7 subtable" uni0328.case
Substitution2: "Single Substitution lookup 6 subtable" uni0328.case
Substitution2: "Single Substitution lookup 4 subtable" uni0328.case
Substitution2: "Single Substitution lookup 3 subtable" uni0328.case
Substitution2: "'aalt' Access All Alternates lookup 0 subtable" uni0328.case
EndChar

StartChar: uni0328.case
Encoding: 423 -1 358
Width: 0
GlyphClass: 4
Flags: W
HStem: -174 76<128.252 220.287>
VStem: 0 126<-94.5682 -32.7298>
AnchorPoint: "Anchor-2" 221 0 mark 0
LayerCount: 2
Fore
SplineSet
221 -164 m 1
 205.512190454 -169.631930744 166.430717741 -174 135.628093682 -174 c 0
 3.98565012096 -174 0 -94.2178097138 0 -80.721020722 c 0
 0 -31.9568994895 52.0282310045 -8.68089382619 80 0 c 1
 221 0 l 1
 189.470972752 -3.31884497348 126 -30.3792332289 126 -68.5215129964 c 0
 126 -93.8219409962 153.926569861 -98 171.985917902 -98 c 0
 194.623357382 -98 206.389120897 -91.4351465171 221 -89 c 1
 221 -164 l 1
EndSplineSet
EndChar

StartChar: uni030A
Encoding: 424 778 359
Width: 0
GlyphClass: 4
Flags: W
HStem: 535 86<93.034 170.901> 715 85<93.4458 172.013>
VStem: 0 85<629.38 706.648> 179 86<629.209 708.395>
AnchorPoint: "Anchor-4" 133 800 basemark 0
AnchorPoint: "Anchor-4" 133 496 mark 0
AnchorPoint: "Anchor-0" 133 496 mark 0
LayerCount: 2
Fore
SplineSet
85 668.865817999 m 0
 85 642.388899038 106.389916739 621 132.865936748 621 c 0
 160.102019455 621 179 643.634573622 179 668.870631061 c 0
 179 694.898218397 158.897956521 715 132.870671311 715 c 0
 107.635032169 715 85 696.102453394 85 668.865817999 c 0
265 668.838269577 m 0
 265 598.068546448 208.936868739 535 133.013157455 535 c 0
 58.0567481096 535 0 596.471740858 0 668.804578873 c 0
 0 744.064451508 62.8504879847 800 133.008630935 800 c 0
 204.069094182 800 265 742.616398771 265 668.838269577 c 0
EndSplineSet
Substitution2: "'case' Case-Sensitive Forms lookup 15 subtable" uni030A.case
Substitution2: "Single Substitution lookup 7 subtable" uni030A.case
Substitution2: "Single Substitution lookup 6 subtable" uni030A.case
Substitution2: "Single Substitution lookup 4 subtable" uni030A.case
Substitution2: "Single Substitution lookup 3 subtable" uni030A.case
Substitution2: "'aalt' Access All Alternates lookup 0 subtable" uni030A.case
EndChar

StartChar: uni00AD
Encoding: 173 173 362
Width: 350
GlyphClass: 1
Flags: W
HStem: 184 129<24 326>
VStem: 24 302<184 313>
LayerCount: 2
Fore
SplineSet
24 184 m 1
 24 313 l 1
 326 313 l 1
 326 184 l 1
 24 184 l 1
EndSplineSet
EndChar

StartChar: uni0163
Encoding: 427 355 363
Width: 379
GlyphClass: 2
Flags: W
HStem: -187 50<141.48 251.085> 0 124<255.989 355> 380 116<13 95 247 355>
VStem: 95 152<130.35 380 496 620> 252 94<-134.185 -86.2264>
AnchorPoint: "Anchor-1" 216 -251 basechar 0
AnchorPoint: "Anchor-0" 190 496 basechar 0
LayerCount: 2
Fore
SplineSet
346 -109.872842066 m 0
 346 -182.576268167 243.088343898 -187 216.868817278 -187 c 0
 199.518973382 -187 166.032824553 -185.062997227 131 -174 c 1
 147 -124 l 1
 147.557853027 -124.278926514 174.589107045 -137 207.556896992 -137 c 0
 226.0214098 -137 252 -133.009569063 252 -110.543554389 c 0
 252 -93.8938059084 237.731482337 -84 215.59941488 -84 c 0
 191.895613123 -84 184.358309377 -95.3489433609 171.854248722 -87.8086891541 c 0
 161.709029866 -81.6908742092 157.515132666 -68.5985178352 163 -59 c 2
 201.350523703 2.95084598249 l 1
 134.401831153 10.755706777 95 30.857031779 95 140 c 2
 95 380 l 1
 13 380 l 1
 13 496 l 1
 95 496 l 1
 95 620 l 1
 247 620 l 1
 247 496 l 1
 355 496 l 1
 355 380 l 1
 247 380 l 1
 247 180 l 2
 247 136.881565316 259.014532712 124 311 124 c 2
 355 124 l 1
 355 0 l 1
 259 0 l 2
 257.991342201 0 256.987811 0.00215317136052 255.989406397 0.00645951408157 c 2
 226 -48 l 1
 235.333333333 -46 246.666666667 -45 256.156623386 -45 c 0
 267.859199765 -45 346 -46.5206683432 346 -109.872842066 c 0
EndSplineSet
Substitution2: "'locl' Localized Forms in Latin lookup 8 subtable" uni021B
Substitution2: "'aalt' Access All Alternates lookup 0 subtable" uni021B
EndChar

StartChar: tildecomb
Encoding: 429 771 365
Width: 0
GlyphClass: 4
Flags: W
HStem: 569 79<194.016 291.534> 607 82<93.768 185.016>
AnchorPoint: "Anchor-4" 185 689 basemark 0
AnchorPoint: "Anchor-4" 185 496 mark 0
AnchorPoint: "Anchor-0" 185 496 mark 0
LayerCount: 2
Fore
SplineSet
370 650.105121079 m 0x40
 370 611.921677006 315.80338469 569 248.782909222 569 c 0x80
 185.721893473 569 168.108515884 607 132.852753112 607 c 0
 125.331454709 607 94.8632273826 605.27054604 89 574 c 1
 0 574 l 1
 8.32062130201 624.84824129 36.3785837701 689 125.311591211 689 c 0x40
 196.408484516 689 202.025797326 648 246.093731345 648 c 0x80
 290.161665364 648 294.92776553 689 330.884387161 689 c 0
 355.419528365 689 370 669.910119044 370 650.105121079 c 0x40
EndSplineSet
Substitution2: "'case' Case-Sensitive Forms lookup 15 subtable" tildecomb.case
Substitution2: "Single Substitution lookup 7 subtable" tildecomb.case
Substitution2: "Single Substitution lookup 6 subtable" tildecomb.case
Substitution2: "Single Substitution lookup 4 subtable" tildecomb.case
Substitution2: "Single Substitution lookup 3 subtable" tildecomb.case
Substitution2: "'aalt' Access All Alternates lookup 0 subtable" tildecomb.case
EndChar

StartChar: zero.alt1
Encoding: 431 -1 367
Width: 652
Flags: W
HStem: -12 113<269.416 394.144> 567 113<269.771 395.283>
VStem: 45 157<251.877 480.338> 462 156<190.01 429.966>
DStem2: 208 246 251 139 0.570817 0.821077<0 292.32>
LayerCount: 2
Fore
SplineSet
330.826080915 101 m 0
 380.73554623 101 462 131.507872071 462 336.039960739 c 0
 462 361.465323628 460.744224418 395.592821806 454 431 c 1
 251 139 l 1
 271.666666667 113.666666667 298.666666667 101 330.826080915 101 c 0
331.435765406 567 m 0
 273.36787358 567 202 527.295680723 202 333.735857046 c 0
 202 301.333333333 204 272 208 246 c 1
 409 534 l 1
 387.666666667 556 362 567 331.435765406 567 c 0
618 340.377369453 m 0
 618 233.172494933 591.096709476 -12 338.95936924 -12 c 0
 245.050999688 -12 45 22.0099515174 45 338.235196303 c 0
 45 408.465671748 54.8673121701 680 332.149128217 680 c 0
 425.333333333 680 496.333333333 649.333333333 546.113872959 586.596214901 c 0
 593.666666667 526.666666667 618 442.333333333 618 340.377369453 c 0
EndSplineSet
Substitution2: "'tnum' Tabular Numbers lookup 14 subtable" zero
Substitution2: "'aalt' Access All Alternates lookup 0 subtable" zero.tf
Substitution2: "'zero' Slashed Zero lookup 0-1" zero
EndChar

StartChar: copyleft
Encoding: 432 127279 368
Width: 798
Flags: W
HStem: -12 69<293.801 503.86> 145 85<334.665 439.938> 437 85<338.708 441.222> 610 69<293.591 504.071>
VStem: 53 70<228.007 438.368> 468 112<256.289 409.815> 675 70<228.071 438.307>
LayerCount: 2
Fore
SplineSet
580 336.636941279 m 0
 580 291.678194107 567.688269778 145 401.588654461 145 c 0
 357.520663757 145 279.14396164 155.324637188 235 231 c 1
 325 264 l 1
 337.666666667 241.333333333 359.666666667 230 387.101835266 230 c 0
 409.666666667 230 427.166666667 237.666666667 440.309897657 250.005210045 c 0
 459.833333333 268.333333333 468 295.333333333 468 333.529214827 c 0
 468 371.333333333 460 397.833333333 441.309365299 416.134579811 c 0
 428 429.166666667 410.333333333 437 388.828989963 437 c 0
 364.277772684 437 338.830735684 426.789657859 326 394 c 1
 234 428 l 1
 250.666666667 463.333333333 274.166666667 487.833333333 309.596580536 503.79626156 c 0
 334.833333333 515.166666667 365.666666667 522 397.811939684 522 c 0
 502.634231403 522 580 449.338280701 580 336.636941279 c 0
123 333.56776657 m 0
 123 180.537574521 246.540587852 57 399.130892333 57 c 0
 552.56976808 57 675 181.915406792 675 333.571424707 c 0
 675 485.653367505 551.881113468 610 399.136325177 610 c 0
 247.239563986 610 123 487.030260191 123 333.56776657 c 0
745 332.890754753 m 0
 745 140.891088715 587.805109726 -12 398.46216335 -12 c 0
 208.365827716 -12 53 142.110206381 53 332.891085182 c 0
 53 522.483344215 206.435910851 679 398.458530678 679 c 0
 589.7242623 679 745 523.714783879 745 332.890754753 c 0
EndSplineSet
EndChar

StartChar: f_i
Encoding: 433 64257 369
Width: 616
Flags: W
HStem: 0 21G<87 239 419 572> 380 116<5 87 239 419> 578 180<437.703 554.506> 608 120<246.787 347>
VStem: 87 152<0 380 496 602.093> 406 180<609.703 726.506> 419 153<0 380>
LayerCount: 2
Fore
SplineSet
586 668.870537568 m 0xec
 586 619.422774819 548.362728092 578 496.867894464 578 c 0
 446.163127462 578 406 618.161456263 406 668.867622583 c 0
 406 720.362944335 447.422997475 758 496.870009811 758 c 0
 547.12290145 758 586 719.126142071 586 668.870537568 c 0xec
305 608 m 2xda
 249.843052008 608 239 599.109491972 239 563 c 2
 239 496 l 1
 572 496 l 1
 572 0 l 1
 419 0 l 1
 419 380 l 1
 239 380 l 1
 239 0 l 1
 87 0 l 1
 87 380 l 1
 5 380 l 1
 5 496 l 1
 87 496 l 1
 87 577 l 2
 87 689.818158949 137.940063657 728 278 728 c 2
 347 728 l 1
 347 608 l 1
 305 608 l 2xda
EndSplineSet
LCarets2: 1 350
Ligature2: "'liga' Standard Ligatures lookup 0-1" f i
EndChar

StartChar: f_f
Encoding: 434 64256 370
Width: 699
Flags: W
HStem: 0 21G<87 239 419 571> 380 116<5 87 239 419 571 679> 608 120<246.787 347 578.787 679>
VStem: 87 152<0 380 496 602.093> 419 152<0 380 496 602.093>
LayerCount: 2
Fore
SplineSet
637 608 m 2
 581.843052008 608 571 599.109491972 571 563 c 2
 571 496 l 1
 679 496 l 1
 679 380 l 1
 571 380 l 1
 571 0 l 1
 419 0 l 1
 419 380 l 1
 239 380 l 1
 239 0 l 1
 87 0 l 1
 87 380 l 1
 5 380 l 1
 5 496 l 1
 87 496 l 1
 87 577 l 2
 87 689.818158949 137.940063657 728 278 728 c 2
 347 728 l 1
 347 608 l 1
 305 608 l 2
 249.843052008 608 239 599.109491972 239 563 c 2
 239 496 l 1
 419 496 l 1
 419 577 l 2
 419 689.818158949 469.940063657 728 610 728 c 2
 679 728 l 1
 679 608 l 1
 637 608 l 2
EndSplineSet
LCarets2: 1 348
Ligature2: "'liga' Standard Ligatures lookup 0-1" f f
EndChar

StartChar: f_f_i
Encoding: 435 64259 371
Width: 933
Flags: W
HStem: 0 21G<87 239 419 571 751 904> 380 116<5 87 239 419 571 751> 578 180<769.703 886.506> 608 120<246.787 347 578.787 679>
VStem: 87 152<0 380 496 602.093> 419 152<0 380 496 602.093> 738 180<609.703 726.506> 751 153<0 380>
LayerCount: 2
Fore
SplineSet
918 668.870537568 m 0xee
 918 619.422774819 880.362728092 578 828.867894464 578 c 0
 778.163127462 578 738 618.161456263 738 668.867622583 c 0
 738 720.362944335 779.422997475 758 828.870009811 758 c 0
 879.12290145 758 918 719.126142071 918 668.870537568 c 0xee
637 608 m 2xdd
 581.843052008 608 571 599.109491972 571 563 c 2
 571 496 l 1
 904 496 l 1
 904 0 l 1
 751 0 l 1
 751 380 l 1
 571 380 l 1
 571 0 l 1
 419 0 l 1
 419 380 l 1
 239 380 l 1
 239 0 l 1
 87 0 l 1
 87 380 l 1
 5 380 l 1
 5 496 l 1
 87 496 l 1
 87 577 l 2
 87 689.818158949 137.940063657 728 278 728 c 2
 347 728 l 1
 347 608 l 1
 305 608 l 2
 249.843052008 608 239 599.109491972 239 563 c 2
 239 496 l 1
 419 496 l 1
 419 577 l 2
 419 689.818158949 469.940063657 728 610 728 c 2
 679 728 l 1
 679 608 l 1
 637 608 l 2xdd
EndSplineSet
LCarets2: 2 346 678
Ligature2: "'liga' Standard Ligatures lookup 0-1" f f i
EndChar

StartChar: f_f_l
Encoding: 437 64260 373
Width: 1013
Flags: W
HStem: 0 124<907.167 1010> 380 116<5 87 239 419 571 679> 608 120<246.787 347 578.787 679> 648 20G<749 901>
VStem: 87 152<0 380 496 602.093> 419 152<0 380 496 602.093> 749 152<134.76 668>
LayerCount: 2
Fore
SplineSet
637 608 m 2xee
 581.843052008 608 571 599.109491972 571 563 c 2
 571 496 l 1
 679 496 l 1
 679 380 l 1
 571 380 l 1
 571 0 l 1
 419 0 l 1
 419 380 l 1
 239 380 l 1
 239 0 l 1
 87 0 l 1
 87 380 l 1
 5 380 l 1
 5 496 l 1
 87 496 l 1
 87 577 l 2
 87 689.818158949 137.940063657 728 278 728 c 2
 347 728 l 1
 347 608 l 1
 305 608 l 2
 249.843052008 608 239 599.109491972 239 563 c 2
 239 496 l 1
 419 496 l 1
 419 577 l 2
 419 689.818158949 469.940063657 728 610 728 c 2
 679 728 l 1
 679 608 l 1
 637 608 l 2xee
901 180 m 2
 901 137.080628962 913.34001889 124 967 124 c 2
 1010 124 l 1
 1010 0 l 1
 913 0 l 2
 787.188972027 0 749 26.8722180242 749 140 c 2
 749 668 l 1
 901 668 l 1xde
 901 180 l 2
EndSplineSet
LCarets2: 2 348 716
Ligature2: "'liga' Standard Ligatures lookup 0-1" f f l
EndChar

StartChar: dong
Encoding: 438 8363 374
Width: 632
InSpiro: 1
Flags: W
HStem: -120 78<58 588> -12 118<234.019 332.044> 0 21G<412.03 563> 392 118<231.47 328.173> 555 78<243 394 546 612>
VStem: 24 158<159.771 340.321> 394 152<428 555 633 698> 401 145<154.121 343.173>
LayerCount: 2
Fore
SplineSet
58 -120 m 1x9c
 58 -42 l 1
 588 -42 l 1
 588 -120 l 1
 58 -120 l 1x9c
EndSplineSet
Refer: 319 273 N 1 0 0 1 0 0 2
EndChar

StartChar: uni0237
Encoding: 474 567 410
Width: 259
HStem: -161 120<-70 49.2017> 476 20G<55 207>
VStem: 55 152<-36.1516 496>
AnchorPoint: "Anchor-0" 133 496 basechar 0
LayerCount: 2
Fore
SplineSet
207 -24 m 2
 207 -112.271533604 162.111097926 -161 17 -161 c 2
 -70 -161 l 1
 -70 -41 l 1
 -11 -41 l 2
 43.9778091132 -41 55 -32.5547989318 55 -2 c 2
 55 496 l 1
 207 496 l 1
 207 -24 l 2
EndSplineSet
EndChar

StartChar: uni2010
Encoding: 489 8208 425
Width: 334
Flags: W
HStem: 184 129<24 310>
VStem: 24 286<184 313>
LayerCount: 2
Fore
SplineSet
24 184 m 1
 24 313 l 1
 310 313 l 1
 310 184 l 1
 24 184 l 1
EndSplineSet
EndChar

StartChar: Ldot
Encoding: 496 319 432
Width: 537
HStem: 0 139<202 522> 251.294 192.706<325.361 449.085> 648 20G<44 202>
VStem: 44 158<139 668> 290 194<287.414 407.971>
LayerCount: 2
Fore
SplineSet
484 347.683008446 m 0
 484 292.450833147 441.091258475 251.327281462 388.053990686 251.293718161 c 0
 337.530182375 251.261745441 290 288.405497753 290 347.71966339 c 0
 290 407.051350255 337.558267071 444 387.951007358 444 c 0
 441.088274179 444 484 402.917104406 484 347.683008446 c 0
EndSplineSet
Refer: 26 76 N 1 0 0 1 0 0 3
EndChar

StartChar: ldot
Encoding: 497 320 433
Width: 485
Flags: W
HStem: 0 124<208.167 311> 250 194<306.506 428.029> 648 20G<50 202>
VStem: 50 152<134.76 668> 270 195<287.154 408.256>
LayerCount: 2
Fore
SplineSet
465 347.868470191 m 0
 465 293.128370896 421.871346006 250 368.078942259 250 c 0
 314.576620472 250 270 292.664475304 270 347.867440342 c 0
 270 403.865767283 315.870390089 444 368.086302303 444 c 0
 420.596925637 444 465 403.411446625 465 347.868470191 c 0
EndSplineSet
Refer: 52 108 N 1 0 0 1 0 0 2
EndChar

